<svg width="700" height="360" xmlns="http://www.w3.org/2000/svg">

 <g>
  <title>Layer 1</title>
  <path stroke="#000" stroke-width="5" d="m37.00226,274.12862c0,-3.41038 -0.5822,-14.03079 10.5174,-75.02847c9.9965,-54.93552 26.94434,-135.02454 38.56381,-156.87767c8.06991,-15.17735 10.66783,-15.61809 14.0232,-13.64154c6.049,3.56327 32.77142,35.09304 57.84571,85.25962c27.70567,55.43127 59.84469,134.24573 71.86889,180.75037c4.2421,16.40654 6.47425,29.12877 8.7645,27.28308c1.61949,-1.30512 1.21732,-7.10261 5.2587,-34.10385c9.2988,-62.12696 17.11485,-118.13136 33.30511,-173.9296c6.21395,-21.41583 16.00923,-42.86684 22.78771,-47.74539c3.67613,-2.64576 5.40913,-5.38693 8.7645,-3.41038c6.04897,3.56327 22.28336,41.51301 35.05801,81.84921c21.93447,69.2584 31.85777,102.56684 47.32831,122.77385c6.50849,8.50114 15.12984,17.55925 22.78771,6.82077c24.21622,-33.95809 35.12033,-94.27776 61.35151,-167.10883c16.49833,-45.80769 31.76035,-76.4993 50.83411,-85.25962c6.82405,-3.13419 13.93301,1.01868 15.7761,6.82077c2.06065,6.48694 7.47764,15.03786 24.54061,71.61808c17.96161,59.56009 42.20843,129.38639 54.33991,160.28806c10.64001,27.10256 15.7761,34.10385 17.529,37.51423l1.7529,3.41038" id="svg_2" fill="none"/>
 </g>
</svg>