<?xml version="1.0" encoding="utf-8"?>
<!-- Generator: Adobe Illustrator 27.5.0, SVG Export Plug-In . SVG Version: 6.00 Build 0)  -->
<svg version="1.1" id="Layer_1" xmlns="http://www.w3.org/2000/svg" xmlns:xlink="http://www.w3.org/1999/xlink" x="0px" y="0px"
	 viewBox="0 0 300 100" style="enable-background:new 0 0 300 100;" xml:space="preserve">
<style type="text/css">
	.st0{fill:#353535;}
	.st1{fill:#C7C7C7;}
	.st2{fill:#959595;}
	.st3{fill:#C2C2C2;}
	.st4{fill:#C5C5C5;}
	.st5{fill:#2C2C2C;}
	.st6{fill:#BEBEBE;}
	.st7{fill:#949494;}
	.st8{fill:#A1A1A1;}
	.st9{fill:#AAAAAA;}
	.st10{fill:#B7B7B7;}
	.st11{fill:#B0B0B0;}
	.st12{fill:#2D2D2D;}
	.st13{fill:#161616;}
	.st14{fill:#565656;}
	.st15{fill:#BCBCBC;}
	.st16{fill:#626262;}
	.st17{fill:#E4E4E4;}
	.st18{fill:#F1F1F1;}
	.st19{fill:#717171;}
	.st20{fill:#696969;}
	.st21{fill:#919191;}
	.st22{fill:#444444;}
	.st23{fill:#ACACAC;}
	.st24{fill:#E9E9E9;}
	.st25{fill:#D5D5D5;}
	.st26{fill:#ADADAD;}
	.st27{fill:#F0F0F0;}
	.st28{fill:#FFFFFF;}
	.st29{fill:#BFBFBF;}
	.st30{fill:#DBDBDB;}
	.st31{fill:#434343;}
	.st32{fill:#999999;}
	.st33{fill:#9B9B9B;}
	.st34{fill:#858585;}
	.st35{fill:#818181;}
	.st36{fill:#8D8D8D;}
	.st37{fill:#8C8C8C;}
	.st38{fill:#8B8B8B;}
	.st39{fill:#7A7A7A;}
	.st40{fill:#171717;}
	.st41{fill:#BBBBBB;}
	.st42{fill:none;}
	.st43{fill:#B4B4B4;}
	.st44{fill:#A9A9A9;}
	.st45{fill:#AEAEAE;}
	.st46{fill:#EBEBEB;}
	.st47{fill:#BDBDBD;}
	.st48{fill:#9F9F9F;}
	.st49{fill:#B3B3B3;}
	.st50{fill:#9D9D9D;}
	.st51{fill:#888888;}
	.st52{fill:#868686;}
	.st53{fill:#7B7B7B;}
	.st54{fill:#8A8A8A;}
	.st55{fill:#9C9C9C;}
	.st56{fill:#727272;}
	.st57{fill:#E2E2E2;}
	.st58{fill:#7E7E7E;}
	.st59{fill:#797979;}
	.st60{fill:#636363;}
	.st61{fill:#AFAFAF;}
	.st62{fill:#7F7F7F;}
	.st63{fill:#747474;}
	.st64{fill:#B2B2B2;}
	.st65{fill:#A5A5A5;}
	.st66{fill:#989898;}
	.st67{fill:#6F6F6F;}
	.st68{fill:#979797;}
	.st69{fill:#A7A7A7;}
	.st70{fill:#ABABAB;}
	.st71{fill:#969696;}
	.st72{fill:#838383;}
	.st73{fill:#8E8E8E;}
	.st74{fill:#848484;}
	.st75{fill:#A2A2A2;}
	.st76{fill:#6D6E71;}
</style>
<g>
	<path class="st0" d="M93,44.9c-1.6,0.4-3.2,0.8-4.9,1.1c-1.1,0.3-2.3,0.6-3.4,0.9c-2.4-0.1-4.8-0.5-7-1.4c-0.4-0.1-0.6-0.5-0.9-0.8
		c0.1-0.2,0.1-0.3,0.2-0.5c1.4-1.8,1-3.8,0.6-5.7c-0.4-2-0.7-4-0.2-6c0.2-0.9,0.6-1.8,1.2-2.6c2.4-3.2,6.5-4.8,10.9-3.7
		c-1.3,1.8-2.6,3.6-3.9,5.5c-1.2,1.7-1,2.7,0.6,3.9c0.9,0.7,1.8,1.3,2.7,1.8c0.8,0.5,1.7,0.5,2.3-0.2c1.2-1.5,2.4-3,3.5-4.6
		c0.4-0.6,0.9-1.2,1.3-1.8c2.5,3.8,2.1,9.3-0.7,12.5C94.6,43.9,93.8,44.4,93,44.9z"/>
	<path class="st1" d="M37.4,45.1c-3.8,0-7.5,0-11.3,0c1.1-2.3,1.3-4.7,0.9-7.1c-0.4-1.9-1.3-3.4-2.5-4.9c0.8,0.1,1.1-0.2,1-1
		c0-0.5,0-1.1,0-1.6c0.1-0.7-0.3-1-1-1c-2.2,0-4.4,0-6.6,0c-0.3,0-0.6,0.1-0.9,0.2v0.1c-1,0.1-1.9,0.2-2.9,0.3c0-2.8,0-5.5,0-8.3
		c6.3,0,12.6,0,18.9,0c0.4,0,0.8-0.1,1.2-0.2c0-0.1,0-0.1,0-0.1c0.1,0.6,0.2,1.2,0.4,1.9c0,0.2,0,0.5,0,0.7c0,0.3,0.1,0.6,0.1,1
		c0.2,1.2,0.4,2.4,0.5,3.6c0,0.2,0,0.3,0,0.5s0.1,0.3,0.1,0.5h-0.1c-1.7-0.1-3.4-0.1-5.1-0.1c-0.4,0-0.8,0.1-1.1,0.2
		c0,1.1,0,2.1,0,3.2c0.3,0.1,0.6,0.2,1,0.2c1.9,0,3.8,0,5.8,0c0.2,1.4,0.4,2.8,0.6,4.2c-2.1,0-4.1,0-6.2,0c-0.8,0-1.1,0.2-1.1,1
		c0.1,1,0,2,0,3c0.3,0.1,0.6,0.2,1,0.2c2.3,0,4.6,0,6.9,0c0.1,1,0.3,2,0.4,3C37.3,44.7,37.3,44.9,37.4,45.1z"/>
	<path class="st2" d="M13.3,84.1c0-1.1,0-2.3,0-3.4c2,0,4,0,6.1,0c1.5,0,1.8-0.3,1.8-1.8c0-0.9-0.2-1.9,0.6-2.7
		c0.1-0.1,0.1-0.5,0.1-0.7c0-1.2,0-2.5,0-3.7c0-0.6,0.2-0.9,0.8-0.8c0,2.6,0,5.1,0,7.7c0,0.5,0,0.9,0.7,0.9c0.2,0.2,0.5,0.4,0.7,0.7
		c0,0.7,0.4,0.7,0.9,0.7c2.3,0,4.6,0.1,6.9,0c0.8,0,1.6-0.5,2.4-0.8c0.1,0,0.1-0.3,0.2-0.5c0.1,0,0.2,0,0.3,0c0.6,0,1-0.1,1.5-0.5
		c1.2-1.1,1.4-1.1,2.4-0.5c0,0.5,0.1,0.9,0.7,1l0,0c0,0.6,0.4,0.7,0.8,0.7c0.7,0,1.4,0,2,0c1.1-0.1,2.2-1.5,2.2-2.9
		c0.2,0,0.4,0,0.7,0c0.1,1.4-0.6,2.4-1.2,3.5c-0.2,0.3-0.3,0.8-0.2,1.1c0.1,0.2,0.6,0.4,0.9,0.4c2,0,4,0,6,0c0.9,0,1.2-0.6,0.7-1.4
		c-0.3-0.6-0.8-1.1-1-1.7c-0.1-0.4,0.1-0.9,0.1-1.3c0.1,0.3,0.2,0.6,0.3,0.8c0.2,0.4,0.3,0.8,0.5,1.1c0.8,1.1,2,1,3.1,1
		c1.5,0.1,3,0.1,4.5,0.2c0.9,0.1,2.2-0.4,2.5-0.9c0.2,0,0.5,0,0.7,0c-0.2,0.9-0.7,1.6-1.8,1.8c0.7,0.4,1.4,0.8,2.1,0.9
		c1.4,0.1,2.8,0,4.2,0c0.9,0,1.4-0.4,1.8-0.8c-0.5-0.9-1-1.7-1.5-2.6c0.9,0.6,1.7,1.2,2.6,1.7c0.3,0.2,0.7,0.2,1,0.1
		c1-0.4,2.1-0.6,2.4-1.8c0-0.1,0.2-0.2,0.2-0.2c0,1.2-0.2,2.2-1.6,2.6c0.7,0.6,1.2,1,2.1,1c2.4,0,4.8,0,7.2,0c0,0.4,0,0.8,0,1.2
		C58.3,84.1,35.8,84.1,13.3,84.1z"/>
	<path class="st0" d="M14.1,30.2c1-0.1,1.9-0.2,2.9-0.3c2.8,0.2,5.2,1.1,7.3,3.1c0.1,0.1,0.1,0.1,0.2,0.2c1.2,1.4,2.2,3,2.5,4.9
		c0.5,2.5,0.2,4.8-0.9,7.1c-0.3,0.5-0.6,0.9-0.9,1.4c2.5,2.3,4.9,4.6,7.3,6.8c-1.7,0-3.5,0.1-5.2,0.1c-0.3-0.3-0.7-0.5-1-0.8
		c-1.1-1-2.2-2.1-3.3-3.1c-0.4-0.4-0.7-0.3-1.1-0.1c-1.6,1-3.4,1.5-5.2,1.4c-2.4-0.1-4.7-0.9-6.6-2.5c-2.2-1.8-3.4-4.1-3.7-6.9
		c-0.3-2.9,0.5-5.5,2.4-7.8C10.1,31.9,11.9,30.8,14.1,30.2z M16.1,47.6c1.2,1.1,2.7,1.5,4.2,1.3c3.4-0.5,5.4-3.2,5-6.6
		c-0.1-1.1-0.4-2.2-1.4-2.8c-0.2-0.7-0.4-1.4-0.6-2c-0.5-1.3-1.4-2.3-2.5-3.1c-1.8-1.3-5-1.7-7-0.6c-3,1.1-4.7,4.5-4.3,7.2
		c0.5,3.6,3.2,6.2,6.5,6.5C16.1,47.5,16.1,47.6,16.1,47.6z"/>
	<path class="st3" d="M13.2,58.4c0-0.7,0-1.4,0-2c22.5,0,45,0,67.6,0c0,0.7,0,1.4,0,2c-2.8,0-5.6,0.1-8.3-0.6
		c-1.8-0.5-3.6-0.4-5.4,0.1c-1.2,0.3-2.5,0.6-3.6,0.3c-2.9-0.8-5.7-0.9-8.5,0c-0.3,0.1-0.8,0.2-1.1,0.1c-2.7-0.9-5.4-0.8-8.2-0.7
		c-1.1,0-2.2,0.1-3.2,0.4c-1.7,0.5-3.5,0.6-5.2,0.2c-3.2-0.6-6.3-0.8-9.6-0.7c-0.7,0-1.4,0-2.1,0c-1.4-0.1-2.9,0.1-4.2,0.6
		c-0.5,0.2-1,0.2-1.6,0.2C17.7,58.4,15.5,58.4,13.2,58.4z"/>
	<path class="st4" d="M13.2,55.6c0-0.4,0-0.9,0-1.3c13.4,0,26.8,0,40.2,0c8.9,0,17.8,0,26.7,0c0.1,0,0.1,0,0.2,0c0.2,0,0.3,0,0.5,0
		c0,0.4,0,0.9,0,1.3C58.3,55.6,35.8,55.6,13.2,55.6z"/>
	<path class="st5" d="M73,39.7c0,0.1,0,0.2,0,0.3c-0.4,0-0.7,0-1.1,0.1c-0.6,0.1-0.8,0.4-0.7,1c0.2,1.2,0.3,2.4,0.5,3.6
		c0,0.2,0.3,0.5,0.5,0.5c0.5,0,1-0.1,1.5-0.2c0,0.1,0,0.2,0,0.3c-0.2,0-0.4,0-0.6,0c-1.2,0.1-1.3,0.3-1.1,1.5c0.1,1,0.2,2.1,0.4,3.1
		c0,0.3,0.4,0.4,0.6,0.7c-0.1,0.2-0.1,0.4-0.2,0.7c-0.1,0.1-0.3,0.3-0.4,0.4c-0.1-0.6-0.5-0.8-1-0.7c-0.7,0.1-1.4,0.2-2.1,0.3
		c-2,0.2-2,0.2-1.8,2.2c-0.1,0-0.1,0-0.2,0c-0.1-0.3-0.1-0.5-0.2-0.8c-0.1-0.9-0.3-1.1-1.2-0.9c-0.9,0.1-1.8,0.2-2.7,0.4
		C62,52.4,62,52.4,62,53.6c-0.1,0-0.1,0-0.2,0c0-0.6,0-1.2-0.9-1.1c-1.2,0.2-2.4,0.3-3.6,0.5c-0.4,0-0.6,0.2-0.5,0.7
		c-0.1,0-0.2,0-0.3,0c-0.2-0.2-0.5-0.4-0.7-0.4c-1,0.1-1.9,0.3-2.9,0.4c-0.6,0-1.1,0-1.7,0c-0.2-1.4-0.4-2.8-0.6-4.3
		c-0.1-0.5-0.3-0.8-0.9-0.7c-1,0.2-2.1,0.3-3.1,0.5c-0.1-0.1-0.1-0.2-0.2-0.3c1.1-0.1,2.3-0.2,3.4-0.4c0.2,0,0.5-0.4,0.5-0.6
		c-0.1-1.3-0.3-2.6-0.5-3.8c-0.1-0.6-0.4-0.7-0.9-0.6c-0.7,0.1-1.4,0.2-2.2,0.3c0-0.1,0-0.2,0-0.3c0.7-0.1,1.5-0.1,2.2-0.2
		c1-0.2,0.7-0.9,0.5-1.5c-0.1-0.6-0.2-1.2-0.2-1.8c-0.1-1.5-0.3-1.7-1.8-1.6c-0.1-0.1-0.1-0.2-0.2-0.3c0.2,0,0.4,0,0.6,0
		c1-0.1,1.1-0.3,1-1.3c-0.1-0.8-0.3-1.5-0.4-2.3c-0.1-0.5,0-1.2-0.2-1.3c-0.4-0.2-1,0-1.6,0c0-0.1,0-0.1,0-0.2
		c0.2-0.1,0.3-0.1,0.5-0.2c1.2-0.1,1.3-0.3,1-1.3c-0.1-0.8-0.2-1.6-0.4-2.4c-0.1-0.5-0.4-0.9-0.6-1.4c-0.1-0.1-0.1-0.2-0.2-0.3
		c0.2-0.1,0.6-0.3,0.6-0.4c-0.2-1.5-0.5-3-0.7-4.5c0.2-0.1,0.3-0.1,0.5-0.2c0.2,1.5,0.3,3,0.5,4.4c0,0.2,0.4,0.5,0.6,0.5
		c1.2-0.1,2.4-0.3,3.6-0.4c0.6-0.1,0.9-0.4,0.8-1c-0.2-1.1-0.3-2.3-0.5-3.4c-0.1-0.6-0.3-0.7-0.8-0.6c-1.4,0.2-2.8,0.4-4.2,0.6
		c0-0.1,0-0.1,0-0.2c0.3-0.1,0.6-0.1,0.9-0.2c1.1-0.2,2.2-0.3,3.3-0.5c0.2,0,0.6-0.5,0.6-0.7c-0.2-1.5-0.4-2.9-0.6-4.4
		c0.3,0,0.6-0.1,0.8-0.1c-0.1,0.3-0.4,0.7-0.4,1c0.1,1.1,0.3,2.1,0.4,3.2c0.1,0.7,0.4,0.9,1,0.8c1.2-0.2,2.3-0.3,3.5-0.5
		c0.2,0,0.6-0.3,0.6-0.4c-0.2-1.5-0.4-3-0.7-4.5l-0.1-0.1c0.3,0,0.7-0.1,1-0.1c-0.1,0.3-0.4,0.7-0.4,1c0.1,1.1,0.3,2.2,0.4,3.2
		c0.1,0.7,0.4,0.9,1.1,0.8c0.9-0.1,1.8-0.2,2.7-0.3c0,0.1,0,0.1,0,0.2c-0.9,0.1-1.8,0.2-2.8,0.4c-0.5,0.1-0.8,0.3-0.7,0.9
		c0.2,1.1,0.3,2.2,0.4,3.3c0.1,0.7,0.5,1,1.1,0.9c0.9-0.1,1.8-0.2,2.8-0.4c1.2-0.2,1.2-0.2,1.2-1.4c0.1,0,0.1,0,0.2,0
		c0,0.6,0.1,1.2,0.9,1.1c1.4-0.2,2.8-0.4,4.2-0.6c0-0.5,0-0.9,0-1.3c0.1,0,0.1,0,0.2,0c0.2,0.4,0.3,1,0.5,1.1c0.5,0,1-0.3,1.5-0.4
		c0,0.2,0.1,0.3,0.1,0.5c-0.3,0.1-0.7,0.2-1,0.2c-0.7,0-1,0.2-0.9,1c0.2,1,0.2,2,0.4,3c0.1,0.4,0.3,1,0.5,1c0.5,0,1-0.3,1.5-0.4
		c0,0.2,0.1,0.4,0.1,0.5c-0.4,0.1-0.7,0.1-1.1,0.2c-0.6,0-0.9,0.3-0.8,0.9c0.1,0.8,0.2,1.6,0.3,2.4c0.3,1.9,0.3,1.9,2.2,1.6
		c0,0.1,0,0.2,0,0.3c-0.3,0-0.6,0-0.8,0c-1,0.1-1.1,0.2-1,1.2c0.1,0.7,0.2,1.4,0.3,2.2C71.1,40,70.6,40.1,73,39.7z M51,32.1
		c-0.6,0.1-1.2,0.1-1.7,0.3c-0.2,0.1-0.6,0.4-0.5,0.6c0.1,1.3,0.3,2.5,0.5,3.8c0.1,0.5,0.3,0.7,0.8,0.6c0.5-0.1,1.1-0.2,1.7-0.3
		c0.1,0.1,0.1,0.2,0.2,0.3c-0.6,0-1.2,0.1-1.8,0.1c-0.5,0-0.6,0.3-0.6,0.8c0.2,1.1,0.3,2.2,0.4,3.3c0.1,0.8,0.4,1.1,1.2,0.8
		c0.4-0.1,0.9-0.2,1.3-0.2c0.1,0.1,0.1,0.2,0.2,0.3c-0.6,0.1-1.3,0.1-1.9,0.2c-0.2,0-0.5,0.4-0.5,0.7c0.1,1.2,0.3,2.4,0.4,3.6
		c0.1,0.6,0.4,0.8,1,0.7c1.2-0.2,2.3-0.3,3.5-0.5c0.3,0,0.5-0.3,0.7-0.5c0.1,0,0.1,0,0.2,0c0.2,0.1,0.4,0.3,0.6,0.3
		c1.3-0.1,2.5-0.3,3.8-0.5c0.2,0,0.5-0.5,0.5-0.7c-0.1-1.1-0.3-2.3-0.4-3.4c-0.1-0.6-0.4-0.9-1.1-0.8c-1.2,0.2-2.3,0.3-3.5,0.5
		c-0.2,0-0.4,0.1-0.4,0.2c-0.3,0.4,0.2,2.1,0.7,2.4c-0.3,0.1-0.6,0.1-0.9,0.2c-0.2-1.1-0.3-2.1-0.4-3.1c-0.2-1.6-0.4-3.3-0.6-4.9
		c-0.3-2.2-0.6-4.4-0.9-6.7c0-0.1,0.3-0.3,0.5-0.5c0,0.3-0.1,0.7,0.1,1c0.1,0.2,0.4,0.5,0.7,0.5c1.3-0.1,2.6-0.3,3.8-0.5
		c0.2,0,0.5-0.4,0.5-0.6c-0.1-1.3-0.3-2.6-0.5-3.8c-0.1-0.4-0.2-0.6-0.7-0.5c-1,0.2-2.1,0.3-3.1,0.4c-1.3,0.2-1.4,0.2-1.1,1.5
		c-0.1,0-0.2,0-0.3,0c0-0.3,0.1-0.5,0-0.7s-0.4-0.5-0.6-0.5c-1.3,0.1-2.5,0.3-3.8,0.5c-0.5,0.1-0.8,0.4-0.7,0.9
		c0.2,1.2,0.3,2.3,0.5,3.5c0.1,0.6,0.3,0.7,0.8,0.6c0.5-0.1,1.1-0.2,1.7-0.2C51,31.9,51,32,51,32.1z M56.4,51.9
		c-0.2-1.2-0.3-2.3-0.4-3.4c-0.1-0.6-0.3-0.9-1-0.8c-1.2,0.2-2.4,0.3-3.6,0.5c-0.2,0-0.5,0.4-0.5,0.6c0.1,1.2,0.3,2.5,0.4,3.7
		c0.1,0.6,0.4,0.9,1.1,0.8c1.1-0.2,2.1-0.4,3.2-0.4C56.2,52.7,56.6,52.5,56.4,51.9z M60.3,40.7c-0.2-1.4-0.3-2.6-0.5-3.7
		c0-0.2-0.4-0.6-0.6-0.6c-1.3,0.1-2.6,0.3-3.9,0.5c-0.2,0-0.5,0.4-0.5,0.5c0.1,1.3,0.3,2.6,0.5,3.9c0.1,0.4,0.3,0.6,0.8,0.5
		c1.1-0.2,2.3-0.3,3.4-0.4C60.1,41.4,60.4,41.2,60.3,40.7z M65.2,30.1c1.3-0.2,2.5-0.3,3.8-0.5c0.2,0,0.5-0.4,0.5-0.5
		c-0.1-1.3-0.3-2.6-0.5-3.9c0-0.2-0.4-0.6-0.6-0.5c-1.3,0.1-2.5,0.3-3.8,0.5C64.2,25.3,64,25.5,64,26c0.2,1.2,0.3,2.4,0.5,3.6
		C64.4,29.9,64.6,30.2,65.2,30.1z M65.9,41.6c0.2,1.3,0.3,2.5,0.6,3.8c0,0.2,0.4,0.5,0.6,0.5c1.3-0.1,2.5-0.3,3.8-0.5
		c0.2,0,0.6-0.5,0.6-0.7c-0.1-1.2-0.3-2.5-0.4-3.7c-0.1-0.4-0.2-0.7-0.8-0.6c-1.2,0.2-2.4,0.3-3.6,0.5C66.1,40.8,65.8,41,65.9,41.6z
		 M66.6,40.5c1.2-0.1,2.3-0.3,3.4-0.4c0.4-0.1,0.9-0.1,0.8-0.7c-0.2-1.3-0.3-2.5-0.5-3.7c0-0.2-0.5-0.6-0.7-0.6
		c-1.2,0.1-2.4,0.3-3.7,0.4c-0.6,0.1-0.7,0.4-0.7,0.9c0.2,1.2,0.3,2.3,0.5,3.5C65.8,40.5,66.1,40.7,66.6,40.5z M64.3,35.7
		c-1.4,0.2-2.5,0.3-3.7,0.5c-0.2,0-0.6,0.4-0.6,0.5c0.1,1.4,0.3,2.7,0.6,4.1c0,0.2,0.4,0.4,0.6,0.4c1.2-0.1,2.5-0.3,3.7-0.4
		c0.5-0.1,0.8-0.3,0.7-0.9c-0.2-1.1-0.3-2.2-0.4-3.3C65,35.9,64.8,35.5,64.3,35.7z M60.6,42.1c0.2,1.4,0.3,2.6,0.5,3.8
		c0,0.2,0.4,0.6,0.6,0.6c1.3-0.1,2.6-0.3,3.9-0.5c0.2,0,0.5-0.5,0.5-0.7c-0.1-1.2-0.3-2.5-0.5-3.7c-0.1-0.5-0.3-0.7-0.8-0.6
		c-1.2,0.2-2.4,0.3-3.6,0.5C60.8,41.5,60.5,41.7,60.6,42.1z M64.2,29.6c-0.2-1.4-0.4-2.7-0.6-3.9c0-0.2-0.4-0.5-0.6-0.5
		c-1.3,0.1-2.6,0.3-3.8,0.5c-0.2,0-0.6,0.5-0.6,0.7c0.1,1.2,0.3,2.4,0.4,3.7c0.1,0.5,0.3,0.7,0.9,0.6c1.2-0.2,2.4-0.4,3.6-0.5
		C64.1,30.2,64.2,29.9,64.2,29.6z M71,45.6c-1.3,0.2-2.5,0.3-3.6,0.5c-0.6,0.1-0.9,0.4-0.8,1c0.2,1.2,0.3,2.3,0.5,3.5
		c0,0.2,0.4,0.6,0.6,0.5c1.2-0.1,2.5-0.3,3.7-0.5c0.5-0.1,0.8-0.4,0.7-0.9c-0.2-1.1-0.3-2.3-0.4-3.4C71.6,45.7,71.4,45.5,71,45.6z
		 M55.4,36.7c1.2-0.2,2.3-0.3,3.4-0.4c0.6-0.1,0.8-0.3,0.8-0.9c-0.2-1.2-0.3-2.4-0.5-3.7c0-0.2-0.4-0.5-0.5-0.4
		c-1.3,0.1-2.6,0.3-3.9,0.5c-0.6,0-0.7,0.2-0.7,0.7c0.2,1.1,0.3,2.2,0.4,3.3C54.5,36.5,54.7,36.9,55.4,36.7z M60.5,36
		c1.4-0.2,2.6-0.3,3.7-0.5c0.2,0,0.6-0.4,0.6-0.6c-0.1-1.3-0.3-2.6-0.5-3.9c0-0.2-0.4-0.5-0.5-0.5c-1.3,0.1-2.6,0.3-3.9,0.5
		c-0.5,0.1-0.6,0.3-0.5,0.8c0.2,1.1,0.3,2.3,0.4,3.4C59.8,35.8,60,36.2,60.5,36z M64.5,31c0.2,1.4,0.3,2.6,0.5,3.7
		c0,0.2,0.4,0.6,0.5,0.6c1.4-0.1,2.7-0.3,4.1-0.5c0.2,0,0.4-0.3,0.4-0.5c-0.1-1.3-0.3-2.6-0.5-3.9c-0.1-0.4-0.3-0.6-0.8-0.5
		c-1.1,0.2-2.3,0.3-3.4,0.5C64.8,30.3,64.4,30.5,64.5,31z M53.9,26.2c1.2-0.2,2.3-0.3,3.5-0.5c0.6-0.1,0.8-0.4,0.7-0.9
		c-0.2-1.2-0.3-2.5-0.5-3.7c0-0.2-0.4-0.5-0.5-0.5c-1.3,0.1-2.6,0.3-3.8,0.5c-0.5,0.1-0.7,0.3-0.6,0.8c0.2,1.2,0.3,2.3,0.5,3.5
		C53.2,26,53.4,26.3,53.9,26.2z M61.6,51c-0.1-1.2-0.3-2.2-0.4-3.2c-0.1-0.7-0.4-1-1.1-0.8c-1.1,0.2-2.2,0.3-3.3,0.5
		c-0.4,0-0.7,0.2-0.6,0.7c0.2,1.2,0.3,2.4,0.5,3.7c0.1,0.6,0.4,0.8,1,0.7c1-0.2,2-0.3,3.1-0.4C61.4,52,61.9,51.8,61.6,51z
		 M61.4,47.6c0.2,1.2,0.3,2.5,0.6,3.7c0,0.2,0.5,0.5,0.7,0.5c1.2-0.1,2.4-0.3,3.6-0.4c0.5-0.1,0.7-0.3,0.7-0.8
		c-0.2-1.1-0.3-2.3-0.4-3.4c-0.1-0.7-0.5-0.8-1.1-0.8c-1.1,0.1-2.2,0.3-3.3,0.5C61.6,46.8,61.3,47.1,61.4,47.6z"/>
	<path class="st6" d="M13.2,58.4c2.2,0,4.4,0,6.7,0c0.5,0,1.1,0,1.6-0.2c1.4-0.5,2.8-0.7,4.2-0.6c0.7,0,1.4,0,2.1,0
		c3.2-0.1,6.4,0.1,9.6,0.7c1.7,0.3,3.4,0.3,5.2-0.2c1-0.3,2.1-0.4,3.2-0.4c2.7-0.1,5.5-0.2,8.2,0.7c0.3,0.1,0.7,0.1,1.1-0.1
		c2.8-0.9,5.6-0.8,8.5,0c1.1,0.3,2.5,0,3.6-0.3c1.8-0.5,3.6-0.6,5.4-0.1c2.7,0.7,5.5,0.6,8.3,0.6c0,0.7,0,1.4,0,2
		c-1.4,0-2.8,0-4.2,0c-0.4,0-0.8-0.1-1.1-0.3c-2.5-1.7-5.2-2.4-8.2-1.3c-0.5,0.2-0.9,0.4-1.4,0.6c-0.9,0.4-1.8,0.6-2.7,0
		c-0.3-0.2-0.6-0.2-0.9-0.3c-0.5-0.2-1.1-0.5-1.6-0.7c-1.8-0.5-3.4,0.1-5,0.8c-0.8,0.4-1.6,0.4-2.5,0.1c-1-0.4-2-0.6-3-0.9
		c-0.2,0-0.5,0-0.7,0c-1.2-0.3-2.4-0.4-3.5,0c-0.2,0-0.5,0-0.7,0c-1.6-0.2-2.8,0.7-4.1,1.4c-0.9,0.5-1.6,0.5-2.4,0.2
		c-1.7-0.6-3.5-1.1-5.2-1.6c-0.3-0.1-0.6,0-1,0c-0.2,0-0.5,0-0.7,0c-0.5-0.1-1.1-0.3-1.6-0.3c-1.6,0-3.3,0.1-4.9,0.1
		s-3.1,0.5-4.5,1.3c-0.8,0.5-1.7,0.8-2.7,0.8c-1.6-0.1-3.3,0-4.9,0C13.2,59.7,13.2,59,13.2,58.4z"/>
	<path class="st7" d="M13.3,84.1c22.5,0,45,0,67.5,0c0,0.3,0,0.7,0,1c-22.3,0-44.6,0-66.9,0c-0.2,0-0.4,0-0.7,0
		C13.2,84.8,13.2,84.4,13.3,84.1z"/>
	<path class="st4" d="M13.2,55.6c22.5,0,45,0,67.6,0c0,0.3,0,0.6,0,0.8c-22.5,0-45,0-67.6,0C13.2,56.1,13.2,55.8,13.2,55.6z"/>
	<path class="st8" d="M22.7,70.9c-0.6,0-0.9,0.2-0.8,0.8c0,1.2,0,2.5,0,3.7c0,0.3,0.1,0.6-0.1,0.7C21,77,21.2,78,21.2,78.9
		c0,1.5-0.3,1.8-1.8,1.8c-2,0-4,0-6.1,0c0-1.9,0-3.8,0-5.7c1.7,0,3.5,0,5.2,0c0.5,0,1.2-0.3,1.5-0.6c0.7-0.9,1.4-1.8,1.2-3.1
		c0-0.3,0-0.7,0.2-0.9c0.5-0.5,0.5-1,0.5-1.6c0-1,0-1.9,0-2.9c0-0.3,0-0.6,0-0.8c0.3,0,0.6,0,0.8,0c0,1.1,0,2.3,0,3.4
		C22.7,69.2,22.7,70.1,22.7,70.9z"/>
	<path class="st9" d="M21.8,65.9c0,1,0,1.9,0,2.9c0,0.6,0.1,1.2-0.5,1.6c-0.2,0.2-0.2,0.6-0.2,0.9c0.2,1.3-0.5,2.2-1.2,3.1
		c-0.3,0.4-1,0.6-1.5,0.6c-1.7,0.1-3.5,0-5.2,0c0-1.6,0-3.2,0-4.7c1.5,0,3-0.1,4.5,0c2.2,0.1,3.1-0.9,3.4-3.3
		C21.2,66.5,21.3,66,21.8,65.9z"/>
	<path class="st10" d="M13.2,66.2c0-1.1,0-2.3,0-3.4c1.7,0,3.4,0,5.1,0c0.5,0,1.2-0.2,1.6-0.6c1.1-1,2.1-2.1,3.1-3.1
		c0.9-0.2,1.8-0.5,2.7-0.7c1.9,0,3.8,0,5.7,0c0.5,0.2,1,0.5,1.5,0.7c-0.2,0-0.5,0-0.7,0c-2.3,0-4.7,0-7,0c-0.5,0-0.9,0-0.9,0.7
		c-0.3,0-0.7,0.1-1,0.1c-0.1,0-0.1,0-0.2,0c-0.1,0.2-0.1,0.3-0.2,0.5c-0.4,0.6-0.8,1.1-1.2,1.7c-0.2,0.3-0.5,0.5-0.6,0.8
		c-0.2,0.5-0.3,1.1-0.5,1.6c-0.5,1.3-1,1.6-2.3,1.6C16.7,66.2,15,66.2,13.2,66.2z"/>
	<path class="st11" d="M13.2,66.2c1.7,0,3.4,0,5.1,0c1.4,0,1.9-0.4,2.3-1.6c0.2-0.5,0.3-1.1,0.5-1.6c0.1-0.3,0.4-0.6,0.6-0.8
		c0,1,0,1.9,0,2.9c0,0.3,0,0.6,0,0.8C21.1,66,21.1,66.5,21,67c-0.3,2.5-1.2,3.4-3.4,3.3c-1.5-0.1-3,0-4.5,0
		C13.3,68.9,13.3,67.6,13.2,66.2z"/>
	<path class="st12" d="M47.4,21.9C47.2,22,47,22,46.9,22.1c-1.3,0.1-2.6,0.3-3.9,0.4c-0.6,0.1-0.9,0.4-0.8,1
		c0.2,1.2,0.3,2.3,0.5,3.5c0.1,0.4,0.2,0.6,0.7,0.5c1.2-0.2,2.5-0.4,3.7-0.6c0.1,0.1,0.1,0.2,0.2,0.3c-1.2,0.2-2.4,0.3-3.7,0.4
		c-0.6,0.1-0.8,0.4-0.7,1c0.2,1.2,0.3,2.3,0.5,3.5c0.1,0.5,0.2,0.6,0.7,0.6c0.9-0.1,1.8-0.2,2.7-0.3c0,0.1,0,0.1,0,0.2
		c-1,0.2-1.8,0.4-2.6,0.4c-0.6,0.1-0.7,0.4-0.6,0.9c0.2,1.1,0.3,2.2,0.4,3.3c0.1,0.6,0.3,0.9,0.9,0.7c0.8-0.2,1.6-0.3,2.5-0.4
		c0.1,0.1,0.1,0.2,0.2,0.3c-0.9,0.1-1.8,0.2-2.7,0.3c-0.5,0-0.6,0.3-0.6,0.7c0.2,1.2,0.3,2.4,0.5,3.6c0.1,0.7,0.5,0.8,1.1,0.6
		c0.4-0.1,0.7-0.2,1.1-0.2c0,0.1,0,0.2,0,0.3c-0.4,0.1-0.8,0.1-1.2,0.2c-0.5,0.1-0.8,0.4-0.7,1c0.1,1.1,0.4,2.1,0.5,3.2
		c0.1,0.8,0.4,1,1.1,0.8c0.1,0.1,0.1,0.2,0.2,0.3c-0.8,0.1-1.1,0.6-1,1.4c0.1,1,0.2,2.1,0.3,3.1c-0.1,0-0.1,0-0.2,0
		c-0.2-1.3-0.3-2.5-0.5-3.8C45.3,49.1,45,49,44.6,49c-1.2,0.2-2.4,0.3-3.6,0.5c-0.5,0.1-0.8,0.3-0.7,0.8c0.2,1,0.3,2,0.4,3
		c-0.1,0-0.2,0-0.3,0c-0.1-0.8-0.1-1.7-0.3-2.5c-0.2-1.2-0.2-1.1-1.3-1c-0.3,0-0.6,0-0.9,0c0-0.1,0-0.1,0-0.2c0.3,0,0.7-0.1,1-0.1
		c0.9,0,1.1-0.4,0.9-1.3c-0.2-0.8-0.2-1.6-0.3-2.3c-0.3-1.4,0.1-1.8-1.7-1.4c-0.2,0-0.3,0-0.5,0c0.3-0.1,0.7-0.3,1-0.3
		c0.8,0,0.9-0.5,0.8-1.1c-0.1-0.7-0.2-1.5-0.3-2.2c-0.2-1.9-0.4-2-2.2-1.4h-0.1c0-0.2,0-0.3,0-0.5c0.4,0,0.8,0,1.2,0
		c0.7,0,0.9-0.4,0.8-1c-0.1-0.6-0.1-1.2-0.2-1.7c-0.2-0.9-0.4-1.7-0.5-2.6c-0.2-1.4-0.2-2.9-0.4-4.3c0-0.2-0.5-0.6-0.7-0.6
		c-0.5,0-0.9,0.3-1.4,0.5c0-0.2,0-0.3,0-0.5c0.4-0.1,0.9-0.1,1.3-0.2c0.3-0.1,0.6-0.5,0.6-0.7c-0.1-1.2-0.3-2.4-0.4-3.7
		c0-0.2-0.3-0.6-0.4-0.6c-0.6,0-1.3-0.1-1.7,0.6c0-0.2,0-0.5,0-0.7c0.3-0.1,0.7-0.1,1-0.2c0.7-0.1,1-0.2,0.9-1
		c-0.2-1.4-0.4-2.8-0.5-4.2c0.1,0,0.1,0,0.2,0c0.1,0.3,0.1,0.5,0.2,0.8c0.2,1.2,0.3,2.4,0.5,3.6c0,0.2,0.4,0.5,0.5,0.5
		c1.3-0.1,2.6-0.3,3.8-0.5c0.4-0.1,0.7-0.3,0.6-0.8c-0.2-1.4-0.4-2.9-0.6-4.3c0.1,0,0.2,0,0.3,0c0.2,1.5,0.3,3,0.5,4.4
		c0,0.4,0.3,0.6,0.7,0.5c1.1-0.2,2.2-0.3,3.3-0.4c0.7-0.1,1.2-0.3,1.1-1.2c0.1,0.3,0.2,0.7,0.3,1C47.4,21.8,47.4,21.9,47.4,21.9
		L47.4,21.9z M43.8,37.8c-0.2-1.4-0.4-2.5-0.5-3.7c-0.1-0.7-0.4-0.9-1-0.8c-1.1,0.2-2.2,0.3-3.3,0.5c-0.7,0.1-0.8,0.4-0.7,1
		c0.2,1.1,0.3,2.3,0.5,3.4c0.1,0.5,0.3,0.7,0.8,0.7c1.2-0.2,2.4-0.3,3.6-0.5C43.4,38.2,43.7,37.9,43.8,37.8z M45.2,48.3
		c-0.2-1.5-0.4-2.7-0.5-3.9c-0.1-0.5-0.4-0.6-0.8-0.6c-1.2,0.2-2.3,0.3-3.5,0.5c-0.6,0.1-0.8,0.4-0.7,0.9c0.2,1.1,0.3,2.2,0.4,3.3
		c0.1,0.7,0.4,0.9,1,0.8c1.1-0.2,2.3-0.3,3.4-0.5C44.8,48.7,45,48.4,45.2,48.3z M42,28c-1.4,0.2-2.5,0.4-3.7,0.5
		c-0.7,0.1-0.9,0.4-0.8,1c0.2,1.1,0.3,2.3,0.5,3.4c0.1,0.5,0.3,0.7,0.8,0.6c1.2-0.2,2.4-0.3,3.6-0.5c0.6-0.1,0.8-0.4,0.7-0.9
		c-0.2-1.1-0.3-2.3-0.5-3.4C42.5,28.4,42.2,28.1,42,28z M43.5,38.5c-1.5,0.2-2.8,0.3-4.1,0.6c-0.2,0-0.5,0.5-0.4,0.8
		c0.1,1.1,0.3,2.3,0.4,3.4c0.1,0.7,0.4,0.9,1,0.8c1.1-0.2,2.2-0.3,3.3-0.4c0.6-0.1,0.8-0.3,0.7-0.9c-0.2-1.2-0.3-2.4-0.5-3.6
		C43.9,38.8,43.6,38.6,43.5,38.5z M38.3,28.2c1.2-0.1,2.2-0.3,3.3-0.4c0.6-0.1,0.9-0.3,0.8-1c-0.2-1.1-0.3-2.2-0.4-3.3
		c-0.1-0.6-0.3-0.8-0.9-0.7c-1.1,0.2-2.2,0.3-3.3,0.4c-0.7,0.1-0.9,0.5-0.8,1.2c0.2,1,0.3,2.1,0.4,3.1
		C37.4,28.2,37.7,28.5,38.3,28.2z"/>
	<path class="st13" d="M47,20.7c0.1,0.8-0.3,1.1-1.1,1.2c-1.1,0.1-2.2,0.3-3.3,0.4c-0.4,0.1-0.6,0-0.7-0.5c-0.2-1.5-0.3-3-0.5-4.4
		c1.7-0.2,3.4-0.4,5.1-0.7C46.7,18,46.9,19.4,47,20.7z"/>
	<path class="st13" d="M47,20.7c-0.2-1.3-0.3-2.7-0.5-4c1.7-0.2,3.4-0.5,5.1-0.7c0.2,1.5,0.5,2.9,0.6,4.4c0,0.2-0.4,0.6-0.6,0.7
		c-1.1,0.2-2.2,0.3-3.3,0.5c-0.3,0-0.6,0.1-0.9,0.2C47.2,21.4,47.1,21.1,47,20.7z"/>
	<path class="st13" d="M56.6,15.3l0.1,0.1c0.2,1.5,0.5,3,0.7,4.5c0,0.1-0.4,0.4-0.6,0.4c-1.2,0.2-2.3,0.3-3.5,0.5
		c-0.6,0.1-0.9-0.1-1-0.8c0-1-0.2-2-0.3-3.1c0-0.3,0.3-0.7,0.4-1C53.8,15.7,55.2,15.5,56.6,15.3z"/>
	<path class="st13" d="M41.1,17.4c0.2,1.4,0.4,2.9,0.6,4.3c0.1,0.5-0.2,0.7-0.6,0.8c-1.3,0.2-2.6,0.4-3.8,0.5
		c-0.2,0-0.5-0.3-0.5-0.5c-0.2-1.2-0.3-2.4-0.5-3.6c0-0.3-0.1-0.5-0.2-0.8C37.7,17.8,39.4,17.6,41.1,17.4z"/>
	<path class="st13" d="M61.4,19.9c-0.9,0.1-1.8,0.2-2.7,0.3c-0.6,0.1-1-0.1-1.1-0.8c-0.1-1.1-0.3-2.2-0.4-3.2c0-0.3,0.3-0.6,0.4-1
		c0.8-0.1,1.6-0.2,2.4-0.3c0.4-0.1,0.7,0,0.7,0.5c0.1,0.3,0.1,0.7,0.2,1c0.1,0.4,0.1,0.8,0.2,1.2c0.1,0.4,0.1,0.9,0.2,1.3
		C61.3,19.2,61.3,19.5,61.4,19.9z"/>
	<path class="st14" d="M75.1,47.3c0.4-0.6,0.8-1.1,1.1-1.7c0.8,0.3,1.6,0.8,2.5,1c1.8,0.4,3.6,0.7,5.3,1c-0.5,0.7-0.9,1.3-1.4,2
		c-2.2-0.3-4.4-0.8-6.5-1.7C75.8,47.8,75.5,47.5,75.1,47.3z"/>
	<path class="st15" d="M23,59.1c-1,1-2,2.1-3.1,3.1c-0.4,0.4-1,0.5-1.6,0.6c-1.7,0.1-3.4,0-5.1,0c0-0.6,0-1.2,0-1.9
		c1.6,0,3.3-0.1,4.9,0c1.2,0.1,2.1-0.4,3-1.1c0.6-0.4,1.3-0.7,1.9-1C23,59,23,59,23,59.1z"/>
	<path class="st16" d="M75.1,47.3c0.4,0.2,0.7,0.5,1.1,0.7c2.1,0.9,4.2,1.4,6.5,1.7c-0.3,0.5-0.7,1-1,1.5c-2-0.6-4-1.1-6-1.7
		c-0.4-0.1-0.8-0.5-1.2-0.8v-0.1C74.6,48.1,74.9,47.7,75.1,47.3z"/>
	<path class="st17" d="M13.2,85.1c0.2,0,0.4,0,0.7,0c22.3,0,44.6,0,66.9,0c0.1,0,0.1,0,0.2,0c-0.2,0.1-0.3,0.2-0.5,0.2
		c-7.3,0-14.6-0.1-21.9-0.1c-14.7,0-29.4,0-44.1,0C14.1,85.3,13.7,85.2,13.2,85.1z"/>
	<path class="st18" d="M80.1,54.2c-8.9,0-17.8,0-26.7,0c-13.4,0-26.8,0-40.2,0c0.4-0.1,0.7-0.2,1.1-0.2c21.6,0,43.2,0,64.8,0
		C79.4,54,79.8,54.1,80.1,54.2z"/>
	<path class="st19" d="M72.8,51.1c0.1-0.2,0.1-0.4,0.2-0.7c0.2-0.2,0.3-0.3,0.5-0.5c2.3,1.1,4.7,1.9,7.3,2.4c-0.2,0.3-0.4,0.7-0.6,1
		c-0.7,0-1.5,0-2.2-0.1C76.2,52.6,74.5,51.9,72.8,51.1z"/>
	<path class="st13" d="M37.4,44.6c0.2,0,0.3,0,0.5,0c1.8-0.4,1.4,0,1.7,1.4c0.1,0.8,0.1,1.6,0.3,2.3c0.2,0.8-0.1,1.2-0.9,1.3
		c-0.3,0-0.7,0.1-1,0.1c-0.2-1.5-0.4-3-0.6-4.5C37.4,45,37.3,44.9,37.4,44.6C37.3,44.6,37.3,44.6,37.4,44.6z"/>
	<path class="st13" d="M35.9,18.1c0.2,1.4,0.3,2.8,0.5,4.2c0.1,0.8-0.2,1-0.9,1c-0.3,0-0.7,0.1-1,0.2c-0.1-0.6-0.2-1.2-0.4-1.9
		c-0.1-1-0.2-2.1-0.4-3.2C34.5,18.3,35.2,18.2,35.9,18.1z"/>
	<path class="st20" d="M80.8,52.3c-2.5-0.5-4.9-1.3-7.3-2.4c0.3-0.5,0.6-0.9,0.9-1.4c0.4,0.3,0.8,0.7,1.2,0.8c2,0.6,4,1.2,6,1.7
		C81.3,51.5,81.1,51.9,80.8,52.3z"/>
	<path class="st13" d="M73.7,44.9c-0.5,0.1-1,0.2-1.5,0.2c-0.2,0-0.5-0.3-0.5-0.5c-0.2-1.2-0.3-2.4-0.5-3.6c-0.1-0.6,0.1-0.9,0.7-1
		c0.4,0,0.7,0,1.1-0.1C73.2,41.6,73.5,43.3,73.7,44.9z"/>
	<path class="st13" d="M72.3,34.4c-1.9,0.3-1.9,0.3-2.2-1.6c-0.1-0.8-0.2-1.6-0.3-2.4c-0.1-0.6,0.2-0.9,0.8-0.9
		c0.4,0,0.7-0.1,1.1-0.2C71.9,31.1,72.1,32.7,72.3,34.4z"/>
	<path class="st13" d="M71.5,28.8c-0.5,0.2-1,0.4-1.5,0.4c-0.2,0-0.4-0.6-0.5-1c-0.2-1-0.2-2-0.4-3c-0.1-0.7,0.2-1,0.9-1
		c0.3,0,0.7-0.1,1-0.2C71.2,25.7,71.3,27.3,71.5,28.8z"/>
	<path class="st13" d="M73,39.7c-2.4,0.4-1.9,0.3-2.2-1.5c-0.1-0.7-0.2-1.4-0.3-2.2c-0.1-1,0-1.1,1-1.2c0.3,0,0.6,0,0.8,0
		C72.6,36.4,72.8,38,73,39.7z"/>
	<path class="st13" d="M74.4,48.6c-0.3,0.5-0.6,0.9-0.9,1.4c-0.2,0.2-0.3,0.3-0.5,0.5c-0.2-0.2-0.6-0.4-0.6-0.7
		c-0.2-1-0.3-2-0.4-3.1c-0.2-1.2-0.1-1.3,1.1-1.5c0.2,0,0.4,0,0.6,0c0.1,0.8,0.2,1.5,0.4,2.3c0.1,0.3,0.2,0.6,0.3,0.9
		C74.4,48.5,74.4,48.5,74.4,48.6z"/>
	<path class="st15" d="M23,58.9c-0.6,0.3-1.3,0.6-1.9,1c-0.9,0.7-1.8,1.1-3,1.1c-1.6-0.1-3.3,0-4.9,0c0-0.2,0-0.5,0-0.7
		c1.6,0,3.3-0.1,4.9,0c1,0,1.9-0.3,2.7-0.8c1.4-0.8,2.8-1.3,4.5-1.3c1.6,0,3.3-0.1,4.9-0.1c0.5,0,1.1,0.2,1.6,0.3
		c-0.1,0-0.2,0-0.3,0c-1.9,0-3.8,0-5.7,0C24.8,58.6,23.9,58.8,23,58.9z"/>
	<path class="st13" d="M37.9,49.8c0.3,0,0.6,0,0.9,0c1.1-0.1,1.2-0.1,1.3,1c0.1,0.8,0.2,1.7,0.3,2.5c-0.7,0-1.3,0-2,0
		C38.3,52.1,38.1,51,37.9,49.8z"/>
	<path class="st21" d="M60.7,15.3c0-0.5-0.3-0.6-0.7-0.5c0.6-0.5,1.1,0,1.5,0.3c1.1,0.8,2.2,1.7,3.2,2.5c1.5,1.2,2.9,2.3,4.4,3.5
		c0.5,0.4,1,0.8,1.6,1.2c0.1,0.1,0.1,0.3,0.1,0.4c-0.3,0-0.5,0-0.8-0.1c-0.2-0.3-0.4-0.7-0.7-1c-1.6-1.3-3.2-2.5-4.8-3.7
		C63.3,17.1,62,16.2,60.7,15.3z"/>
	<path class="st22" d="M84,47.6c-1.8-0.3-3.6-0.6-5.3-1c-0.9-0.2-1.6-0.7-2.5-1c0.2-0.3,0.3-0.6,0.5-0.8c0.3,0.3,0.6,0.6,0.9,0.8
		c2.2,0.9,4.6,1.3,7,1.4C84.5,47.2,84.3,47.4,84,47.6z"/>
	<path class="st23" d="M61.9,53.3c0.1,0,0.1,0,0.2,0c1.7,0,3.5,0,5.2,0c0.1,0,0.1,0,0.2,0c1.3,0,2.6,0,3.9,0c1.2,0,2.4,0,3.6,0v0.1
		c-8.5,0-17,0-25.5,0v-0.1c0.6,0,1.2,0,1.9-0.1c0.6,0,1.1,0,1.7,0c1.2,0,2.4,0,3.5,0c0.1,0,0.2,0,0.3,0
		C58.5,53.3,60.2,53.3,61.9,53.3z"/>
	<path class="st24" d="M81,85.1c-0.1,0-0.1,0-0.2,0c0-0.3,0-0.7,0-1c0-0.4,0-0.8,0-1.2c0-0.7,0-1.5,0-2.2c0-0.8,0-1.6,0-2.4
		c0-1.1,0-2.3,0-3.4c0-1.5,0-3,0-4.6c0-0.8,0-1.7,0-2.5s0-1.6,0-2.4c0-0.2,0-0.5,0-0.7h0.1C81,71.6,81,78.4,81,85.1z"/>
	<path class="st25" d="M34.2,21.7c-0.4,0.1-0.8,0.2-1.2,0.2c-6.3,0-12.6,0-18.9,0c0.4-0.1,0.8-0.2,1.2-0.2c5.9,0,11.7,0,17.6,0
		C33.3,21.7,33.7,21.7,34.2,21.7z"/>
	<path class="st13" d="M70,22.7c0.3,0,0.5,0,0.8,0.1c0,0.3,0,0.5,0,0.8c-0.5,0.2-1,0.4-1.5,0.4c-0.2,0-0.4-0.7-0.5-1.1
		c0.3-0.1,0.7-0.1,1-0.2C69.9,22.7,69.9,22.7,70,22.7z"/>
	<path class="st26" d="M49.4,53.4L49.4,53.4c-3.4,0.1-6.8,0.1-10.3,0.1c-0.2,0-0.5-0.1-0.7-0.2c0.7,0,1.3,0,2,0c0.1,0,0.2,0,0.3,0
		c1.7,0,3.4,0,5.1,0c0.1,0,0.1,0,0.2,0C47.1,53.3,48.3,53.4,49.4,53.4z"/>
	<path class="st27" d="M81,64.8L81,64.8c-0.1-0.7-0.1-1.5-0.1-2.2s0-1.5,0-2.2s0-1.4,0-2c0-0.7,0-1.4,0-2c0-0.3,0-0.6,0-0.8
		c0-0.4,0-0.9,0-1.3c0.1,0.2,0.1,0.3,0.2,0.5C81,58.1,81,61.5,81,64.8z"/>
	<path class="st28" d="M81,54.7c-0.1-0.2-0.1-0.3-0.2-0.5c-0.2,0-0.3,0-0.5,0c0.2-0.2,0.4-0.5,0.6-0.6c0.1,0,0.5,0.3,0.5,0.3
		C81.3,54.2,81.1,54.5,81,54.7z"/>
	<path class="st29" d="M27.2,53.4c1.7,0,3.5-0.1,5.2-0.1c-0.1,0.1-0.2,0.2-0.3,0.2C30.5,53.5,28.9,53.4,27.2,53.4z"/>
	<path class="st30" d="M74.9,53.5L74.9,53.5c1-0.1,2-0.1,3-0.1c0.7,0,1.5,0,2.2,0.1C78.4,53.4,76.6,53.5,74.9,53.5z"/>
	<path class="st31" d="M93,44.9c0.8-0.5,1.6-1,2.4-1.5C94.6,43.9,93.8,44.4,93,44.9z"/>
	<path class="st13" d="M36.6,39c-0.1-0.6-0.2-1.1-0.4-1.7c-0.2-1.4-0.4-2.8-0.6-4.2c0-0.1,0-0.1,0-0.2c-0.1-1.1-0.2-2.1-0.3-3.2
		c0-0.2-0.1-0.3-0.1-0.5c0.5-0.2,0.9-0.4,1.4-0.5c0.2,0,0.7,0.4,0.7,0.6c0.2,1.4,0.3,2.9,0.4,4.3c0.1,0.9,0.3,1.7,0.5,2.6
		c0.1,0.6,0.1,1.2,0.2,1.7c0.1,0.7,0,1-0.8,1C37.3,39,37,39,36.6,39z"/>
	<path class="st13" d="M36.9,41.4c-0.1-0.6-0.2-1.2-0.3-1.9h0.1c1.9-0.6,2-0.5,2.2,1.4c0.1,0.7,0.2,1.5,0.3,2.2s0,1.1-0.8,1.1
		c-0.3,0-0.7,0.2-1,0.3h-0.1C37.2,43.5,37,42.5,36.9,41.4L36.9,41.4z"/>
	<path class="st13" d="M34.6,24.1c0.3-0.7,1-0.7,1.7-0.6c0.2,0,0.4,0.4,0.4,0.6c0.2,1.2,0.4,2.4,0.4,3.7c0,0.2-0.3,0.6-0.6,0.7
		c-0.4,0.2-0.9,0.2-1.3,0.2c-0.2-1.2-0.4-2.4-0.5-3.6C34.6,24.8,34.6,24.4,34.6,24.1z"/>
	<path class="st18" d="M36.9,41.4c0,0.1,0,0.1,0,0.2c-2.3,0-4.6,0-6.9,0c-0.3,0-0.6-0.1-1-0.2C31.6,41.4,34.2,41.4,36.9,41.4z"/>
	<path class="st18" d="M28.9,32.9c2.2,0,4.5,0,6.7,0c0,0.1,0,0.1,0,0.2c-1.9,0-3.8,0-5.8,0C29.6,33.1,29.3,33,28.9,32.9z"/>
	<path class="st27" d="M35.2,29.7c-2.1,0-4.2,0-6.3,0c0.4-0.1,0.8-0.2,1.1-0.2C31.8,29.6,33.5,29.6,35.2,29.7z"/>
	<path class="st7" d="M62.1,80.2c-0.2,0-0.5,0-0.7,0l0,0c0.4-1,1.5-1.6,1.6-2.8c0-0.5,0.3-0.9,0.4-1.4c1.2,0,2.4-0.3,3.2,1
		c0.1,0.1,0.2,0.2,0.3,0.3c0.2,0.5-0.4,1.4,0.7,1.5l0,0c0.4,0.4,0.7,1.2,1.1,1.3c1.3,0.1,2.8,0.5,3.8-0.9c-0.1-0.3-0.1-0.5-0.2-0.8
		c-1.6-2.7-3.1-5.4-4.7-8.1c-0.2-0.3-0.3-0.9-0.1-1.2c1.1-2.1,2.3-4.1,3.5-6.2c0,0.5,0.2,1.2,0,1.5c-0.6,0.5-0.5,1.1-0.5,1.7
		c-1,0.1-0.6,0.8-0.7,1.4c-0.6,0-0.9,0.2-0.8,0.8c0.1,1.4-0.4,2.8,0.9,4c0.5,0.5,0.9,1.2,1.3,1.8c0.3,0.6,0.6,1.2,1,1.8
		c0.3,0.6,0.7,1.3,1,1.9c0,0.5,0,1,0,1.5c-0.1,0.1-0.2,0.1-0.2,0.2c-0.3,1.2-1.5,1.4-2.4,1.8c-0.3,0.1-0.7,0-1-0.1
		c-0.9-0.5-1.7-1.1-2.6-1.7c-0.2-0.6-0.4-1.2-0.7-1.7c-0.3-0.5-0.6-1.4-1.4-1.1c-0.5,0.2-1.1,0.8-1.3,1.3
		C63.2,78.9,62.7,79.6,62.1,80.2z"/>
	<path class="st32" d="M62.1,80.2c0.7-0.6,1.1-1.3,1.4-2.2c0.2-0.5,0.8-1.1,1.3-1.3c0.8-0.3,1.1,0.6,1.4,1.1s0.5,1.1,0.7,1.7
		c0.5,0.8,0.9,1.6,1.5,2.6c-0.4,0.5-0.9,0.9-1.8,0.8c-1.4,0-2.8,0.1-4.2,0c-0.7-0.1-1.4-0.5-2.1-0.9C61.4,81.8,61.8,81.1,62.1,80.2z
		"/>
	<path class="st33" d="M50.4,78c0,0.4-0.2,0.9-0.1,1.3c0.2,0.6,0.6,1.2,1,1.7c0.5,0.8,0.2,1.3-0.7,1.4c-2,0-4,0-6,0
		c-0.3,0-0.8-0.2-0.9-0.4c-0.1-0.3,0.1-0.7,0.2-1.1c0.6-1.1,1.4-2.2,1.2-3.5c0-0.6,0.3-0.7,0.8-0.7c1.1,0,2.3,0,3.4,0
		C50.3,76.7,50.1,77.6,50.4,78z M47.4,80.6c0.3,0,0.6,0,0.8,0c0.6,0,1.5,0,1.4-0.8s-0.4-1.9-0.9-2.3c-1.1-0.8-2.5,0-3,1.3
		c-0.5,1.6-0.4,1.8,1.2,1.8C47,80.6,47.2,80.6,47.4,80.6z"/>
	<path class="st32" d="M73.2,79.4c0-0.5,0-1,0-1.5c0.7,0.1,0.9,0.7,1,1.3c0.2,1.3,0.5,1.6,1.9,1.6c1.6,0,3.1,0,4.7,0
		c0,0.7,0,1.5,0,2.2c-2.4,0-4.8,0-7.2,0c-0.8,0-1.4-0.4-2.1-1C73,81.6,73.2,80.5,73.2,79.4z"/>
	<path class="st21" d="M38.7,78.5c-1-0.6-1.2-0.7-2.4,0.5c-0.5,0.4-0.9,0.6-1.5,0.5c0.1-0.2,0.2-0.6,0.3-0.6c1-0.2,1.4-0.7,1.6-1.7
		c0.1-0.6,0.6-1.2,0.9-1.8c0.2-0.4,0.4-0.7,0.4-1.1c0-2.3,0-4.6,0-6.9c0.2,0,0.4,0,0.7,0c0,0.4,0,0.8,0,1.2c0,1.1-0.2,2.2,0.7,3.1
		c0.4,0.4,0.6,0.6,0.9-0.1c0.1-0.2,0.4-0.4,0.6-0.5c0.4,1.3-0.9,2.2-0.8,3.4c0,0,0,0.1-0.1,0.1c-0.9,0.4-0.6,1.2-0.7,1.8
		c-0.2,0.3-0.5,0.6-0.6,0.9C38.7,77.7,38.7,78.2,38.7,78.5z"/>
	<path class="st34" d="M39.4,76.5c0.1-0.7-0.3-1.5,0.7-1.8l0.1-0.1c-0.1-1.2,1.1-2.1,0.8-3.4c0.5-0.8,0.8-1.6,0.7-2.5
		c0.2,0,0.4,0,0.6,0c-0.3,1.1-0.5,2.1-0.8,3.2c-0.3,1.5-0.7,2.9-1,4.4c-0.3,1-0.5,2-0.8,3.1c1.2,0,2.3,0,3.3,0
		c-0.2,0.3-0.5,0.7-0.7,1c-0.7,0-1.4,0-2,0c0.5-1.2-0.5-0.5-0.8-0.7l0,0C39.4,78.5,39.4,77.5,39.4,76.5z"/>
	<path class="st7" d="M61.4,80.2c-0.3,0.6-1.6,1-2.5,0.9c-1.5-0.1-3-0.1-4.5-0.2c-1.1-0.1-2.4,0.1-3.1-1c-0.2-0.3-0.4-0.7-0.5-1.1
		c0.2,0,0.4,0,0.7,0c0.1,0.2,0.2,0.4,0.3,0.7c0.5,0.8,1.2,0.7,2,0.7s1.6,0.2,2.2-0.5c0.2-0.2,1-0.2,1.2,0c0.5,0.6,1.2,0.5,1.8,0.5
		C59.7,80.2,60.5,80.2,61.4,80.2L61.4,80.2z"/>
	<path class="st35" d="M38.1,67.4c0,2.3,0,4.6,0,6.9c0,0.4-0.3,0.7-0.4,1.1c-0.3,0.6-0.7,1.2-0.9,1.8c-0.2,1-0.7,1.5-1.6,1.7
		c-0.1,0-0.2,0.4-0.3,0.6c-0.1,0-0.2,0-0.3,0c-0.6,0-1.2,0-1.9,0c0-0.2,0-0.4,0-0.5c0.3-0.1,0.6-0.2,0.9-0.3c1.7-0.6,3-1.7,3.5-3.5
		c0.4-1.2,0.5-2.4,0.7-3.6c0-1.5,0-3.1,0-4.6c0-0.1,0.1-0.1,0.1-0.2C37.9,67,38,67.2,38.1,67.4z"/>
	<path class="st36" d="M32.7,79.6c0.6,0,1.2,0,1.9,0c-0.1,0.2-0.1,0.5-0.2,0.5c-0.8,0.3-1.6,0.8-2.4,0.8c-2.3,0.1-4.6,0-6.9,0
		c-0.5,0-0.9,0-0.9-0.7c2.6,0,5.2,0,7.7,0C32.4,80.2,32.8,80.2,32.7,79.6C32.5,79.6,32.6,79.6,32.7,79.6z"/>
	<path class="st35" d="M32.5,79.6c0.2,0.7-0.2,0.7-0.7,0.7c-2.6,0-5.2,0-7.7,0c-0.2-0.2-0.5-0.4-0.7-0.7c0-0.1,0-0.2,0-0.3
		c0.5,0,0.9,0,1.4,0c0.3,0.1,0.7,0.3,1,0.3C28,79.6,30.2,79.6,32.5,79.6z"/>
	<path class="st36" d="M23.4,79.2c0,0.1,0,0.2,0,0.3c-0.6,0-0.7-0.4-0.7-0.9c0-2.6,0-5.1,0-7.7c0-0.8,0-1.7,0-2.5c0.1,0,0.2,0,0.3,0
		c0,3.2,0,6.5,0,9.7c0,0.3,0.1,0.7,0.2,1C23.3,79.2,23.3,79.2,23.4,79.2z"/>
	<path class="st37" d="M49.4,76.7c-1.1,0-2.3,0-3.4,0c-0.5,0-0.8,0.1-0.8,0.7c-0.2,0-0.4,0-0.7,0l0,0c0-1.3,0-1.3,1.4-1.4
		c0.2,0,0.3,0,0.5,0c1,0,2,0,3,0C49.4,76.2,49.4,76.5,49.4,76.7z"/>
	<path class="st38" d="M49.4,76.7c0-0.2,0-0.4,0-0.7l0,0c1.6,0,2,0.5,2,2.2c0,0.2,0,0.5,0,0.7c-0.2,0-0.4,0-0.7,0
		c-0.1-0.3-0.2-0.6-0.3-0.8C50.1,77.6,50.3,76.7,49.4,76.7z"/>
	<path class="st37" d="M42.3,80.2c0.2-0.3,0.5-0.7,0.7-1c0.2-0.7,0.5-1.5,0.7-2.2c0.3,0.1,0.5,0.2,0.8,0.3l0,0
		C44.5,78.7,43.4,80.1,42.3,80.2z"/>
	<path class="st37" d="M39.4,76.5c0,1,0,2,0,3c-0.6-0.1-0.7-0.5-0.7-1c0-0.4-0.1-0.8,0-1.1C38.9,77.1,39.2,76.8,39.4,76.5z"/>
	<path class="st37" d="M39.4,79.6c0.3,0.2,1.3-0.5,0.8,0.7C39.8,80.2,39.4,80.2,39.4,79.6z"/>
	<path class="st17" d="M13.9,33.7c2-1.1,5.2-0.7,7,0.6c1.1,0.8,2,1.8,2.5,3.1c-2,0-3.9-0.1-5.9-0.1c-0.2,0-0.5,0.4-0.5,0.7
		c-0.1,0.8,0,1.5,0,2.3c0,1.2,0,1.2,1.2,1.2c1.9,0,3.8,0,5.7,0c0,0.2,0,0.3,0,0.5c-0.6,1.1-1.2,2.2-1.8,3.2C21.7,45.1,21.4,45,21,45
		c-1.7,0-3.4,0-5.1,0c-1.9,0-1.8,0.1-1.8-1.7c0-2.8,0-5.7,0-8.5C14.1,34.5,13.9,34.1,13.9,33.7z"/>
	<path class="st14" d="M23.8,41.5c0-0.6,0-1.1,0.1-1.7c0.2,0.2,0.5,0.4,0.6,0.6c1.1,2,0.8,4.6-0.6,6.2c-2,2.3-4.6,2.3-6.7,1.6
		c-0.4-0.2-0.8-0.4-1.2-0.6v-0.1c0.7-0.1,1.5-0.1,2.2-0.2c0.4,0.2,0.8,0.4,1.1,0.4c1.8,0.1,3.8-1.2,4.4-2.9c0.3-0.9,0.7-1.9-0.1-2.9
		C23.8,41.9,23.8,41.7,23.8,41.5z"/>
	<path class="st22" d="M16.1,47.6c0.4,0.2,0.8,0.4,1.2,0.6c2.1,0.8,4.6,0.8,6.7-1.6c1.4-1.6,1.7-4.1,0.6-6.2
		c-0.1-0.3-0.4-0.4-0.6-0.6c0-0.1,0-0.2,0-0.3c1.1,0.6,1.3,1.7,1.4,2.8c0.4,3.4-1.6,6.1-5,6.6C18.8,49.1,17.3,48.7,16.1,47.6z"/>
	<path class="st13" d="M56.4,51.9c0.2,0.6-0.1,0.8-0.8,0.8c-1.1,0.1-2.1,0.3-3.2,0.4c-0.6,0.1-1-0.1-1.1-0.8
		c-0.2-1.2-0.3-2.5-0.4-3.7c0-0.2,0.3-0.5,0.5-0.6c1.2-0.2,2.4-0.3,3.6-0.5c0.7-0.1,0.9,0.3,1,0.8C56.1,49.6,56.2,50.7,56.4,51.9z"
		/>
	<path class="st13" d="M60.3,40.7c0.2,0.5-0.2,0.7-0.8,0.8c-1.1,0.1-2.3,0.3-3.4,0.4c-0.5,0.1-0.7-0.1-0.8-0.5
		c-0.2-1.3-0.4-2.6-0.5-3.9c0-0.2,0.3-0.5,0.5-0.5c1.3-0.2,2.6-0.4,3.9-0.5c0.2,0,0.6,0.3,0.6,0.6C59.9,38.2,60.1,39.3,60.3,40.7z"
		/>
	<path class="st13" d="M65.2,30.1c-0.6,0.1-0.8-0.2-0.8-0.7c-0.1-1.2-0.3-2.4-0.5-3.6c-0.1-0.5,0.1-0.7,0.6-0.8
		c1.3-0.2,2.5-0.4,3.8-0.5c0.2,0,0.6,0.3,0.6,0.5c0.2,1.3,0.4,2.6,0.5,3.9c0,0.2-0.3,0.5-0.5,0.5C67.7,29.7,66.4,29.9,65.2,30.1z"/>
	<path class="st13" d="M65.9,41.6c-0.1-0.6,0.2-0.8,0.7-0.8c1.2-0.1,2.4-0.3,3.6-0.5c0.5-0.1,0.7,0.2,0.8,0.6
		c0.2,1.2,0.3,2.5,0.4,3.7c0,0.2-0.4,0.7-0.6,0.7c-1.2,0.2-2.5,0.4-3.8,0.5c-0.2,0-0.6-0.3-0.6-0.5C66.3,44.1,66.1,42.8,65.9,41.6z"
		/>
	<path class="st13" d="M47.4,21.9c1.4-0.2,2.8-0.4,4.2-0.6c0.5-0.1,0.8,0,0.8,0.6c0.1,1.1,0.3,2.3,0.5,3.4c0.1,0.6-0.1,1-0.8,1
		c-1.2,0.1-2.4,0.3-3.6,0.4c-0.2,0-0.6-0.3-0.6-0.5C47.7,24.9,47.5,23.4,47.4,21.9L47.4,21.9z"/>
	<path class="st13" d="M66.6,40.5c-0.5,0.2-0.8,0-0.8-0.6c-0.1-1.2-0.3-2.3-0.5-3.5c-0.1-0.6,0.1-0.8,0.7-0.9
		c1.2-0.1,2.4-0.3,3.7-0.4c0.2,0,0.6,0.3,0.7,0.6c0.2,1.2,0.3,2.5,0.5,3.7c0.1,0.6-0.4,0.7-0.8,0.7C68.8,40.3,67.7,40.4,66.6,40.5z"
		/>
	<path class="st13" d="M64.3,35.7c0.5-0.2,0.7,0.2,0.8,0.8c0.1,1.1,0.2,2.2,0.4,3.3c0.1,0.6-0.1,0.8-0.7,0.9
		c-1.2,0.2-2.5,0.3-3.7,0.4c-0.2,0-0.6-0.2-0.6-0.4c-0.2-1.4-0.4-2.7-0.6-4.1c0-0.2,0.4-0.5,0.6-0.5C61.7,36.1,62.9,35.9,64.3,35.7z
		"/>
	<path class="st13" d="M60.6,42.1c-0.1-0.3,0.2-0.5,0.7-0.6c1.2-0.1,2.4-0.3,3.6-0.5c0.5-0.1,0.7,0.1,0.8,0.6
		c0.2,1.2,0.4,2.4,0.5,3.7c0,0.2-0.3,0.6-0.5,0.7c-1.3,0.2-2.6,0.4-3.9,0.5c-0.2,0-0.5-0.4-0.6-0.6C61,44.7,60.8,43.5,60.6,42.1z"/>
	<path class="st13" d="M64.2,29.6c0.1,0.3-0.1,0.5-0.7,0.6c-1.2,0.1-2.4,0.3-3.6,0.5c-0.5,0.1-0.8-0.1-0.9-0.6
		c-0.2-1.2-0.3-2.4-0.4-3.7c0-0.2,0.3-0.7,0.6-0.7c1.3-0.2,2.5-0.4,3.8-0.5c0.2,0,0.5,0.3,0.6,0.5C63.8,27,63.9,28.2,64.2,29.6z"/>
	<path class="st13" d="M71,45.6c0.4-0.1,0.6,0.1,0.7,0.7c0.1,1.1,0.3,2.3,0.4,3.4c0.1,0.6-0.1,0.9-0.7,0.9c-1.2,0.2-2.4,0.4-3.7,0.5
		c-0.2,0-0.6-0.3-0.6-0.5c-0.2-1.2-0.3-2.3-0.5-3.5c-0.1-0.6,0.2-1,0.8-1C68.6,45.9,69.7,45.7,71,45.6z"/>
	<path class="st13" d="M55.4,36.7c-0.7,0.2-0.9-0.2-0.9-0.9c-0.1-1.1-0.3-2.2-0.4-3.3c-0.1-0.5,0.1-0.7,0.5-0.8
		c1.3-0.2,2.6-0.4,3.9-0.5c0.2,0,0.5,0.3,0.5,0.4c0.2,1.2,0.3,2.4,0.5,3.7c0.1,0.6-0.2,0.9-0.8,0.9C57.7,36.4,56.6,36.5,55.4,36.7z"
		/>
	<path class="st13" d="M60.5,36c-0.5,0.2-0.7-0.3-0.7-0.8c-0.1-1.1-0.3-2.3-0.4-3.4c-0.1-0.5,0.1-0.7,0.5-0.8
		c1.3-0.2,2.6-0.4,3.9-0.5c0.2,0,0.5,0.3,0.5,0.5c0.2,1.3,0.4,2.6,0.5,3.9c0,0.2-0.3,0.5-0.6,0.6C63,35.7,61.9,35.8,60.5,36z"/>
	<path class="st13" d="M64.5,31c-0.2-0.5,0.3-0.7,0.8-0.7c1.1-0.1,2.3-0.3,3.4-0.5c0.5-0.1,0.7,0.1,0.8,0.5c0.2,1.3,0.4,2.6,0.5,3.9
		c0,0.2-0.2,0.5-0.4,0.5c-1.4,0.2-2.7,0.4-4.1,0.5c-0.2,0-0.5-0.3-0.5-0.6C64.9,33.6,64.7,32.4,64.5,31z"/>
	<path class="st13" d="M53.9,26.2c-0.5,0.1-0.8-0.2-0.8-0.7c-0.1-1.2-0.3-2.3-0.5-3.5c-0.1-0.5,0.1-0.8,0.6-0.8
		c1.3-0.2,2.6-0.4,3.8-0.5c0.2,0,0.5,0.3,0.5,0.5c0.2,1.2,0.4,2.4,0.5,3.7c0.1,0.6-0.2,0.8-0.7,0.9C56.3,25.8,55.1,26,53.9,26.2z"/>
	<path class="st13" d="M61.6,51c0.3,0.7-0.1,0.9-0.9,1c-1,0.1-2.1,0.2-3.1,0.4c-0.6,0.1-0.9-0.1-1-0.7c-0.1-1.2-0.3-2.4-0.5-3.7
		c-0.1-0.5,0.2-0.6,0.6-0.7c1.1-0.1,2.2-0.3,3.3-0.5c0.7-0.1,1.1,0.1,1.1,0.8C61.3,48.9,61.5,49.9,61.6,51z"/>
	<path class="st13" d="M61.4,47.6c0-0.6,0.2-0.8,0.8-0.9c1.1-0.1,2.2-0.3,3.3-0.5c0.6-0.1,1,0.1,1.1,0.8c0.1,1.1,0.3,2.3,0.4,3.4
		c0.1,0.6-0.2,0.8-0.7,0.8c-1.2,0.2-2.4,0.3-3.6,0.4c-0.2,0-0.7-0.3-0.7-0.5C61.7,50.1,61.5,48.8,61.4,47.6z"/>
	<path class="st13" d="M47,27c-1.2,0.2-2.5,0.4-3.7,0.6c-0.4,0.1-0.6-0.1-0.7-0.5c-0.1-1.2-0.3-2.3-0.5-3.5c-0.1-0.6,0.1-1,0.8-1
		c1.3-0.1,2.6-0.3,3.9-0.4c0.3,1.5,0.5,3,0.7,4.5C47.6,26.7,47.2,26.9,47,27z"/>
	<path class="st13" d="M46.5,48.5c-0.7,0.2-1,0-1.1-0.8c-0.1-1.1-0.3-2.1-0.5-3.2c-0.1-0.5,0.2-0.9,0.7-1c0.4-0.1,0.8-0.1,1.2-0.2
		c0.7-0.1,1.4-0.2,2.2-0.3c0.5-0.1,0.8,0,0.9,0.6c0.2,1.3,0.4,2.5,0.5,3.8c0,0.2-0.3,0.6-0.5,0.6C48.8,48.2,47.7,48.3,46.5,48.5z"/>
	<path class="st13" d="M47.4,37.6c-0.8,0.1-1.6,0.2-2.5,0.4c-0.6,0.1-0.9-0.1-0.9-0.7c-0.1-1.1-0.3-2.2-0.4-3.3
		c-0.1-0.5,0-0.9,0.6-0.9c0.8-0.1,1.7-0.2,2.5-0.3c0.5,0,1.1-0.2,1.6,0c0.2,0.1,0.2,0.9,0.2,1.3c0.1,0.8,0.3,1.5,0.4,2.3
		c0.2,1,0,1.2-1,1.3C47.8,37.6,47.6,37.6,47.4,37.6z"/>
	<path class="st13" d="M46.7,32.6c-0.9,0.1-1.8,0.1-2.7,0.3c-0.5,0.1-0.7-0.1-0.7-0.6c-0.1-1.2-0.3-2.3-0.5-3.5
		c-0.1-0.6,0.1-0.9,0.7-1c1.2-0.1,2.4-0.3,3.7-0.4c0.2,0.5,0.5,0.9,0.6,1.4c0.2,0.8,0.3,1.6,0.4,2.4c-0.3,0.4-0.7,0.9-1,1.3
		C47,32.4,46.9,32.5,46.7,32.6z"/>
	<path class="st13" d="M49.4,53.4c-1.1,0-2.2,0-3.4-0.1c-0.1-1-0.2-2.1-0.3-3.1c-0.1-0.8,0.1-1.3,1-1.4c1-0.2,2.1-0.3,3.1-0.5
		c0.6-0.1,0.8,0.2,0.9,0.7c0.2,1.4,0.4,2.8,0.6,4.3C50.6,53.3,50,53.4,49.4,53.4z"/>
	<path class="st13" d="M46.9,43c-0.4,0.1-0.7,0.1-1.1,0.2c-0.6,0.2-1,0-1.1-0.6c-0.1-1.2-0.3-2.4-0.5-3.6c-0.1-0.5,0.1-0.7,0.6-0.7
		c0.9-0.1,1.8-0.2,2.7-0.3c1.5-0.1,1.7,0.1,1.8,1.6c0,0.6,0.1,1.2,0.2,1.8c-0.2,0.5-0.3,1-0.5,1.5C48.3,42.9,47.6,43,46.9,43z"/>
	<path class="st13" d="M53.8,29.9c0.8-0.1,1.6-0.3,2.6-0.4c-0.1-0.7-0.2-1.3-0.2-1.9c-0.9,0.1-1.8,0.2-2.7,0.3
		c-0.2-1.3-0.2-1.3,1.1-1.5c1-0.1,2.1-0.2,3.1-0.4c0.4-0.1,0.6,0.1,0.7,0.5c0.2,1.3,0.4,2.6,0.5,3.8c0,0.2-0.3,0.6-0.5,0.6
		c-1.3,0.2-2.5,0.4-3.8,0.5c-0.2,0-0.6-0.3-0.7-0.5C53.7,30.6,53.8,30.2,53.8,29.9z"/>
	<path class="st13" d="M56,46.9c0.8-0.1,1.6-0.3,2.5-0.4c0-0.3,0-0.7,0-1s-0.1-0.6-0.2-0.9c-0.7,0-1.4,0.1-2.1,0.1
		c-0.5-0.3-1-2-0.7-2.4c0.1-0.1,0.3-0.2,0.4-0.2c1.2-0.2,2.3-0.3,3.5-0.5c0.7-0.1,1,0.2,1.1,0.8c0.1,1.1,0.3,2.3,0.4,3.4
		c0,0.2-0.3,0.7-0.5,0.7c-1.2,0.2-2.5,0.4-3.8,0.5C56.4,47.2,56.2,47,56,46.9z"/>
	<path class="st13" d="M63.4,23.6c0,1.2,0,1.3-1.2,1.4c-0.9,0.1-1.8,0.2-2.8,0.4c-0.7,0.1-1.1-0.1-1.1-0.9c-0.1-1.1-0.2-2.2-0.4-3.3
		c-0.1-0.6,0.1-0.8,0.7-0.9c0.9-0.1,1.8-0.2,2.8-0.4c0.2,1.2,0.4,2.4,0.6,3.7C62.5,23.7,63,23.7,63.4,23.6z"/>
	<path class="st13" d="M53.1,27.9c-0.8,0.1-1.5,0.2-2.4,0.4c0.1,1.2,0.2,2.4,0.3,3.6c-0.6,0.1-1.1,0.1-1.7,0.2
		c-0.5,0.1-0.8-0.1-0.8-0.6c-0.1-1.2-0.3-2.3-0.5-3.5c-0.1-0.6,0.1-0.9,0.7-0.9c1.2-0.2,2.5-0.3,3.8-0.5c0.2,0,0.5,0.3,0.6,0.5
		C53.2,27.3,53.1,27.6,53.1,27.9z"/>
	<path class="st1" d="M63.4,23.6c-0.5,0.1-0.9,0.1-1.4,0.2c-0.2-1.3-0.4-2.5-0.6-3.7c0-0.1,0-0.1,0-0.2c0-0.3-0.1-0.7-0.1-1
		c0.3,0.1,0.7,0,0.9,0.2c1.4,1,2.7,2.1,4.1,3.1c0.3,0.3,0.6,0.6,0.8,0.9c-0.2,0.1-0.3,0.2-0.5,0.2c-1,0.1-2,0.3-3,0.4
		C63.5,23.6,63.5,23.6,63.4,23.6z"/>
	<path class="st13" d="M52.6,42.7c0.2,1.3,0.4,2.7,0.5,4c0.1,0.5,0.2,0.6,0.7,0.4c0.6-0.2,1.3-0.2,2-0.2c-0.2,0.2-0.5,0.4-0.7,0.5
		c-1.2,0.2-2.3,0.3-3.5,0.5c-0.6,0.1-0.9-0.2-1-0.7c-0.2-1.2-0.3-2.4-0.4-3.6c0-0.2,0.3-0.6,0.5-0.7C51.3,42.8,51.9,42.8,52.6,42.7z
		"/>
	<path class="st13" d="M51,32.1c0.2,1.1,0.4,2.2,0.5,3.2c0.1,0.6,0.1,1.2,0.1,1.8c-0.6,0.1-1.1,0.2-1.7,0.3
		c-0.5,0.1-0.8-0.1-0.8-0.6c-0.2-1.2-0.4-2.5-0.5-3.8c0-0.2,0.3-0.6,0.5-0.6C49.9,32.2,50.5,32.2,51,32.1z"/>
	<path class="st13" d="M51.9,37.5c0.2,1.3,0.4,2.6,0.5,3.9c0,0.3,0,0.7,0,1c-0.4,0.1-0.9,0.1-1.3,0.2c-0.8,0.2-1.1-0.1-1.2-0.8
		c-0.1-1.1-0.2-2.2-0.4-3.3c-0.1-0.5,0-0.8,0.6-0.8C50.7,37.6,51.3,37.5,51.9,37.5z"/>
	<path class="st13" d="M71.3,53.3c-1.3,0-2.6,0-3.9,0c-0.1-2-0.1-1.9,1.8-2.2c0.7-0.1,1.4-0.2,2.1-0.3c0.5-0.1,1,0.1,1,0.7
		C72,52.1,71.7,52.7,71.3,53.3z"/>
	<path class="st13" d="M67.3,53.3c-1.7,0-3.5,0-5.2,0c0-1.2,0-1.2,1.2-1.4c0.9-0.1,1.8-0.2,2.7-0.4c1-0.1,1.1,0,1.2,0.9
		C67.2,52.8,67.2,53,67.3,53.3z"/>
	<path class="st39" d="M71.3,53.3c0.4-0.6,0.7-1.2,1.1-1.8c0.1-0.1,0.3-0.3,0.4-0.4c1.7,0.7,3.4,1.5,5.1,2.2c-1,0-2,0-3,0
		C73.7,53.4,72.5,53.3,71.3,53.3z"/>
	<path class="st11" d="M69.8,22.7c-0.3,0.1-0.7,0.1-1,0.2c-0.1,0-0.1,0-0.2,0v-0.1c-0.1-0.2-0.2-0.4-0.4-0.6c-2.2-1.7-4.3-3.4-6.5-5
		c-0.1-0.1-0.5,0.1-0.7,0.2c-0.1-0.4-0.1-0.8-0.2-1.2c0.3,0,0.6,0,0.9,0.2c2.1,1.6,4.2,3.1,6.2,4.7C68.6,21.7,69.2,22.2,69.8,22.7z"
		/>
	<path class="st13" d="M63.6,23.6c1-0.1,2-0.2,3-0.4c0.2,0,0.4-0.1,0.5-0.2c0.5-0.1,1-0.1,1.5-0.2v0.1c0,0.4,0,0.8,0,1.3
		c-1.4,0.2-2.8,0.4-4.2,0.6C63.7,24.9,63.6,24.2,63.6,23.6z"/>
	<path class="st13" d="M61.9,53.3c-1.7,0-3.4,0-5.1,0c-0.1-0.4,0.1-0.6,0.5-0.7c1.2-0.1,2.4-0.3,3.6-0.5
		C61.8,52.1,61.9,52.7,61.9,53.3z"/>
	<path class="st40" d="M56.5,53.3c-1.2,0-2.4,0-3.5,0c1-0.2,1.9-0.3,2.9-0.4C56,52.9,56.3,53.2,56.5,53.3z"/>
	<path class="st13" d="M47.2,32.4c0.3-0.4,0.7-0.9,1-1.3C48.5,32.1,48.4,32.3,47.2,32.4z"/>
	<path class="st13" d="M49.1,42.9c0.2-0.5,0.3-1,0.5-1.5C49.7,42,50.1,42.6,49.1,42.9z"/>
	<path class="st41" d="M45.2,58.4c0.2,0,0.5,0,0.7,0c1.2,0,2.4,0,3.5,0c0.2,0,0.5,0,0.7,0c1.3,0.6,2.6,1.3,4,1.9
		c0.3,0.1,0.8,0,1.1-0.2c0.7-0.3,1.3-0.7,2-1.1c0.1,0,0.2,0,0.3,0c-0.2,0.2-0.4,0.5-0.7,0.7c-0.1,0.1-0.4,0.2-0.4,0.3
		c-0.3,0.7-0.6,1.5-0.8,2.2S55,63,54.5,62.5s-0.9-1.2-1.4-1.7S52,60,51.5,59.6c-0.9-0.7-2-0.7-3.1-0.7c-0.8,0-1.6,0-2.4,0
		c-0.7,0-1.3-0.1-1.8,0.5c-0.1,0.1-0.4,0.1-0.5,0.1c-0.3,0.1-0.7,0.2-0.9,0.4c-0.7,0.7-1.2,1.6-1.9,2.2c-0.3,0.3-1,0.5-1.2,0.4
		c-1.2-1-2.3-2-3.5-3.1c0.1,0,0.2,0,0.3,0c0.5,0.2,1,0.5,1.5,0.7c1.2,1.1,2.9,0.9,3.5-0.3C42.8,59.6,44,59,45.2,58.4z"/>
	<path class="st15" d="M80.8,60.5c0,0.7,0,1.5,0,2.2c-1.3,0-2.5-0.1-3.8,0c-1.5,0.1-2.2-0.7-2.9-1.8c-0.5-0.8-1.1-1.7-2.3-1.8
		c-1.2,0-2.5,0-3.7,0c-0.6,0.2-1.3,0.3-1.8,0.7c-1.3,1.1-2.5,0.7-3.6-0.2c-0.2-0.2-0.4-0.4-0.6-0.5c0.1,0,0.1,0,0.2,0
		c0.3,0.1,0.7,0.1,0.9,0.3c0.9,0.6,1.8,0.5,2.7,0c0.5-0.2,0.9-0.4,1.4-0.6c3-1.1,5.6-0.4,8.2,1.3c0.3,0.2,0.7,0.3,1.1,0.3
		C78,60.5,79.4,60.5,80.8,60.5z"/>
	<path class="st15" d="M38.1,60.5c-0.5-0.2-1-0.5-1.5-0.7c-1.2-1-2.7-0.8-4.1-1.4c0.3,0,0.7-0.1,1,0c1.7,0.5,3.5,1,5.2,1.6
		c0.9,0.3,1.6,0.3,2.4-0.2c1.2-0.7,2.5-1.6,4.1-1.4c-1.2,0.6-2.4,1.1-3.5,1.7c-0.7,0.3-1.3,0.6-2,0.7C39.1,60.9,38.6,60.6,38.1,60.5
		z"/>
	<path class="st15" d="M62.2,59.1c-0.1,0-0.1,0-0.2,0c-0.6-0.2-1.2-0.3-1.7-0.5c-1.1-0.3-2.2-0.2-3.2,0.5c-0.7,0.4-1.3,0.8-2,1.1
		c-0.3,0.2-0.8,0.3-1.1,0.2c-1.3-0.6-2.6-1.3-4-1.9c1,0.3,2,0.5,3,0.9c0.9,0.3,1.7,0.3,2.5-0.1c1.6-0.7,3.2-1.3,5-0.8
		C61.2,58.6,61.7,58.9,62.2,59.1z"/>
	<path class="st41" d="M32.5,58.4c1.3,0.5,2.9,0.4,4.1,1.4c-0.1,0-0.2,0-0.3,0c-0.5-0.1-1-0.1-1.5-0.2c-0.6-0.1-1.2-0.3-1.8-0.5
		c-0.5-0.2-1-0.5-1.5-0.7c0.1,0,0.2,0,0.3,0C32,58.4,32.3,58.4,32.5,58.4z"/>
	<path class="st15" d="M49.4,58.4c-1.2,0-2.4,0-3.5,0C47,58.1,48.2,58.1,49.4,58.4z"/>
	<path class="st9" d="M21.8,65c0-1,0-1.9,0-2.9c0.4-0.6,0.8-1.1,1.2-1.7c0,0.5,0,1,0,1.5c-0.1,0.3-0.3,0.5-0.3,0.8
		c0,0.7,0,1.5,0,2.2C22.4,65,22.1,65,21.8,65z"/>
	<path class="st2" d="M22.7,65c0-0.7,0-1.5,0-2.2c0-0.3,0.2-0.5,0.3-0.8c0,2.1,0,4.3,0,6.4c-0.1,0-0.2,0-0.3,0
		C22.7,67.3,22.7,66.1,22.7,65z"/>
	<path class="st42" d="M23.4,79.2c-0.1,0-0.1,0-0.2-0.1c0-6.4,0-12.8,0-19.2c0.1,0,0.1,0,0.2,0c2.5,0,4.9,0,7.4,0
		c2.4,0.1,4.5,0.8,5.9,2.9c0.1,0.3,0.2,0.5,0.3,0.8c0.3,1.1,0.6,2.2,0.9,3.3c0,0.1-0.1,0.1-0.1,0.2c0,1.5,0,3.1,0,4.6
		c-0.2,1.2-0.3,2.4-0.7,3.6c-0.6,1.7-1.8,2.9-3.5,3.5c-0.3,0.1-0.6,0.2-0.9,0.3c-0.9,0.1-1.8,0.2-2.7,0.2c-1.7,0-3.5,0-5.2,0
		C24.3,79.2,23.8,79.2,23.4,79.2z M26.4,73c0,1,0,2.1,0,3.2c0.4,0,0.8,0,1.1,0c1.3-0.1,2.6-0.1,3.9-0.4c1.3-0.3,2.1-1.3,2.4-2.7
		c0.1-0.2,0.2-0.3,0.2-0.5c0.1-2,0.3-4,0.1-6c-0.2-2.4-1.6-3.5-3.9-3.5c-0.6,0-1.3,0-1.9,0c-0.4,0-0.8,0-1.2,0
		c-0.5,0-0.7,0.2-0.7,0.7C26.4,66.9,26.4,69.9,26.4,73z"/>
	<path class="st43" d="M33,59.1c0.6,0.2,1.2,0.4,1.8,0.5c0.5,0.1,1,0.1,1.5,0.2c1.2,1,2.3,2.1,3.5,3.1c0.2,0.2,0.9-0.1,1.2-0.4
		c0.7-0.7,1.2-1.5,1.9-2.2c0.2-0.2,0.6-0.3,0.9-0.4c0,0.2,0,0.5,0,0.7l0,0c-0.2,0-0.4,0-0.5,0.1c-0.5,0.9-1,1.8-1.6,2.7
		c-0.2,0.2-0.4,0.4-0.6,0.7c-0.6,0.9-1,0.8-1.7,0c-0.4-0.5-0.9-0.9-1.3-1.4c-0.2,0-0.5,0-0.7,0c-0.6-0.7-1-1.7-1.7-2.1
		c-1-0.5-2.1-1.2-3.3-0.8c0-0.2,0-0.4,0-0.7C32.5,59.1,32.8,59.1,33,59.1z"/>
	<path class="st44" d="M32.3,59.8c1.3-0.4,2.3,0.3,3.3,0.8c0.7,0.3,1.2,1.4,1.7,2.1c-0.2,0.1-0.5,0.1-0.7,0.2
		c-1.4-2.1-3.5-2.8-5.9-2.9c-2.5-0.1-4.9,0-7.4,0c0.3,0,0.7-0.1,1-0.1C27,59.8,29.7,59.8,32.3,59.8z"/>
	<path class="st45" d="M32.3,59.8c-2.6,0-5.3,0-7.9,0c0-0.7,0.5-0.7,0.9-0.7c2.3,0,4.7,0,7,0C32.3,59.3,32.3,59.6,32.3,59.8z"/>
	<path class="st46" d="M23.2,60c0,6.4,0,12.8,0,19.2c-0.1-0.3-0.2-0.7-0.2-1c0-3.2,0-6.5,0-9.7c0-2.1,0-4.3,0-6.4c0-0.5,0-1,0-1.5
		C23.1,60.3,23.1,60.1,23.2,60z"/>
	<path class="st41" d="M23,58.9c0.9-0.2,1.8-0.3,2.7-0.5c-0.9,0.2-1.8,0.5-2.7,0.7C23,59,23,59,23,58.9z"/>
	<path class="st13" d="M43.8,37.8c-0.2,0.1-0.4,0.5-0.7,0.5c-1.2,0.2-2.4,0.3-3.6,0.5c-0.5,0.1-0.8-0.1-0.8-0.7
		c-0.1-1.1-0.3-2.3-0.5-3.4c-0.1-0.6,0-0.9,0.7-1c1.1-0.1,2.2-0.3,3.3-0.5c0.6-0.1,1,0.1,1,0.8C43.4,35.2,43.6,36.4,43.8,37.8z"/>
	<path class="st13" d="M45.2,48.3c-0.2,0.1-0.4,0.5-0.7,0.5c-1.1,0.2-2.3,0.3-3.4,0.5c-0.6,0.1-0.9-0.1-1-0.8
		c-0.1-1.1-0.3-2.2-0.4-3.3c-0.1-0.6,0.1-0.8,0.7-0.9c1.2-0.1,2.3-0.3,3.5-0.5c0.5-0.1,0.8,0,0.8,0.6C44.8,45.6,45,46.8,45.2,48.3z"
		/>
	<path class="st13" d="M42,28c0.2,0.2,0.5,0.4,0.6,0.8c0.2,1.1,0.3,2.3,0.5,3.4c0.1,0.5-0.1,0.9-0.7,0.9c-1.2,0.1-2.4,0.3-3.6,0.5
		c-0.5,0.1-0.7-0.1-0.8-0.6c-0.1-1.1-0.3-2.3-0.5-3.4c-0.1-0.6,0.1-1,0.8-1C39.5,28.3,40.6,28.2,42,28z"/>
	<path class="st13" d="M43.5,38.5c0.1,0.1,0.4,0.4,0.5,0.6c0.2,1.2,0.4,2.4,0.5,3.6c0.1,0.5-0.1,0.8-0.7,0.9
		c-1.1,0.1-2.2,0.3-3.3,0.4c-0.6,0.1-0.9-0.1-1-0.8c-0.1-1.1-0.3-2.3-0.4-3.4c0-0.3,0.2-0.8,0.4-0.8C40.7,38.8,42,38.7,43.5,38.5z"
		/>
	<path class="st13" d="M38.3,28.2c-0.6,0.2-0.9,0-1-0.8c-0.1-1-0.3-2.1-0.4-3.1c-0.1-0.7,0.1-1.1,0.8-1.2c1.1-0.1,2.2-0.3,3.3-0.4
		c0.6-0.1,0.8,0.1,0.9,0.7c0.1,1.1,0.2,2.2,0.4,3.3c0.1,0.7-0.2,0.9-0.8,1C40.5,27.9,39.5,28.1,38.3,28.2z"/>
	<path class="st13" d="M45.8,53.3c-1.7,0-3.4,0-5.1,0c-0.1-1-0.3-2-0.4-3c-0.1-0.6,0.2-0.8,0.7-0.8c1.2-0.2,2.4-0.3,3.6-0.5
		c0.5-0.1,0.7,0.1,0.7,0.6C45.5,50.8,45.7,52.1,45.8,53.3z"/>
	<path class="st47" d="M68.7,22.9c-0.5,0.1-1,0.1-1.5,0.2c-0.3-0.3-0.5-0.6-0.8-0.9c-1.3-1.1-2.7-2.1-4.1-3.1
		c-0.2-0.2-0.6-0.1-0.9-0.2c-0.1-0.4-0.1-0.9-0.2-1.3c0.2-0.1,0.6-0.3,0.7-0.2c2.2,1.7,4.4,3.3,6.5,5C68.5,22.5,68.5,22.7,68.7,22.9
		z"/>
	<path class="st48" d="M69.8,22.7c-0.6-0.5-1.2-1-1.8-1.5c-2.1-1.6-4.1-3.2-6.2-4.7c-0.2-0.2-0.6-0.1-0.9-0.2
		c-0.1-0.3-0.1-0.7-0.2-1c1.3,0.9,2.6,1.8,3.8,2.8c1.6,1.2,3.2,2.4,4.8,3.7c0.3,0.2,0.5,0.6,0.7,1C69.9,22.7,69.9,22.7,69.8,22.7z"
		/>
	<path class="st44" d="M80.8,70.4c0,1.5,0,3,0,4.6c-1.7,0-3.5,0-5.2,0c-0.4,0-0.7,0-1.1-0.1c-1.6-0.5-2.8-1.7-3.9-2.9
		c-0.6-0.6-0.8-1.3-0.7-2.1c0.1-0.8,0-1.5,0-2.3c1-0.1,0.6-0.8,0.7-1.4c0.2,0,0.5,0,0.7,0c0,0.5,0,1-0.1,1.4
		c-0.4,1.8,0.4,2.8,2.2,2.8C75.8,70.4,78.3,70.4,80.8,70.4z"/>
	<path class="st8" d="M69.8,67.6c0,0.8,0,1.5,0,2.3c-0.1,0.8,0.1,1.5,0.7,2.1c1.2,1.2,2.3,2.4,3.9,2.9c0.3,0.1,0.7,0.1,1.1,0.1
		c1.7,0,3.5,0,5.2,0c0,1.1,0,2.3,0,3.4c-1.1,0-2.2-0.1-3.4,0c-1.9,0.1-3.1-1-4.3-2.2c-0.6-0.7-1.3-1.3-2-2c-0.4-0.6-0.8-1.3-1.3-1.8
		c-1.3-1.1-0.8-2.6-0.9-4C68.9,67.8,69.2,67.5,69.8,67.6z"/>
	<path class="st11" d="M80.8,70.4c-2.5,0-5,0-7.5,0c-1.9,0-2.7-1-2.2-2.8c0.1-0.5,0.1-0.9,0.1-1.4c-0.1-1.1,0.6-2,1.1-2.9
		c0.3-0.5,0.4-1.7-0.1-2.3c0.2-0.2,0.3-0.3,0.5-0.5c0.2,0.4,0.4,0.8,0.5,1.2c-0.1,0.6-0.1,1.2-0.2,1.8c-0.2,0.7-0.5,1.4-0.6,2.1
		c-0.1,1.7,0.5,2.3,2.2,2.3c2.1,0,4.2,0,6.2,0C80.8,68.7,80.8,69.6,80.8,70.4z"/>
	<path class="st10" d="M73.2,61.6c-0.2-0.4-0.4-0.8-0.5-1.2c0-0.2-0.1-0.3-0.1-0.5c-0.2-0.3-0.4-0.6-0.7-0.8c1.2,0,1.7,0.9,2.3,1.8
		c0.7,1.1,1.4,1.9,2.9,1.8c1.2-0.1,2.5,0,3.8,0c0,0.7,0,1.5,0,2.2c0,0.2,0,0.5,0,0.7c-1.9,0-3.8,0-5.7,0c-0.4,0-1-0.3-1.1-0.5
		c-0.2-0.7-0.3-1.4-0.2-2.1C73.8,62.3,73.8,61.9,73.2,61.6z"/>
	<path class="st49" d="M73.2,61.6c0.6,0.2,0.6,0.7,0.5,1.2c0,0.7,0,1.4,0.2,2.1c0.1,0.3,0.7,0.5,1.1,0.5c1.9,0.1,3.8,0,5.7,0
		c0,0.8,0,1.6,0,2.4c-2.1,0-4.2,0-6.2,0c-1.7,0-2.3-0.6-2.2-2.3c0.1-0.7,0.4-1.4,0.6-2.1C73.1,62.9,73.1,62.2,73.2,61.6z"/>
	<path class="st50" d="M71.2,74.1c0.7,0.7,1.3,1.3,2,2c1.2,1.2,2.4,2.3,4.3,2.2c1.1-0.1,2.2,0,3.4,0c0,0.8,0,1.6,0,2.4
		c-1.6,0-3.1,0-4.7,0c-1.4,0-1.7-0.3-1.9-1.6c-0.1-0.6-0.2-1.2-1-1.3c-0.4-0.6-0.7-1.3-1-1.9C71.8,75.4,71.5,74.8,71.2,74.1z"/>
	<path class="st42" d="M72.5,59.9c0,0.2,0.1,0.3,0.1,0.5c-0.2,0.2-0.3,0.3-0.5,0.5c-0.4,0.7-0.8,1.4-1.2,2c-1.2,2-2.4,4.1-3.5,6.2
		c-0.2,0.3-0.1,0.9,0.1,1.2c1.5,2.7,3.1,5.4,4.7,8.1c0.1,0.2,0.2,0.5,0.2,0.8c-1,0-1.9,0-2.9-0.1c-0.4,0-0.7-0.3-1.1-0.5
		c-0.5-0.8-0.9-1.7-1.4-2.5c0-0.1-0.1-0.1-0.1-0.2c-0.3-0.5-0.6-1-0.9-1.5c-0.4-0.7-0.8-1.4-1.2-2.3c-0.3,0.7-0.6,1.1-0.8,1.6
		c-0.4,0.7-0.8,1.4-1.2,2c-0.6,0.9-1.1,1.9-1.7,2.8C61,78.7,60.8,79,60.6,79c-1.2,0-2.4,0-3.7,0c0.8-1.3,1.5-2.5,2.1-3.6
		c0.7-1.2,1.4-2.4,2-3.6c0.1-0.2,0.2-0.3,0.3-0.5c1.3-2.2,1.3-1.4,0-3.5c-0.2-0.3-0.3-0.6-0.5-0.9c-1-1.8-2.1-3.6-3.1-5.3
		c-0.2-0.4-0.5-0.8-0.7-1.2s-0.1-0.6,0.4-0.5c0.8,0,1.7,0,2.5,0c0.4,0,0.7,0.3,1.1,0.5c0.5,1,1.1,1.9,1.6,2.9
		c0.4,0.7,0.8,1.5,1.2,2.2c0.2,0.5,0.5,0.9,0.8,1.6c0.3-0.6,0.6-1.1,0.8-1.5c0.4-0.7,0.8-1.3,1.1-2c0.6-1,1.1-2,1.7-2.9
		c0.2-0.3,0.6-0.6,1-0.6c0.8-0.1,1.6,0,2.3-0.1C72.1,59.9,72.3,59.9,72.5,59.9z"/>
	<path class="st51" d="M61.2,72c-0.7,1.2-1.4,2.4-2,3.6c-0.7,1.2-1.4,2.3-2.1,3.6c1.3,0,2.5,0,3.7,0c0.2,0,0.4-0.3,0.5-0.5
		c0.6-0.9,1.1-1.9,1.7-2.8c0.2,0.1,0.3,0.1,0.5,0.2l0,0c-0.1,0.5-0.4,0.9-0.4,1.4c-0.1,1.2-1.2,1.8-1.6,2.8c-0.8,0-1.7,0-2.5,0
		c-0.6,0-1.2,0.1-1.8-0.5c-0.2-0.2-1-0.2-1.2,0c-0.6,0.8-1.4,0.5-2.2,0.5s-1.5,0.1-2-0.7c-0.1-0.2-0.2-0.4-0.3-0.7
		c0-0.2,0-0.5,0-0.7c0.2,0,0.4,0,0.7,0c0.1,0.9,0.7,1.1,1.5,1c0.5,0,0.9,0,1.4,0c0.6,0,0.9-0.2,0.7-0.8c-0.3-1.1-0.6-2.3-0.9-3.4
		c0.6,0,0.8,0.2,0.8,0.8c0,0.8,0.4,1.1,1.3,1c1-0.1,1.6-0.9,1.6-2.2c0.2-0.1,0.5-0.1,0.5-0.2c0.3-0.6,0.6-1.3,0.8-2
		c0.2-0.1,0.4-0.3,0.7-0.3C60.8,72,61,72,61.2,72z"/>
	<path class="st52" d="M68.5,78.7c0.4,0.2,0.7,0.5,1.1,0.5c1,0.1,1.9,0,2.9,0.1c-1,1.4-2.5,1-3.8,0.9c-0.4,0-0.7-0.8-1.1-1.3
		C67.9,78.8,68.2,78.7,68.5,78.7z"/>
	<path class="st8" d="M71,63c0.4-0.7,0.8-1.4,1.2-2c0.4,0.6,0.4,1.8,0.1,2.3c-0.5,0.9-1.2,1.8-1.1,2.9c-0.2,0-0.5,0-0.7,0
		c0-0.6-0.1-1.2,0.5-1.7C71.2,64.2,71,63.5,71,63z"/>
	<path class="st51" d="M67,76c0,0.1,0.1,0.1,0.1,0.2c-0.2,0.3-0.3,0.6-0.5,0.8c-0.8-1.3-2-1-3.2-1l0,0c0.3-1,0.8-1.3,2.2-1.4
		C65.8,75.4,66.2,75.8,67,76z"/>
	<path class="st53" d="M66.6,77c0.2-0.3,0.3-0.6,0.5-0.8c0.5,0.8,0.9,1.7,1.4,2.5c-0.3,0.1-0.6,0.1-0.9,0.2l0,0
		c-0.1-0.5,0.4-1.4-0.7-1.5C66.8,77.2,66.7,77.1,66.6,77z"/>
	<path class="st54" d="M67,77.4c1.1,0.1,0.5,1,0.7,1.5C66.5,78.8,67.1,77.9,67,77.4z"/>
	<path class="st8" d="M70.5,66.2c-0.1,0.5,0.3,1.3-0.7,1.4C69.9,67,69.5,66.3,70.5,66.2z"/>
	<path class="st55" d="M47.4,80.6c-0.2,0-0.3,0-0.5,0c-1.6,0-1.8-0.2-1.2-1.8c0.5-1.3,1.9-2.1,3-1.3c0.6,0.4,0.9,1.5,0.9,2.3
		c0.1,0.8-0.8,0.8-1.4,0.8C47.9,80.6,47.7,80.6,47.4,80.6z"/>
	<path class="st33" d="M42.3,68.6c-0.2,0-0.4,0-0.6,0c0.1,0.9-0.3,1.8-0.7,2.5c-0.2,0.2-0.5,0.3-0.6,0.5c-0.3,0.6-0.5,0.5-0.9,0.1
		c-0.9-0.9-0.6-2.1-0.7-3.1c0-0.4,0-0.8,0-1.2l0,0c0.2,0.1,0.4,0.1,0.7,0.2c0,0.3,0,0.6,0,0.9c0.1,0.3,0.2,0.6,0.4,0.8
		c0.3-0.2,0.9-0.2,1-0.5c0.4-0.8,0.6-1.7,0.8-2.6c0-0.1,0-0.2,0-0.3c0.5,0,0.7-0.3,0.7-0.7c0-0.4,0-0.8,0-1.1
		c0.3-0.7,0.6-1.5,0.9-2.2c0.2-0.4,0.3-0.9,0.4-1.3l0,0c0.2,0,0.4,0,0.6,0c-0.1,0.5-0.2,1-0.3,1.5C43.4,64.1,42.8,66.3,42.3,68.6z"
		/>
	<path class="st33" d="M36.7,62.8c0.2-0.1,0.5-0.1,0.7-0.2c0.3,0.9,0.3,1.9,0.9,2.6c0.6,0.7,0.4,1.4,0.5,2.1l0,0c-0.2,0-0.4,0-0.7,0
		C38,67.1,38,67,37.9,66.8c-0.3-1.1-0.6-2.2-0.9-3.3C36.9,63.3,36.8,63.1,36.7,62.8z"/>
	<path class="st42" d="M42.3,68.6c0.6-2.2,1.1-4.4,1.7-6.6c0.1-0.5,0.2-1,0.3-1.5c0.1-0.2,0.1-0.3,0.2-0.5c2.1,0,4.2,0,6.2,0
		c0.2,0.1,0.4,0.1,0.6,0.2c0,0.1,0.1,0.2,0.1,0.4c0.3,1.2,0.6,2.4,0.9,3.5c0.7,3,1.5,6,2.2,9c0.1,0.6,0.2,1.1,0.4,1.7
		c0,0.1,0,0.2,0,0.4c0.3,1.1,0.6,2.3,0.9,3.4c0.2,0.6,0,0.9-0.7,0.8c-0.5,0-1,0-1.4,0c-0.8,0.1-1.4-0.1-1.5-1
		c-0.2-0.9-0.5-1.8-0.7-2.7c-0.5-0.1-0.9-0.2-1.4-0.2c-1.6,0-3.2,0.1-4.9,0.1c-0.9-0.1-1.3,0.3-1.4,1.2c0,0.1-0.1,0.3-0.1,0.4
		c-0.2,0.7-0.5,1.5-0.7,2.2c-1.1,0-2.1,0-3.3,0c0.3-1.1,0.6-2.1,0.8-3.1c0.3-0.3,0.7-0.6,0.8-0.9c0.3-0.9,0.5-1.8,0.7-2.8
		c0.1-0.5-0.1-0.7-0.5-0.7C41.8,70.7,42,69.6,42.3,68.6z M50.2,70.4c-0.2-1-0.4-1.9-0.7-2.9c-0.1-0.3-0.2-0.6-0.3-0.9
		c0-0.3-0.1-0.7-0.1-1c-0.2-0.9-0.4-1.8-0.6-2.7c-0.4-0.2-0.8-0.4-1.1-0.5c-0.2-0.1-0.4,0.1-0.7,0.1c0.1,0.2,0.2,0.4,0.3,0.7
		c-0.1,0.1-0.1,0.2-0.2,0.3c-0.8,0.5-1,1.2-0.3,1.7c0,0.2-0.1,0.4-0.1,0.5c-0.2,1.1-0.5,2.1-0.7,3.2c-0.1,0.5-0.2,0.9-0.3,1.4
		c-0.9,0.6-1.1,1.3-0.5,1.8c1.3,0,2.6,0,3.9,0c0.2,0,0.5,0,0.7,0c0.4,0,0.7,0,1.2,0C50.5,71.6,50.3,71,50.2,70.4z"/>
	<path class="st28" d="M41.5,71.8c0.5,0,0.6,0.3,0.5,0.7c-0.2,0.9-0.4,1.9-0.7,2.8c-0.1,0.4-0.5,0.6-0.8,0.9
		C40.8,74.7,41.1,73.2,41.5,71.8z"/>
	<path class="st56" d="M24.7,79.2c1.7,0,3.5,0,5.2,0c0.9,0,1.8-0.1,2.7-0.2c0,0.2,0,0.4,0,0.5c-0.1,0-0.1,0-0.2,0
		c-2.3,0-4.5,0-6.8,0C25.4,79.5,25,79.3,24.7,79.2z"/>
	<path class="st57" d="M37.7,71.6c0-1.5,0-3.1,0-4.6C37.7,68.6,37.7,70.1,37.7,71.6z"/>
	<path class="st58" d="M43.7,77c0-0.1,0.1-0.3,0.1-0.4c0-0.9,0.5-1.3,1.4-1.2c0.4,0,0.8,0,1.2,0.1c0,0.2,0,0.3,0,0.5
		c-0.2,0-0.3,0-0.5,0c-1.3,0-1.3,0-1.4,1.4C44.2,77.2,44,77.1,43.7,77z"/>
	<path class="st38" d="M46.3,76c0-0.2,0-0.3,0-0.5c1,0,2,0,3.1,0c0,0.2,0,0.3,0,0.5l0,0C48.4,76,47.4,76,46.3,76z"/>
	<path class="st59" d="M49.4,76c0-0.2,0-0.3,0-0.5c0.7,0,1.3,0,2,0c0.2,0.9,0.5,1.8,0.7,2.7c-0.2,0-0.4,0-0.7,0
		C51.4,76.5,51,76,49.4,76z"/>
	<path class="st60" d="M23.8,42c0.7,0.9,0.4,1.9,0.1,2.9c-0.6,1.7-2.7,3-4.4,2.9c-0.4,0-0.8-0.3-1.1-0.4c1.4-0.4,2.7-1,3.7-2.1
		C22.6,44.2,23.2,43.1,23.8,42z"/>
	<path class="st49" d="M51.4,60.5c0-0.1-0.1-0.2-0.1-0.4c0-0.1,0.1-0.2,0.1-0.3c0.5,0.4,1.1,0.8,1.6,1.2c0.5,0.5,0.9,1.2,1.4,1.7
		s0.9,0.3,1.1-0.3c0.3-0.7,0.5-1.5,0.8-2.2c0.1-0.1,0.3-0.2,0.4-0.3c0.2-0.2,0.5-0.4,0.7-0.7c0.9,0,1.8,0,2.7,0c0.3,0,0.6,0,0.8,0.2
		c0.9,0.7,1.8,1.3,2.6,2c0.9,0.8,2,0.6,2.7-0.4c0.3-0.5,0.8-0.8,1.2-1.2c0.2-0.2,0.4-0.4,0.6-0.6c1.2,0,2.5,0,3.7,0
		c0.2,0.3,0.4,0.6,0.7,0.8c-0.2,0-0.5,0-0.7,0c-0.9,0-1.7-0.1-2.6-0.1c-0.2,0-0.6,0-0.7,0.1c-0.8,0.8-1.6,1.6-2.2,2.5
		c-0.4,0.6-0.8,0.9-1.5,0.9c-0.4,0-0.9,0-1.3,0l0,0c0.2-0.9-0.3-1.5-0.9-1.9c-0.4-0.3-0.5-1.2-1.3-1c-0.4-0.2-0.7-0.4-1.1-0.5
		c-0.8-0.1-1.7,0-2.5,0c-0.4,0-0.6,0.1-0.4,0.5c-0.1,1.2-0.6,2.5,0.5,3.6c0.1,0.1,0.1,0.4,0.1,0.6c0.1,1,0.2,2,0.3,3
		c0,0.5-0.1,1-0.7,1c-0.7,0-1.4-0.1-1.9-0.7c-1.2-1.7-1.8-3.6-2.7-5.4c-0.3-0.7-0.9-1.2-1-1.9C51.8,60.5,51.6,60.5,51.4,60.5z"/>
	<path class="st41" d="M68.1,59.1c-0.2,0.2-0.4,0.4-0.6,0.6c-0.4,0.4-0.9,0.7-1.2,1.2c-0.7,1-1.8,1.2-2.7,0.4
		c-0.8-0.7-1.7-1.4-2.6-2c-0.2-0.1-0.5-0.2-0.8-0.2c-0.9,0-1.8,0-2.7,0c-0.1,0-0.2,0-0.3,0c1-0.7,2-0.8,3.2-0.5
		c0.6,0.2,1.2,0.3,1.7,0.5c0.2,0.2,0.4,0.4,0.6,0.5c1.2,0.9,2.3,1.2,3.6,0.2C66.8,59.4,67.5,59.3,68.1,59.1z"/>
	<path class="st61" d="M51.4,59.8c0,0.1-0.1,0.2-0.1,0.3c-0.2-0.1-0.4-0.1-0.6-0.2c-0.3,0-0.6-0.1-0.9-0.1c-1.3,0-2.7,0-4,0
		c0.1-0.2,0.1-0.4,0.2-0.7c0.8,0,1.6,0,2.4,0C49.5,59,50.5,59.1,51.4,59.8z"/>
	<path class="st11" d="M46,59.1c-0.1,0.2-0.1,0.4-0.2,0.7c-0.5,0.1-0.9,0.1-1.4,0.2c-0.1,0.2-0.1,0.3-0.2,0.5c-0.2,0-0.4,0-0.6,0
		c0-0.2,0-0.5,0-0.7c0.2,0,0.5,0,0.5-0.1C44.7,59,45.4,59.1,46,59.1z"/>
	<path class="st41" d="M38.1,60.5c0.5,0.2,1,0.5,1.5,0.4c0.7-0.1,1.4-0.5,2-0.7C41,61.4,39.3,61.5,38.1,60.5z"/>
	<path class="st37" d="M33.8,73.1c-0.2,1.4-1,2.4-2.4,2.7c-1.3,0.3-2.6,0.3-3.9,0.4c0-0.2,0-0.6-0.1-0.7c-0.9-0.7-0.5-1.6-0.6-2.5
		c0-2.7,0-5.3,0-8c0-0.5,0-1,0.7-1c0,0.2,0,0.5,0,0.7c0,1.6,0,3.3,0,4.9c0,1.2,0,2.5,0,3.7c0,1.4,0.6,2.1,2,2.1c0.5,0,1,0,1.4,0
		c0.5,0,0.8-0.2,0.8-0.7c0.7-0.2,1.3-0.7,1.4-1.5C33.4,73.1,33.6,73.1,33.8,73.1z"/>
	<path class="st21" d="M33.8,73.1c-0.2,0-0.5,0-0.7,0c0-0.2,0-0.5,0-0.7c0-0.1,0-0.2,0-0.3c0.5,0,0.7-0.3,0.7-0.7c0-1.5,0-2.9,0-4.4
		c0-0.5-0.2-0.8-0.7-0.7c0-0.5-0.2-0.7-0.7-0.7c-0.2-0.3-0.5-0.6-0.7-0.8c0-0.5-0.3-0.7-0.8-0.7c-1.1,0.1-2.3-0.4-3.2,0.6h-0.2
		c0-0.2,0-0.5,0-0.7c0.2-0.3,0.4-0.5,0.7-0.8c0.6,0,1.3,0,1.9,0c2.4,0,3.8,1.1,3.9,3.5c0.2,2-0.1,4-0.1,6C34,72.8,33.9,73,33.8,73.1
		z"/>
	<path class="st62" d="M28.2,63.2c-0.2,0.3-0.4,0.5-0.7,0.8c-0.7,0-0.7,0.5-0.7,1c0,2.7,0,5.3,0,8c-0.2,0-0.3,0-0.5,0
		c0-3,0-6.1,0-9.1c0-0.5,0.1-0.7,0.7-0.7C27.5,63.2,27.9,63.2,28.2,63.2z"/>
	<path class="st63" d="M26.4,73c0.2,0,0.3,0,0.5,0c0.1,0.8-0.3,1.8,0.6,2.5c0.1,0.1,0.1,0.5,0.1,0.7c-0.4,0-0.7,0-1.1,0
		C26.4,75,26.4,74,26.4,73z"/>
	<path class="st44" d="M38.7,67.4c-0.1-0.7,0.1-1.4-0.5-2.1c-0.5-0.7-0.6-1.7-0.9-2.6c0.2,0,0.5,0,0.7,0c0.3,0.8,0.6,1.6,0.9,2.4
		c0.1,0.3,0.3,0.5,0.5,0.7c0.4,0.5,1,0.5,1.4,0c0.2-0.2,0.4-0.3,0.7-0.5c0,0.2,0,0.3,0,0.5c0,0.1,0,0.2,0,0.3
		c-0.2,0.1-0.6,0.3-0.6,0.4c-0.1,1.2-0.9,0.9-1.6,1C39.2,67.5,39,67.4,38.7,67.4z"/>
	<path class="st64" d="M41.6,65.4c-0.2,0.2-0.5,0.3-0.7,0.5c-0.4,0.5-1,0.5-1.4,0c-0.2-0.2-0.4-0.5-0.5-0.7
		c-0.3-0.8-0.6-1.6-0.9-2.4c0.4,0.5,0.9,0.9,1.3,1.4c0.6,0.8,1.1,0.8,1.7,0c0.2-0.3,0.4-0.5,0.6-0.7c0,0.2,0,0.5,0,0.7
		C41.6,64.5,41.6,64.9,41.6,65.4z"/>
	<path class="st11" d="M41.6,64c0-0.2,0-0.5,0-0.7c0.5-0.9,1-1.8,1.6-2.7c0.1-0.1,0.3-0.1,0.5-0.1c-0.1,0.5-0.3,0.9-0.4,1.3
		c-0.3,0.7-0.6,1.5-0.9,2.2C42.1,64,41.8,64,41.6,64z"/>
	<path class="st7" d="M61.2,72c-0.2,0-0.5,0.1-0.7,0.2s-0.5,0.2-0.7,0.3c0.1-0.3,0.2-0.5,0.3-0.8c0.1-0.2,0.3-0.4,0.3-0.6
		c0-0.9,0.1-1.9,0-2.8c0-0.2-0.4-0.4-0.6-0.7l0,0c-0.3-0.9-0.5-1.8-0.8-2.7c0-0.1-0.3-0.1-0.5-0.2c-0.1-0.4,0-1-0.2-1.2
		c-0.6-0.6-0.5-1.2-0.3-1.8c1,1.8,2.1,3.6,3.1,5.3c0.2,0.3,0.3,0.6,0.5,0.9c0,1.2,0,2.4,0,3.5C61.4,71.6,61.3,71.8,61.2,72z"/>
	<path class="st65" d="M63.4,63.3c0.4,0,0.9,0,1.3,0c0.7,0,1.1-0.3,1.5-0.9c0.6-0.9,1.5-1.7,2.2-2.5c0.1-0.1,0.5-0.1,0.7-0.1
		c0.9,0,1.7,0.1,2.6,0.1c-0.8,0-1.6,0-2.3,0.1c-0.4,0.1-0.8,0.3-1,0.6c-0.6,0.9-1.1,1.9-1.7,2.9c-0.3,0.2-0.7,0.3-1,0.6
		C64.8,65,63.8,64.7,63.4,63.3z"/>
	<path class="st66" d="M63.4,63.3c0.4,1.4,1.4,1.7,2.4,0.8c0.3-0.3,0.7-0.4,1-0.6c-0.4,0.7-0.8,1.3-1.1,2c-0.5,0-1.1,0-1.6,0
		c-0.4-0.7-0.8-1.5-1.2-2.2C63,63.3,63.2,63.3,63.4,63.3L63.4,63.3z"/>
	<path class="st8" d="M58,61.7c-0.2,0.7-0.3,1.3,0.3,1.8c0.2,0.2,0.1,0.8,0.2,1.2c-0.2,0-0.5,0-0.7,0c0-0.2,0-0.5-0.1-0.6
		c-1.1-1.1-0.5-2.4-0.5-3.6C57.5,60.9,57.7,61.3,58,61.7z"/>
	<path class="st54" d="M61.5,71.4c0-1.2,0-2.4,0-3.5C62.9,70.1,62.8,69.3,61.5,71.4z"/>
	<path class="st65" d="M63.4,63.3c-0.2,0-0.4,0-0.6,0c-0.5-1-1.1-1.9-1.6-2.9c0.8-0.2,0.9,0.6,1.3,1C63.1,61.9,63.6,62.5,63.4,63.3z
		"/>
	<path class="st53" d="M65.6,74.7c-1.4,0-1.9,0.3-2.2,1.4c-0.2-0.1-0.3-0.1-0.5-0.2c0.4-0.7,0.8-1.4,1.2-2c0.3,0.1,0.6,0.1,0.9,0.2
		C65.2,74.1,65.4,74.4,65.6,74.7z"/>
	<path class="st67" d="M65.6,74.7c-0.2-0.2-0.4-0.5-0.7-0.7c-0.3-0.1-0.6-0.2-0.9-0.2c0.2-0.5,0.5-0.9,0.8-1.6
		c0.5,0.9,0.9,1.6,1.2,2.3C65.9,74.5,65.8,74.6,65.6,74.7z"/>
	<path class="st54" d="M64.1,65.5c0.5,0,1.1,0,1.6,0c-0.2,0.5-0.5,0.9-0.8,1.5C64.6,66.4,64.3,66,64.1,65.5z"/>
	<path class="st53" d="M65.6,74.7c0.2-0.1,0.3-0.1,0.5-0.2c0.3,0.5,0.6,1,0.9,1.5C66.2,75.8,65.8,75.4,65.6,74.7z"/>
	<path class="st8" d="M59.9,67.6c0.2,0.2,0.6,0.4,0.6,0.7c0.1,0.9,0,1.8,0,2.8c0,0.2-0.2,0.4-0.3,0.6c-0.1,0.3-0.2,0.5-0.3,0.8
		c-0.3,0.7-0.5,1.3-0.8,2c-0.1,0.1-0.3,0.1-0.5,0.2c-0.4,0.2-0.8,0.4-1.2,0.4c-0.3,0.1-0.8,0-0.9-0.1c-0.3-0.6-0.9-1.1-0.8-1.9
		c0-0.2-0.4-0.4-0.6-0.6c0-0.6,0-1.2,0-1.9c0.2,0.3,0.5,0.5,0.7,0.8c0.7,1.5,1.4,2.2,2.9,1c0.9-0.8,1.5-1.6,1.4-2.9
		C59.8,68.8,59.9,68.2,59.9,67.6z"/>
	<path class="st68" d="M55,72.5c0.2,0.2,0.7,0.4,0.6,0.6c-0.1,0.8,0.5,1.3,0.8,1.9c0.1,0.2,0.6,0.2,0.9,0.1c0.4-0.1,0.8-0.3,1.2-0.4
		c0,1.2-0.6,2.1-1.6,2.2c-0.8,0.1-1.2-0.2-1.3-1c0-0.6-0.3-0.8-0.8-0.8c0-0.1,0-0.2,0-0.4C54.9,73.9,54.9,73.2,55,72.5L55,72.5z"/>
	<path class="st69" d="M39.4,67.6c0.7,0,1.6,0.2,1.6-1c0-0.1,0.4-0.3,0.6-0.4c-0.3,0.9-0.5,1.8-0.8,2.6c-0.1,0.3-0.7,0.3-1,0.5
		c-0.1-0.3-0.3-0.5-0.4-0.8C39.4,68.2,39.4,67.9,39.4,67.6z"/>
	<path class="st69" d="M41.6,64c0.2,0,0.4,0,0.7,0c0,0.4,0,0.8,0,1.1c0,0.5-0.2,0.7-0.7,0.7c0-0.2,0-0.3,0-0.5
		C41.6,64.9,41.6,64.5,41.6,64z"/>
	<path class="st70" d="M59.9,67.6c0,0.6-0.1,1.2,0,1.9c0.2,1.3-0.5,2.2-1.4,2.9c-1.4,1.2-2.2,0.5-2.9-1c-0.1-0.3-0.4-0.5-0.7-0.8
		c-0.3-0.8-0.6-1.7-0.8-2.5L54,68c-0.1-0.3-0.3-0.7-0.4-1c-0.3-0.9-0.5-1.8-0.8-2.7c0-0.1-0.4-0.2-0.6-0.3c-0.3-1.2-0.6-2.4-0.9-3.5
		c0.2,0,0.4,0,0.5,0.1c0.2,0.7,0.7,1.3,1,1.9c0.8,1.8,1.4,3.8,2.7,5.4c0.5,0.7,1.2,0.8,1.9,0.7c0.6,0,0.8-0.5,0.7-1
		c-0.1-1-0.2-2-0.3-3c0.2,0,0.5,0,0.7,0c-0.3,1,0.6,1.7,0.8,2.6C59.3,67.4,59.7,67.5,59.9,67.6L59.9,67.6z"/>
	<path class="st68" d="M52.3,64c0.2,0.1,0.5,0.1,0.6,0.3c0.3,0.9,0.5,1.8,0.8,2.7c0.1,0.4,0.3,0.7,0.4,1l0.1,0.1
		c0.3,0.8,0.6,1.7,0.8,2.5c0,0.6,0,1.2,0,1.9l0,0c-0.2,0.2-0.3,0.3-0.5,0.5C53.7,70,53,67,52.3,64z"/>
	<path class="st71" d="M45.7,69.1c0.2-1.1,0.5-2.1,0.7-3.2c0.6,0.7,0.8-0.3,0.9-0.3c0.6,0.4,1,0.7,1.4,0.9c0,0.1,0,0.1,0,0.2
		c0,0.3,0,0.6,0,0.8c-0.3-0.1-0.6-0.1-0.7-0.3c-0.4-0.5-0.7-0.4-1,0c-0.2,0.3-0.4,0.7-0.4,1c-0.1,0.9,0,1.8,0,2.8
		c-0.5,0-0.7-0.3-0.7-0.7C45.8,69.9,45.7,69.5,45.7,69.1z"/>
	<path class="st34" d="M45.7,69.1c0.1,0.4,0.2,0.9,0.2,1.3c0,0.5,0.2,0.7,0.7,0.7l0,0c0.1,1.1,1,0.5,1.5,0.7c0.2,0,0.5,0,0.7,0
		c0,0.2,0,0.3,0,0.5c-1.3,0-2.6,0-3.9,0c0.2-0.6,0.3-1.2,0.5-1.8C45.4,70,45.5,69.5,45.7,69.1z"/>
	<path class="st72" d="M48.7,66.7c0-0.1,0-0.1,0-0.2c0-2,0.2-1.8-1.8-1.9c-0.1,0-0.1,0-0.2,0c0-0.3,0.1-0.7,0.1-1
		c0.1-0.1,0.1-0.2,0.2-0.3c0.4-0.7,1-0.3,1.5-0.3c0.2,0.9,0.4,1.8,0.6,2.7c0.1,0.3,0.1,0.7,0.1,1C49.1,66.7,48.9,66.7,48.7,66.7z"/>
	<path class="st73" d="M48.7,66.7c0.2,0,0.4,0,0.5,0c0.1,0.3,0.2,0.6,0.3,0.9c0,0.9-0.1,1.8-0.1,2.7c0,0.6-0.1,1.2-0.7,1.5
		c-0.2,0-0.5,0-0.7,0c0.2-0.2,0.3-0.4,0.5-0.7c0.1-1.2,0.1-2.4,0.2-3.5C48.7,67.3,48.7,67,48.7,66.7z"/>
	<path class="st73" d="M46.7,64.7c0.1,0,0.1,0,0.2,0c2,0,1.8-0.2,1.8,1.9c-0.4-0.3-0.8-0.5-1.4-0.9c-0.2,0-0.4,1-0.9,0.3
		c0-0.2,0.1-0.4,0.1-0.5C46.6,65.1,46.6,64.9,46.7,64.7z"/>
	<path class="st74" d="M48.7,71.8c0.6-0.3,0.7-0.8,0.7-1.5c0-0.9,0.1-1.8,0.1-2.7c0.2,1,0.4,1.9,0.7,2.9c-0.3,0.6-0.5,1.2-0.8,1.8
		c-0.2,0-0.5,0-0.7,0C48.7,72.1,48.7,71.9,48.7,71.8z"/>
	<path class="st70" d="M44.5,60c0.5-0.1,0.9-0.1,1.4-0.2c1.3,0,2.7,0,4,0c0.3,0,0.6,0.1,0.9,0.1C48.6,59.9,46.6,59.9,44.5,60z"/>
	<path class="st24" d="M51.4,75.5c-0.7,0-1.3,0-2,0c-1,0-2,0-3.1,0c-0.4,0-0.8,0-1.2-0.1c1.6,0,3.2-0.1,4.9-0.1
		C50.5,75.3,50.9,75.5,51.4,75.5z"/>
	<path class="st56" d="M49.4,72.3c0.3-0.6,0.5-1.2,0.8-1.8c0.1,0.6,0.2,1.1,0.4,1.8C50.1,72.3,49.8,72.3,49.4,72.3z"/>
	<path class="st28" d="M46.7,64.7c-0.1,0.2-0.2,0.5-0.2,0.7c-0.6-0.5-0.5-1.2,0.3-1.7C46.8,64,46.7,64.3,46.7,64.7z"/>
	<path class="st28" d="M45.3,70.4c-0.2,0.6-0.3,1.2-0.5,1.8C44.2,71.7,44.4,71,45.3,70.4z"/>
	<path class="st51" d="M54.5,73c0.2-0.2,0.3-0.3,0.5-0.5c0,0.7-0.1,1.5-0.1,2.2C54.7,74.1,54.6,73.5,54.5,73z"/>
	<path class="st28" d="M48.5,63c-0.5,0-1.1-0.4-1.5,0.3c-0.1-0.2-0.2-0.4-0.3-0.7c0.2,0,0.5-0.2,0.7-0.1
		C47.8,62.7,48.2,62.9,48.5,63z"/>
	<path class="st75" d="M33.2,72.1c0,0.1,0,0.2,0,0.3c-0.2,0.2-0.5,0.4-0.7,0.6c-0.3,0.3-0.5,0.6-0.7,0.9c-0.2,0.2-0.4,0.5-0.7,0.7
		c-0.2,0-0.5,0-0.7,0c-1.4,0.2-2.4-0.8-2.2-2.2c0.1-0.7,0-1.4,0-2.1c0-0.5-0.2-0.8-0.7-0.8c0-1.6,0-3.3,0-4.9c0.1,0,0.2,0,0.2,0
		c0.9-1,2.1-0.6,3.2-0.6c0.5,0,0.8,0.2,0.8,0.7c-0.5,0-1,0-1.5,0c-1.4,0-2,0.7-2,2c0,0.8-0.1,1.5,0.5,2.1c0.1,0.1,0.2,0.4,0.1,0.6
		c0,0.9,0.1,1.8,0.7,2.6c0.4,0.6,0.9,0.9,1.4,0.4c0.8-0.6,1.5-1.3,1.4-2.5c0-0.7,0-1.3,0.7-1.7C33.2,69.5,33.2,70.8,33.2,72.1z"/>
	<path class="st66" d="M27.6,69.6c0.5,0,0.7,0.3,0.7,0.8c0,0.7,0.1,1.4,0,2.1c-0.2,1.5,0.8,2.5,2.2,2.2c0.2,0,0.4,0,0.7,0
		c0.2,0,0.5,0,0.7,0c0,0.5-0.3,0.7-0.8,0.7s-1,0-1.4,0c-1.4,0-2-0.6-2-2.1C27.6,72,27.6,70.8,27.6,69.6z"/>
	<path class="st33" d="M31.8,74.7c-0.2,0-0.5,0-0.7,0c0.2-0.2,0.5-0.4,0.7-0.7c0.2-0.3,0.4-0.6,0.7-0.9c0.2-0.2,0.4-0.4,0.7-0.6
		c0,0.2,0,0.5,0,0.7C33.1,74,32.6,74.4,31.8,74.7z"/>
	<path class="st61" d="M33.2,68.2c-0.6,0.4-0.7,1-0.7,1.7c0.1,1.2-0.6,1.9-1.4,2.5c-0.6,0.4-1,0.2-1.4-0.4c-0.6-0.8-0.7-1.7-0.7-2.6
		c0-0.2,0-0.4-0.1-0.6c-0.6-0.6-0.5-1.4-0.5-2.1c0-1.4,0.7-2,2-2c0.5,0,1,0,1.5,0c0.2,0.3,0.5,0.6,0.7,0.8c0,0.4,0,0.8,0,1.2
		c0,0.5,0.1,0.9,0.7,1C33.2,67.9,33.2,68.1,33.2,68.2z"/>
	<path class="st33" d="M33.2,68.2c0-0.2,0-0.3,0-0.5c0-0.5,0-1,0-1.5c0.5,0,0.7,0.3,0.7,0.7c0,1.5,0,2.9,0,4.4
		c0,0.5-0.2,0.8-0.7,0.7C33.2,70.8,33.2,69.5,33.2,68.2z"/>
	<path class="st75" d="M33.2,66.2c0,0.5,0,1,0,1.5c-0.5-0.1-0.7-0.5-0.7-1c0-0.4,0-0.8,0-1.2C33,65.5,33.2,65.7,33.2,66.2z"/>
	<path class="st8" d="M59.9,67.6c-0.2-0.1-0.5-0.1-0.6-0.3c-0.2-0.9-1.1-1.6-0.8-2.6c0.2,0.1,0.5,0.1,0.5,0.2
		C59.3,65.8,59.6,66.7,59.9,67.6z"/>
	<path class="st55" d="M48.7,67.6c-0.1,1.2-0.1,2.4-0.2,3.5c-0.7,0-1.4,0-2,0l0,0c0-0.9,0-1.8,0-2.8c0-0.4,0.2-0.7,0.4-1
		c0.3-0.4,0.6-0.6,1,0C48.1,67.5,48.5,67.5,48.7,67.6z"/>
	<path class="st71" d="M46.5,71.1c0.7,0,1.4,0,2,0c-0.2,0.2-0.3,0.4-0.5,0.7C47.5,71.6,46.6,72.2,46.5,71.1z"/>
</g>
<g>
	<path class="st76" d="M100.5,57.9c0.1-2,0.2-3.6,0.2-4.8c0.1-1.8,0.1-4.1,0.2-7c0-2.2,0.1-3.7,0.1-4.7v-1.5c0.6,0,1.1,0,1.5,0
		c0.4,0,0.9,0,1.6-0.1c0.7,0,1.3-0.1,1.8-0.1c0.7,0,1.2,0.1,1.7,0.2c0.5,0.1,1,0.4,1.4,0.9c0.4,0.4,0.8,1,1.1,1.7s0.5,1.5,0.7,2.5
		c0.2,1,0.2,1.9,0.2,2.9c0,1-0.1,1.9-0.2,2.9c-0.1,0.9-0.3,1.7-0.5,2.5c-0.2,0.7-0.5,1.4-0.7,1.9c-0.3,0.5-0.6,1-1,1.4
		c-0.3,0.3-0.5,0.5-0.8,0.7c-0.3,0.2-0.7,0.3-1.1,0.4c-0.5,0.1-1.1,0.2-1.8,0.2l-3,0C101.6,57.8,101.1,57.9,100.5,57.9z M103.7,53.9
		c0.3,0,0.6,0.1,0.8,0.1c0.5,0,0.9-0.1,1.3-0.2s0.7-0.5,1-1c0.3-0.5,0.5-1.2,0.7-2c0.1-0.8,0.2-1.6,0.2-2.5c0-1-0.1-1.9-0.3-2.6
		c-0.2-0.7-0.5-1.2-0.8-1.5s-0.8-0.4-1.4-0.4c-0.4,0-0.8,0-1.3,0.1L103.7,53.9z"/>
	<path class="st76" d="M112.7,48.3c0.1-0.9,0.2-1.5,0.2-1.8c0-0.3,0.1-0.8,0.1-1.5c1.4-0.6,2.6-0.8,3.6-0.8c0.6,0,1.1,0.1,1.6,0.3
		c0.5,0.2,0.9,0.6,1.1,1.1c0.3,0.5,0.4,1.3,0.4,2.2c0,0.5,0,1.6-0.1,3.3c-0.1,1.7-0.1,4-0.2,6.8c-0.5,0-1,0-1.4,0c-0.5,0-1,0-1.5,0
		c0.1-1,0.1-3,0.2-6c-0.2,0.2-0.3,0.3-0.4,0.3s-0.3,0.2-0.6,0.3c-0.3,0.1-0.5,0.3-0.6,0.4s-0.3,0.2-0.4,0.4s-0.2,0.3-0.2,0.5
		s-0.1,0.3-0.1,0.5c0,0.3,0.1,0.6,0.2,0.8c0.1,0.2,0.3,0.3,0.6,0.3c0.1,0,0.2,0,0.3,0c0.1,0,0.3-0.1,0.5-0.2c-0.1,0.7-0.3,1.7-0.5,3
		c-0.4,0.1-0.8,0.2-1.2,0.2c-0.6,0-1.1-0.2-1.5-0.5c-0.4-0.3-0.7-0.8-0.9-1.5c-0.2-0.7-0.3-1.4-0.3-2c0-0.4,0-0.8,0.1-1.2
		s0.2-0.8,0.4-1.2s0.4-0.7,0.6-1c0.2-0.3,0.5-0.5,0.9-0.8c0.4-0.2,0.9-0.5,1.5-0.7c0.3-0.1,0.5-0.2,0.7-0.3c0.2-0.1,0.4-0.2,0.5-0.3
		s0.2-0.2,0.2-0.3c0.1-0.1,0.1-0.2,0.1-0.3c0-0.1,0-0.2,0-0.3c0-0.3-0.1-0.6-0.2-0.8c-0.2-0.2-0.4-0.3-0.7-0.3
		C115,47,114,47.4,112.7,48.3z"/>
	<path class="st76" d="M126.7,54c-0.1,0.7-0.2,1.5-0.2,2.2l-0.2,1.6c-0.5,0.2-0.9,0.3-1.1,0.4s-0.5,0.1-0.8,0.1
		c-0.4,0-0.8-0.1-1.1-0.2c-0.3-0.1-0.6-0.4-0.8-0.7c-0.2-0.3-0.4-0.7-0.4-1.2c-0.1-0.4-0.1-0.9-0.1-1.4c0-0.1,0-0.2,0-0.5
		c0-0.2,0-0.7,0.1-1.5l0.2-4.6h-1.1c0-0.6,0-1.4,0.1-2.4l0-1.2h1.2c0-0.4,0.1-1.3,0.1-2.6l1.3-0.5c0.2-0.1,0.7-0.3,1.5-0.6
		c0,1.2-0.1,2.4-0.1,3.7h1.7c0,1.8-0.1,3-0.1,3.6h-1.7l-0.1,3.3c0,0.5,0,0.8,0,0.9c0,0.4,0,0.8,0.1,1.1s0.1,0.5,0.3,0.6
		s0.3,0.2,0.4,0.2c0.1,0,0.2,0,0.4,0C126.1,54.3,126.3,54.2,126.7,54z"/>
	<path class="st76" d="M128.3,48.3c0.1-0.9,0.2-1.5,0.2-1.8c0-0.3,0.1-0.8,0.1-1.5c1.4-0.6,2.6-0.8,3.6-0.8c0.6,0,1.1,0.1,1.6,0.3
		c0.5,0.2,0.9,0.6,1.1,1.1c0.3,0.5,0.4,1.3,0.4,2.2c0,0.5,0,1.6-0.1,3.3c-0.1,1.7-0.1,4-0.2,6.8c-0.5,0-1,0-1.4,0c-0.5,0-1,0-1.5,0
		c0.1-1,0.1-3,0.2-6c-0.2,0.2-0.3,0.3-0.4,0.3s-0.3,0.2-0.6,0.3s-0.5,0.3-0.6,0.4s-0.3,0.2-0.4,0.4s-0.2,0.3-0.2,0.5
		c0,0.2-0.1,0.3-0.1,0.5c0,0.3,0.1,0.6,0.2,0.8s0.3,0.3,0.6,0.3c0.1,0,0.2,0,0.3,0c0.1,0,0.3-0.1,0.5-0.2c-0.1,0.7-0.3,1.7-0.5,3
		c-0.4,0.1-0.8,0.2-1.2,0.2c-0.6,0-1.1-0.2-1.5-0.5c-0.4-0.3-0.7-0.8-0.9-1.5s-0.3-1.4-0.3-2c0-0.4,0-0.8,0.1-1.2s0.2-0.8,0.4-1.2
		s0.4-0.7,0.6-1c0.2-0.3,0.5-0.5,0.9-0.8c0.4-0.2,0.9-0.5,1.5-0.7c0.3-0.1,0.5-0.2,0.7-0.3c0.2-0.1,0.4-0.2,0.5-0.3s0.2-0.2,0.2-0.3
		c0.1-0.1,0.1-0.2,0.1-0.3s0-0.2,0-0.3c0-0.3-0.1-0.6-0.2-0.8c-0.2-0.2-0.4-0.3-0.7-0.3C130.6,47,129.5,47.4,128.3,48.3z"/>
	<path class="st76" d="M139.3,57.9l0.6-1.9l3.8-12.8l0.4-1.4c0.1-0.4,0.3-1,0.5-1.8c0.9,0,1.5,0,1.9,0c0.7,0,1.3,0,1.9,0l1.1,5.5
		l2.2,10.6l0.4,1.9c-0.9,0-1.4,0-1.5,0c-0.4,0-1,0-1.8,0c-0.2-1.5-0.5-3.2-0.9-5.1h-3.7c-0.4,1.5-0.9,3.3-1.3,5.1
		c-0.9,0-1.5,0-1.7,0C140.7,57.9,140.1,57.9,139.3,57.9z M145,48.9h2.3c-0.6-3.1-0.9-4.8-0.9-5.1c-0.3,1.3-0.6,2.3-0.8,3.2L145,48.9
		z"/>
	<path class="st76" d="M152.7,57.9c0.1-2,0.2-4.2,0.3-6.6c0.1-2.4,0.1-4.7,0.1-6.8c0.6,0,1.1,0,1.5,0c0.5,0,1,0,1.4,0l-0.1,1.8
		c0.2-0.3,0.3-0.6,0.4-0.8c0.1-0.2,0.3-0.4,0.4-0.6c0.2-0.2,0.4-0.3,0.6-0.4s0.4-0.2,0.6-0.3c0.2-0.1,0.5-0.1,0.7-0.1
		c0.4,0,0.7,0.1,1,0.2c0.3,0.1,0.6,0.3,0.8,0.6c0.2,0.2,0.4,0.6,0.6,0.9c0.2,0.4,0.3,0.8,0.3,1.2s0.1,0.9,0.1,1.3
		c0,0.3,0,1.1-0.1,2.2l-0.1,4.8c0,0.9,0,1.8,0,2.6c-0.5,0-1,0-1.4,0c-0.6,0-1.1,0-1.6,0c0-0.8,0.1-2,0.1-3.6c0-1.6,0.1-2.7,0.1-3.3
		c0-1-0.1-1.7-0.3-2.1c-0.2-0.4-0.5-0.6-0.8-0.6c-0.3,0-0.6,0.2-0.8,0.5s-0.4,0.8-0.6,1.5c-0.1,0.6-0.2,1.7-0.3,3.1
		s-0.1,2.9-0.1,4.5c-0.5,0-1,0-1.4,0C153.8,57.9,153.3,57.9,152.7,57.9z"/>
	<path class="st76" d="M163.7,48.3c0.1-0.9,0.2-1.5,0.2-1.8c0-0.3,0.1-0.8,0.1-1.5c1.4-0.6,2.6-0.8,3.6-0.8c0.6,0,1.1,0.1,1.6,0.3
		c0.5,0.2,0.9,0.6,1.1,1.1c0.3,0.5,0.4,1.3,0.4,2.2c0,0.5,0,1.6-0.1,3.3c-0.1,1.7-0.1,4-0.2,6.8c-0.5,0-1,0-1.4,0c-0.5,0-1,0-1.5,0
		c0.1-1,0.1-3,0.2-6c-0.2,0.2-0.3,0.3-0.4,0.3s-0.3,0.2-0.6,0.3s-0.5,0.3-0.6,0.4s-0.3,0.2-0.4,0.4s-0.2,0.3-0.2,0.5
		c0,0.2-0.1,0.3-0.1,0.5c0,0.3,0.1,0.6,0.2,0.8s0.3,0.3,0.6,0.3c0.1,0,0.2,0,0.3,0c0.1,0,0.3-0.1,0.5-0.2c-0.1,0.7-0.3,1.7-0.5,3
		c-0.4,0.1-0.8,0.2-1.2,0.2c-0.6,0-1.1-0.2-1.5-0.5c-0.4-0.3-0.7-0.8-0.9-1.5s-0.3-1.4-0.3-2c0-0.4,0-0.8,0.1-1.2s0.2-0.8,0.4-1.2
		s0.4-0.7,0.6-1c0.2-0.3,0.5-0.5,0.9-0.8c0.4-0.2,0.9-0.5,1.5-0.7c0.3-0.1,0.5-0.2,0.7-0.3c0.2-0.1,0.4-0.2,0.5-0.3s0.2-0.2,0.2-0.3
		c0.1-0.1,0.1-0.2,0.1-0.3s0-0.2,0-0.3c0-0.3-0.1-0.6-0.2-0.8c-0.2-0.2-0.4-0.3-0.7-0.3C166,47,165,47.4,163.7,48.3z"/>
	<path class="st76" d="M172.2,57.9l0.1-2.8l0.3-9.9l0.1-5.3c0.7,0,1.2,0,1.5,0c0.4,0,0.9,0,1.5,0l-0.2,4l-0.3,10l-0.1,4
		c-0.5,0-1,0-1.4,0L172.2,57.9z"/>
	<path class="st76" d="M176.2,63.9c-0.2-2.1-0.3-3.4-0.3-3.9c0.3,0.3,0.6,0.4,0.8,0.5c0.2,0.1,0.4,0.1,0.6,0.1c0.2,0,0.4,0,0.5-0.1
		c0.2-0.1,0.3-0.2,0.4-0.3c0.1-0.1,0.2-0.3,0.3-0.6s0.2-0.5,0.2-0.7c0.1-0.2,0.1-0.5,0.2-0.8l-1.4-7.5l-1.2-6.2c0.7,0,1.2,0,1.5,0
		c0.3,0,0.8,0,1.4,0c0.1,0.7,0.3,1.8,0.5,3.5s0.4,3,0.5,3.9c0.1,0.5,0.1,1.2,0.2,2l0.2-1.1c0-0.3,0.1-0.6,0.2-1s0.1-0.8,0.2-1.3
		l0.5-2.4l0.8-3.7c0.6,0,1.1,0,1.4,0c0.3,0,0.8,0,1.5,0l-1.4,5.7l-2.6,10.7c-0.2,0.6-0.3,1.1-0.5,1.4c-0.1,0.3-0.3,0.6-0.5,0.8
		c-0.2,0.2-0.3,0.4-0.5,0.6c-0.2,0.2-0.5,0.4-0.8,0.5c-0.3,0.1-0.7,0.2-1,0.2c-0.2,0-0.4,0-0.6-0.1c-0.3,0-0.5-0.1-0.6-0.1
		C176.7,64.1,176.5,64,176.2,63.9z"/>
	<path class="st76" d="M185.7,57.6c0-0.4,0-0.8-0.1-1.2c0-0.4-0.1-1-0.1-1.8l-0.1-0.9c0.5,0.3,0.9,0.6,1.2,0.7
		c0.3,0.2,0.7,0.2,0.9,0.2c0.2,0,0.4,0,0.6-0.1s0.3-0.2,0.3-0.3s0.1-0.3,0.1-0.5c0-0.1,0-0.3-0.1-0.4c-0.1-0.1-0.2-0.3-0.3-0.6
		c-0.4-0.5-0.8-1-1.1-1.4c-0.3-0.4-0.5-0.8-0.7-1.1c-0.2-0.3-0.3-0.7-0.4-1.1c-0.1-0.4-0.1-0.8-0.1-1.2c0-0.7,0.1-1.4,0.4-2
		s0.6-1.1,1-1.4c0.5-0.3,1-0.4,1.7-0.4c0.7,0,1.6,0.2,2.6,0.5l0.1,3.7c-0.6-0.4-1.2-0.6-1.7-0.6c-0.4,0-0.7,0.1-0.8,0.2
		c-0.2,0.1-0.3,0.4-0.3,0.7c0,0.1,0,0.2,0,0.3s0.1,0.2,0.1,0.3s0.1,0.2,0.2,0.3c0.1,0.1,0.3,0.3,0.6,0.7s0.5,0.7,0.7,0.9
		c0.3,0.4,0.5,0.7,0.6,1.1c0.1,0.3,0.3,0.7,0.3,1.1c0.1,0.4,0.1,0.8,0.1,1.2c0,0.6-0.1,1.2-0.3,1.7c-0.2,0.5-0.4,1-0.8,1.3
		c-0.3,0.4-0.7,0.6-1.1,0.7c-0.4,0.1-0.8,0.2-1.2,0.2c-0.3,0-0.6,0-1.1-0.1S186.3,57.8,185.7,57.6z"/>
	<path class="st76" d="M193,57.9c0.1-1.1,0.1-2,0.2-2.6s0.1-1.6,0.1-2.7c0-1.1,0.1-2.3,0.1-3.6s0-2.8,0.1-4.6c0.6,0,1.1,0,1.5,0
		c0.3,0,0.9,0,1.5,0c-0.1,1.7-0.1,3.1-0.2,4.4s-0.1,2.6-0.1,4c0,2.5,0,4.2,0,5.1c-0.6,0-1.1,0-1.5,0C194.2,57.9,193.7,57.9,193,57.9
		z M193.5,42.7c0-1,0-1.9,0-2.5c0-0.2,0-0.4,0-0.7c0.6,0,1.1,0,1.5,0c0.6,0,1,0,1.5,0c0,0.3,0,0.5,0,0.7l0,1.6c0,0.2,0,0.5,0,0.9
		c-0.5,0-1,0-1.4,0C194.5,42.7,194,42.7,193.5,42.7z"/>
	<path class="st76" d="M197.7,57.6c0-0.4,0-0.8-0.1-1.2c0-0.4-0.1-1-0.1-1.8l-0.1-0.9c0.5,0.3,0.9,0.6,1.2,0.7
		c0.3,0.2,0.7,0.2,0.9,0.2c0.2,0,0.4,0,0.6-0.1s0.3-0.2,0.3-0.3s0.1-0.3,0.1-0.5c0-0.1,0-0.3-0.1-0.4c-0.1-0.1-0.2-0.3-0.3-0.6
		c-0.4-0.5-0.8-1-1.1-1.4c-0.3-0.4-0.5-0.8-0.7-1.1c-0.2-0.3-0.3-0.7-0.4-1.1c-0.1-0.4-0.1-0.8-0.1-1.2c0-0.7,0.1-1.4,0.4-2
		s0.6-1.1,1-1.4c0.5-0.3,1-0.4,1.7-0.4c0.7,0,1.6,0.2,2.6,0.5l0.1,3.7c-0.6-0.4-1.2-0.6-1.7-0.6c-0.4,0-0.7,0.1-0.8,0.2
		c-0.2,0.1-0.3,0.4-0.3,0.7c0,0.1,0,0.2,0,0.3s0.1,0.2,0.1,0.3s0.1,0.2,0.2,0.3c0.1,0.1,0.3,0.3,0.6,0.7s0.5,0.7,0.7,0.9
		c0.3,0.4,0.5,0.7,0.6,1.1c0.1,0.3,0.3,0.7,0.3,1.1c0.1,0.4,0.1,0.8,0.1,1.2c0,0.6-0.1,1.2-0.3,1.7c-0.2,0.5-0.4,1-0.8,1.3
		c-0.3,0.4-0.7,0.6-1.1,0.7c-0.4,0.1-0.8,0.2-1.2,0.2c-0.3,0-0.6,0-1.1-0.1S198.3,57.8,197.7,57.6z"/>
	<path class="st76" d="M216.1,53.9c-0.1,0.5-0.2,1.8-0.4,3.8c-0.6,0.2-1,0.3-1.4,0.4c-0.4,0.1-0.8,0.1-1.2,0.1
		c-0.6,0-1.1-0.1-1.6-0.2c-0.5-0.1-0.9-0.4-1.3-0.8c-0.4-0.4-0.7-0.8-0.9-1.4s-0.4-1.2-0.5-2c-0.1-0.8-0.2-1.5-0.2-2.3
		c0-1.1,0.1-2.2,0.4-3.3c0.3-1.1,0.6-1.9,1-2.5s0.9-1,1.4-1.3c0.5-0.3,1-0.4,1.6-0.4c0.6,0,1.1,0.1,1.6,0.3c0.5,0.2,0.9,0.6,1.3,1.2
		s0.6,1.2,0.8,2c0.1,0.7,0.2,1.5,0.2,2.4c0,0.5,0,1.1-0.1,1.7l-5.2,0c0,0.1,0,0.3,0,0.4c0,0.9,0.2,1.6,0.6,2.1
		c0.4,0.4,0.8,0.7,1.4,0.7c0.3,0,0.7-0.1,1.1-0.2C215,54.5,215.5,54.2,216.1,53.9z M211.6,49.6h2.4c0-0.1,0-0.3,0-0.4
		c0-0.5,0-0.8-0.1-1.2s-0.2-0.6-0.4-0.7c-0.2-0.1-0.4-0.2-0.6-0.2c-0.1,0-0.3,0-0.4,0.1c-0.1,0.1-0.3,0.2-0.4,0.4
		c-0.1,0.2-0.2,0.3-0.3,0.6c-0.1,0.2-0.1,0.4-0.2,0.6C211.7,49,211.6,49.3,211.6,49.6z"/>
	<path class="st76" d="M216.4,57.9c0.6-1.3,1.3-2.9,2.1-4.9c0.8-2,1.5-3.5,1.9-4.7l-0.9-2.6c-0.2-0.5-0.4-1.1-0.7-2l-0.7-2
		c-0.2-0.5-0.4-1.1-0.6-1.7c0.6,0,1.3,0,1.9,0c0.5,0,1.1,0,1.7,0c0.2,0.8,0.5,1.6,0.8,2.5c0.3,0.9,0.5,1.7,0.7,2.3
		c0.2-0.6,0.5-1.4,0.8-2.3s0.6-1.8,0.9-2.6c0.5,0,1.1,0,1.7,0c0.4,0,1,0,1.7,0c-0.4,0.9-0.9,2.2-1.6,3.8s-1.4,3.3-2,4.9
		c0.8,2.4,1.9,5.5,3.2,9.2c-0.8,0-1.4,0-1.7,0c-0.6,0-1.3,0-1.9,0c-0.2-0.7-0.5-1.6-0.8-2.7c-0.3-1.1-0.6-2.1-0.9-3
		c-0.2,0.6-0.5,1.5-0.9,2.6c-0.4,1.1-0.8,2.1-1.2,3c-0.7,0-1.3,0-1.7,0C217.7,57.9,217.1,57.9,216.4,57.9z"/>
	<path class="st76" d="M227.9,64c0.1-1.8,0.2-3.6,0.2-5.4c0.1-3.1,0.2-5.6,0.2-7.7c0-2.1,0.1-4.1,0.1-6.2c1-0.3,1.8-0.5,2.3-0.5
		c0.6-0.1,1.1-0.1,1.7-0.1c0.7,0,1.4,0.1,2,0.4c0.6,0.3,1.1,0.7,1.4,1.4s0.6,1.5,0.8,2.4s0.3,1.9,0.3,2.9c0,0.9-0.1,1.8-0.2,2.7
		c-0.1,0.9-0.4,1.6-0.7,2.3c-0.3,0.7-0.7,1.2-1,1.5c-0.4,0.3-0.8,0.5-1.3,0.5c-0.2,0-0.5,0-0.7-0.1c-0.3-0.1-0.5-0.2-0.7-0.4
		s-0.4-0.3-0.6-0.5c-0.2-0.2-0.3-0.4-0.6-0.7l-0.1,3.7c0,1.7-0.1,3-0.1,3.8c-0.6,0-1.1,0-1.5,0C229.1,64,228.5,64,227.9,64z
		 M231.3,48.1c0,0.4-0.1,0.7-0.1,1c0,0.3,0,0.6,0,1c0,0.4,0,0.8,0,1c0,0.7,0.1,1.3,0.2,1.8c0.1,0.5,0.3,0.9,0.5,1.1
		c0.2,0.3,0.5,0.4,0.7,0.4c0.3,0,0.5-0.1,0.7-0.4c0.2-0.3,0.4-0.7,0.5-1.2c0.1-0.6,0.2-1.2,0.2-1.9c0-0.9-0.1-1.7-0.4-2.3
		s-0.7-0.9-1.2-0.9C232.1,47.8,231.7,47.9,231.3,48.1z"/>
	<path class="st76" d="M238,57.9l0.2-5.9l0.1-3.4c0-0.6,0-1.2,0-1.9c0-0.6,0-1.4,0-2.4c0.6,0,1.1,0,1.4,0c0.4,0,0.9,0,1.4,0l0,1.5
		c0.2-0.4,0.3-0.7,0.5-0.9s0.3-0.4,0.4-0.5c0.2-0.2,0.3-0.3,0.5-0.3c0.2-0.1,0.4-0.1,0.5-0.1c0.2,0,0.4,0,0.6,0.1c0,1,0,1.7,0,2.4
		l0.1,2c-0.3-0.1-0.5-0.2-0.8-0.2c-0.3,0-0.5,0.1-0.8,0.2c-0.2,0.2-0.4,0.4-0.6,0.7c-0.2,0.3-0.3,0.7-0.4,1.2
		c-0.1,0.5-0.2,1.2-0.2,2.2s-0.1,2.2-0.1,3.5c0,0.5,0,1,0,1.7c-0.5,0-1,0-1.4,0C239.1,57.9,238.5,57.9,238,57.9z"/>
	<path class="st76" d="M251.8,53.9c-0.1,0.5-0.2,1.8-0.4,3.8c-0.6,0.2-1,0.3-1.4,0.4c-0.4,0.1-0.8,0.1-1.2,0.1
		c-0.6,0-1.1-0.1-1.6-0.2c-0.5-0.1-0.9-0.4-1.3-0.8c-0.4-0.4-0.7-0.8-0.9-1.4s-0.4-1.2-0.5-2c-0.1-0.8-0.2-1.5-0.2-2.3
		c0-1.1,0.1-2.2,0.4-3.3c0.3-1.1,0.6-1.9,1-2.5s0.9-1,1.4-1.3c0.5-0.3,1-0.4,1.6-0.4c0.6,0,1.1,0.1,1.6,0.3c0.5,0.2,0.9,0.6,1.3,1.2
		s0.6,1.2,0.8,2c0.1,0.7,0.2,1.5,0.2,2.4c0,0.5,0,1.1-0.1,1.7l-5.2,0c0,0.1,0,0.3,0,0.4c0,0.9,0.2,1.6,0.6,2.1
		c0.4,0.4,0.8,0.7,1.4,0.7c0.3,0,0.7-0.1,1.1-0.2C250.7,54.5,251.2,54.2,251.8,53.9z M247.3,49.6h2.4c0-0.1,0-0.3,0-0.4
		c0-0.5,0-0.8-0.1-1.2s-0.2-0.6-0.4-0.7c-0.2-0.1-0.4-0.2-0.6-0.2c-0.1,0-0.3,0-0.4,0.1c-0.1,0.1-0.3,0.2-0.4,0.4
		c-0.1,0.2-0.2,0.3-0.3,0.6c-0.1,0.2-0.1,0.4-0.2,0.6C247.3,49,247.3,49.3,247.3,49.6z"/>
	<path class="st76" d="M253.4,57.6c0-0.4,0-0.8-0.1-1.2c0-0.4-0.1-1-0.1-1.8l-0.1-0.9c0.5,0.3,0.9,0.6,1.2,0.7
		c0.3,0.2,0.7,0.2,0.9,0.2c0.2,0,0.4,0,0.6-0.1s0.3-0.2,0.3-0.3s0.1-0.3,0.1-0.5c0-0.1,0-0.3-0.1-0.4c-0.1-0.1-0.2-0.3-0.3-0.6
		c-0.4-0.5-0.8-1-1.1-1.4c-0.3-0.4-0.5-0.8-0.7-1.1c-0.2-0.3-0.3-0.7-0.4-1.1c-0.1-0.4-0.1-0.8-0.1-1.2c0-0.7,0.1-1.4,0.4-2
		s0.6-1.1,1-1.4c0.5-0.3,1-0.4,1.7-0.4c0.7,0,1.6,0.2,2.6,0.5l0.1,3.7c-0.6-0.4-1.2-0.6-1.7-0.6c-0.4,0-0.7,0.1-0.8,0.2
		c-0.2,0.1-0.3,0.4-0.3,0.7c0,0.1,0,0.2,0,0.3s0.1,0.2,0.1,0.3s0.1,0.2,0.2,0.3c0.1,0.1,0.3,0.3,0.6,0.7s0.5,0.7,0.7,0.9
		c0.3,0.4,0.5,0.7,0.6,1.1c0.1,0.3,0.3,0.7,0.3,1.1c0.1,0.4,0.1,0.8,0.1,1.2c0,0.6-0.1,1.2-0.3,1.7c-0.2,0.5-0.4,1-0.8,1.3
		c-0.3,0.4-0.7,0.6-1.1,0.7c-0.4,0.1-0.8,0.2-1.2,0.2c-0.3,0-0.6,0-1.1-0.1S253.9,57.8,253.4,57.6z"/>
	<path class="st76" d="M260.6,57.6c0-0.4,0-0.8-0.1-1.2c0-0.4-0.1-1-0.1-1.8l-0.1-0.9c0.5,0.3,0.9,0.6,1.2,0.7
		c0.3,0.2,0.7,0.2,0.9,0.2c0.2,0,0.4,0,0.6-0.1s0.3-0.2,0.3-0.3s0.1-0.3,0.1-0.5c0-0.1,0-0.3-0.1-0.4c-0.1-0.1-0.2-0.3-0.3-0.6
		c-0.4-0.5-0.8-1-1.1-1.4c-0.3-0.4-0.5-0.8-0.7-1.1c-0.2-0.3-0.3-0.7-0.4-1.1c-0.1-0.4-0.1-0.8-0.1-1.2c0-0.7,0.1-1.4,0.4-2
		s0.6-1.1,1-1.4c0.5-0.3,1-0.4,1.7-0.4c0.7,0,1.6,0.2,2.6,0.5l0.1,3.7c-0.6-0.4-1.2-0.6-1.7-0.6c-0.4,0-0.7,0.1-0.8,0.2
		c-0.2,0.1-0.3,0.4-0.3,0.7c0,0.1,0,0.2,0,0.3s0.1,0.2,0.1,0.3s0.1,0.2,0.2,0.3c0.1,0.1,0.3,0.3,0.6,0.7s0.5,0.7,0.7,0.9
		c0.3,0.4,0.5,0.7,0.6,1.1c0.1,0.3,0.3,0.7,0.3,1.1c0.1,0.4,0.1,0.8,0.1,1.2c0,0.6-0.1,1.2-0.3,1.7c-0.2,0.5-0.4,1-0.8,1.3
		c-0.3,0.4-0.7,0.6-1.1,0.7c-0.4,0.1-0.8,0.2-1.2,0.2c-0.3,0-0.6,0-1.1-0.1S261.2,57.8,260.6,57.6z"/>
	<path class="st76" d="M267.9,57.9c0.1-1.1,0.1-2,0.2-2.6s0.1-1.6,0.1-2.7c0-1.1,0.1-2.3,0.1-3.6s0-2.8,0.1-4.6c0.6,0,1.1,0,1.5,0
		c0.3,0,0.9,0,1.5,0c-0.1,1.7-0.1,3.1-0.2,4.4s-0.1,2.6-0.1,4c0,2.5,0,4.2,0,5.1c-0.6,0-1.1,0-1.5,0
		C269.2,57.9,268.6,57.9,267.9,57.9z M268.4,42.7c0-1,0-1.9,0-2.5c0-0.2,0-0.4,0-0.7c0.6,0,1.1,0,1.5,0c0.6,0,1,0,1.5,0
		c0,0.3,0,0.5,0,0.7l0,1.6c0,0.2,0,0.5,0,0.9c-0.5,0-1,0-1.4,0C269.4,42.7,268.9,42.7,268.4,42.7z"/>
	<path class="st76" d="M277.1,44.1c0.6,0,1.2,0.2,1.8,0.5c0.6,0.3,1,0.8,1.4,1.4c0.4,0.6,0.7,1.4,0.9,2.2c0.2,0.8,0.3,1.7,0.3,2.7
		c0,0.9-0.1,1.8-0.2,2.7c-0.2,0.8-0.4,1.6-0.8,2.4c-0.4,0.7-0.9,1.3-1.5,1.7s-1.2,0.6-1.9,0.6c-0.6,0-1.2-0.2-1.8-0.5
		c-0.6-0.3-1.1-0.8-1.4-1.4s-0.7-1.4-0.9-2.2c-0.2-0.9-0.3-1.8-0.3-2.7s0.1-1.9,0.3-2.7s0.5-1.7,0.9-2.3s0.9-1.2,1.5-1.6
		C275.8,44.3,276.4,44.1,277.1,44.1z M277,48c-0.3,0-0.6,0.1-0.8,0.4c-0.2,0.3-0.4,0.7-0.6,1.3s-0.2,1.2-0.2,1.8
		c0,1,0.1,1.7,0.4,2.2c0.3,0.5,0.6,0.8,1,0.8c0.3,0,0.6-0.1,0.8-0.4c0.2-0.3,0.4-0.7,0.6-1.3c0.1-0.6,0.2-1.2,0.2-1.9
		c0-0.5,0-1-0.1-1.5s-0.3-0.8-0.5-1.1S277.3,48,277,48z"/>
	<path class="st76" d="M282.4,57.9c0.1-2,0.2-4.2,0.3-6.6c0.1-2.4,0.1-4.7,0.1-6.8c0.6,0,1.1,0,1.5,0c0.5,0,1,0,1.4,0l-0.1,1.8
		c0.2-0.3,0.3-0.6,0.4-0.8c0.1-0.2,0.3-0.4,0.4-0.6c0.2-0.2,0.4-0.3,0.6-0.4s0.4-0.2,0.6-0.3c0.2-0.1,0.5-0.1,0.7-0.1
		c0.4,0,0.7,0.1,1,0.2c0.3,0.1,0.6,0.3,0.8,0.6c0.2,0.2,0.4,0.6,0.6,0.9c0.2,0.4,0.3,0.8,0.3,1.2s0.1,0.9,0.1,1.3
		c0,0.3,0,1.1-0.1,2.2l-0.1,4.8c0,0.9,0,1.8,0,2.6c-0.5,0-1,0-1.4,0c-0.6,0-1.1,0-1.6,0c0-0.8,0.1-2,0.1-3.6c0-1.6,0.1-2.7,0.1-3.3
		c0-1-0.1-1.7-0.3-2.1c-0.2-0.4-0.5-0.6-0.8-0.6c-0.3,0-0.6,0.2-0.8,0.5s-0.4,0.8-0.6,1.5c-0.1,0.6-0.2,1.7-0.3,3.1
		s-0.1,2.9-0.1,4.5c-0.5,0-1,0-1.4,0C283.5,57.9,283,57.9,282.4,57.9z"/>
</g>
</svg>
