<?xml version="1.0" encoding="utf-8"?>
<!-- Generator: Adobe Illustrator 27.5.0, SVG Export Plug-In . SVG Version: 6.00 Build 0)  -->
<svg version="1.1" id="Layer_1" xmlns="http://www.w3.org/2000/svg" xmlns:xlink="http://www.w3.org/1999/xlink" x="0px" y="0px"
	 viewBox="0 0 300 100" style="enable-background:new 0 0 300 100;" xml:space="preserve">
<style type="text/css">
	.st0{fill:#FFFFFF;}
	.st1{fill:#717171;}
	.st2{fill:#707070;}
	.st3{fill:#F6F6F6;}
	.st4{fill:#E8E8E8;}
	.st5{fill:#979797;}
	.st6{fill:#D5D5D5;}
	.st7{fill:#9A9A9A;}
	.st8{fill:#D7D7D7;}
	.st9{fill:#B9B9B9;}
	.st10{fill:#F4F4F4;}
	.st11{fill:#8E8E8E;}
	.st12{fill:#818181;}
	.st13{fill:#878787;}
	.st14{fill:#636363;}
	.st15{fill:#787878;}
	.st16{fill:#B8B8B8;}
	.st17{fill:#AFAFAF;}
	.st18{fill:#A9A9A9;}
	.st19{fill:#A0A0A0;}
	.st20{fill:#5A5A5A;}
	.st21{fill:#535353;}
	.st22{fill:#6D6D6D;}
	.st23{fill:#828282;}
	.st24{fill:#616161;}
	.st25{fill:#484848;}
	.st26{fill:#D6D6D6;}
	.st27{fill:#ADADAD;}
	.st28{fill:#D3D3D3;}
	.st29{fill:#7C7C7C;}
	.st30{fill:#8A8A8A;}
	.st31{fill:#ACACAC;}
	.st32{fill:#6A6A6A;}
	.st33{fill:#EBEBEB;}
	.st34{fill:#EDEDED;}
	.st35{fill:#919191;}
	.st36{fill:#DBDBDB;}
	.st37{fill:#E4E4E4;}
	.st38{fill:#969696;}
	.st39{fill:#7D7D7D;}
	.st40{fill:#A3A3A3;}
	.st41{fill:#C3C3C3;}
	.st42{fill:#CBCBCB;}
	.st43{fill:#E5E5E5;}
	.st44{fill:#BBBBBB;}
	.st45{fill:#F3F3F3;}
	.st46{fill:#E7E7E7;}
	.st47{fill:#DADADA;}
	.st48{fill:#F7F7F7;}
	.st49{fill:#E9E9E9;}
	.st50{fill:#C9C9C9;}
	.st51{fill:#656565;}
	.st52{fill:#494949;}
	.st53{fill:#FEFEFE;}
	.st54{fill:#DEDEDE;}
	.st55{fill:#DFDFDF;}
	.st56{fill:#D9D9D9;}
	.st57{fill:#D4D4D4;}
	.st58{fill:#D0D0D0;}
	.st59{fill:#C0C0C0;}
	.st60{fill:#CECECE;}
	.st61{fill:#FDFDFD;}
	.st62{fill:#DCDCDC;}
	.st63{fill:#666666;}
	.st64{fill:#B1B1B1;}
	.st65{fill:#A6A6A6;}
	.st66{fill:#909090;}
	.st67{fill:#BEBEBE;}
	.st68{fill:#9C9C9C;}
	.st69{fill:#B6B6B6;}
	.st70{fill:#C2C2C2;}
	.st71{fill:#838383;}
	.st72{fill:#A1A1A1;}
	.st73{fill:#AEAEAE;}
	.st74{fill:#B7B7B7;}
	.st75{fill:#C8C8C8;}
	.st76{fill:#999999;}
	.st77{fill:#8F8F8F;}
	.st78{fill:#A2A2A2;}
	.st79{fill:#B4B4B4;}
	.st80{fill:#555555;}
	.st81{fill:#727272;}
	.st82{fill:#5B5B5B;}
	.st83{fill:#848484;}
	.st84{fill:#E0E0E0;}
	.st85{fill:#CDCDCD;}
	.st86{fill:#565656;}
	.st87{fill:#B2B2B2;}
	.st88{fill:#545454;}
	.st89{fill:#B3B3B3;}
	.st90{fill:#5C5C5C;}
	.st91{fill:#ABABAB;}
	.st92{fill:#353535;}
	.st93{fill:#EAEAEA;}
	.st94{fill:#767676;}
	.st95{fill:#BFBFBF;}
	.st96{fill:#6F6F6F;}
	.st97{fill:#C6C6C6;}
	.st98{fill:#7B7B7B;}
	.st99{fill:#7A7A7A;}
	.st100{fill:#626262;}
	.st101{fill:#DDDDDD;}
	.st102{fill:#393939;}
	.st103{fill:#F1F1F1;}
	.st104{fill:#F2F2F2;}
	.st105{fill:#AAAAAA;}
	.st106{fill:#757575;}
	.st107{fill:#797979;}
	.st108{fill:#777777;}
	.st109{fill:#6D6E71;}
	.st110{font-family:'OCRAExtended';}
	.st111{font-size:44px;}
	.st112{letter-spacing:-1.5;}
</style>
<path class="st0" d="M99.3,77.4c0-11.9,0-23.7,0-35.6c0.3,0.5,0.2,1,0.2,1.5c0,10.8,0,21.7,0,32.5C99.6,76.4,99.6,76.9,99.3,77.4z"
	/>
<path class="st1" d="M59.7,11.1c1.8-0.2,3.5,0.4,5.2,0.5c4,0.4,8,1.1,11.9,2.3c2.3,0.7,4.6,1.4,6.5,2.8c0.3,0.2,0.5,0.4,0.9,0.3
	c0.7,0.7,1.2,1.7,2.2,2.2c0.1,0.3,0.3,0.6,0.4,1c0,0.4,0,0.8,0.1,1.2c0.2,0.3,0.3,0.6,0.5,1c0,0.4,0,0.8,0,1.2c0,0.4,0,0.8-0.1,1.2
	c-0.5,0.3-0.4,0.9-0.5,1.4c0,2.4,0,4.8,0,7.3c-0.2,0.7-0.2,1.3,0.8,1.2c1.2-0.2,2,1.2,3.2,1c0.1,0,0.3,0.4,0.4,0.6
	c0.1,0.3,0.3,0.5,0.6,0.7c1.1,0.7,1.1,1.7,0,2.6c0-0.4,0-0.8-0.3-1.2c-0.1,0-0.3,0-0.4,0c-0.1-0.3-0.3-0.5-0.5-0.7
	c-1.4-1.1-3.2-1.2-4.8-1.9c-1.6-0.6-3.3-1-5-1.5c-3.5-1.1-6.9-2.3-10.4-3.3s-7-2.1-10.4-3.2c0.2-0.2,0.5-0.3,0.2-0.6
	c-0.5-0.5-1.3-0.8-1.9-0.5c-0.9,0.4-1.9,0.5-2.8,0.9c-1.9,0.9-4.1,1.2-6.1,1.9c-1.4,0.5-3,0.9-4.5,1.4c-2,0.6-4,1-5.9,2
	c-1.7,0.9-3.8,0.5-5.4,1.7c-0.3,0.2-0.8,0.3-1.1-0.1c-0.1-0.3,0.1-0.7,0.3-0.7c1.4-0.1,2.5-1.2,4-1.1c0.3,0,0.7,0.1,0.9-0.1
	c1.5-1.1,3.3-1.5,5.1-1.9c0.5-0.1,1,0,1.5-0.3c1.5-0.9,3.3-1.1,4.9-1.8c1.1-0.5,2.3-0.7,3.5-1.1c0.3-0.1,0.7-0.2,0.2-0.6
	c0.2-0.1,0.3-0.2,0.5-0.2c0.6-0.2,1.1-0.3,1.7-0.5c0.5-0.2,1.1-0.3,1.5-0.7c0.4-0.1,0.8-0.2,1.2-0.3c1.2,0,2.3,0,3.4,0.5
	c1.2,0.7,2.6,0.8,3.8,1.2c1.1,0.4,2.2,0.9,3.4,1c1.2,0.5,2.5,0.9,3.8,1.2c1.8,0.6,2.4,0.1,2.4-1.7c0-1.5,0.1-3,0-4.5
	c-0.2-1.7,0.1-3.5-1.2-4.9c0.7,0.1,1.5,0,1.9,0.7c0.1,0.1,0.2,0.2,0.2,0.3c-0.1,0.5-0.1,0.9-0.1,1.4c0.3,2.8,0,5.6-0.1,8.5
	c0,1.1,0.1,1.5,1.1,1.7c0.7,0.2,1.4,0.5,2.2,0.7c0.4,0.1,0.8,0.2,1.2,0.2c0.5,0.2,1,0.3,1.4,0.5c0.3,0.1,0.6,0.2,0.9,0.2
	c0.1,0.1,0.2,0.1,0.3,0.2c0.4,0.1,0.8,0.2,1.2,0.3c0.8,0.4,1.2,0.1,1.2-0.8c0-1.3,0-2.6,0-3.8c0.4-1.8,0.4-3.7,0-5.5
	c-0.2-0.1-0.3-0.2-0.5-0.2c-0.6-1.7-1.7-3-3.2-3.9c-2.1-1.3-4.4-1.8-6.6-2.6c0.2-0.2,0.5-0.1,0.5-0.4c-0.4-0.4-0.9-0.5-1.4-0.5
	c-1.1-0.1-2.2-0.2-3.3-0.7c-0.9-0.5-1.9-0.6-2.9-0.5c-1.1,0.2-2.1-0.4-3.2-0.5c-0.9-0.1-1.8-0.4-2.7-0.3
	C60.5,12.8,59.7,12.1,59.7,11.1z"/>
<path class="st1" d="M27.8,81.7c-2.5-0.1-4.5-3-4.3-5.2c0.1-1.8,0-1.7-1.7-2c-3.3-0.6-6.5-1.3-9.3-3.4c-1.2-0.9-2.1-2.1-2.5-3.5
	c0.8-0.6,1.6-1.1,2.1,0.4c0.1,0.3,0.4,0.4,0.8,0.3c0.8,0.9,1.9,1.5,2.9,2.2c-0.5,0.5,0.1,0.7,0.4,0.8c1.7,0.4,3.2,1.3,4.9,1.4
	c0.4,0,0.7,0.1,1,0.2c1.4,0.5,2.2,0,2.3-1.5c0.1-2.3,0.1-4.7,0.3-7c0.2-2.1-0.5-4.1-0.3-6.2c0.3-2.2,0.5-4.4,0.2-6.7
	c-0.1-0.9-0.3-1.9-0.2-2.7c0.5-2.5-0.1-5,0.1-7.5c0.1-1.5-0.3-3.1,0.8-4.5c0.4-0.5,0.7-1.1,1.4-1.2c1.1-0.2,2.1-0.6,3.2-1
	c0.6-0.2,1.4-0.6,1.7,0.2c0.2,0.8-0.8,0.7-1.3,0.8c-2.1,0.5-3.9,1.2-4.9,3.2c0,12.5,0,24.9,0,37.4c0,0.5,0,1,0.1,1.4
	c0,0.2,0.2,0.3,0.4,0.1c0.1,0,0.1,0,0.2,0c0.1,0.2,0.2,0.3,0.3,0.5c0.5,0.5,0.8,1.2,1.6,1.4c4.9,1,9.7,2.5,14.6,3.6
	c4.3,1.1,8.7,2,12.9,3.3c2.3,0.7,4.7,1,7-0.1c1.3-0.3,2.6-0.5,3.9-0.9c3.4-1,6.9-1.6,10.2-2.6c3.5-1.1,7-1.8,10.6-2.7
	c0.8-0.2,1.6-0.3,2.4-0.5c0.6,0.1,1.2,0.1,1.4,1.1c-1.4-0.3-2.5,0.9-3.9,0.6c-0.3-0.1-0.6,0-0.8,0.1c-2.8,1.1-5.7,1.7-8.6,2.2
	c-0.2,0-0.5,0-0.7,0c-0.6-0.1-1.2,0.1-1.6,0.4c-1.3,0.9-2.5,1.8-4.2,1.4c-0.3-0.1-0.6,0-0.8,0.2c-0.8,1-1.7,1-2.8-0.1
	c-0.3,2.1-2.3,0-3.2,1.7c-0.5,1-2.4-0.3-3.5,0.6c-1.1,0.8-2.6-0.4-3.8,0.6c-0.3-0.3-0.1-0.8-0.6-0.9s-0.7,0.6-1.1,0.6
	c-0.7-0.2-0.5-1.2-1.1-1.3c-0.5,0.2-0.2,0.7-0.6,1c-0.1,0-0.4,0-0.5-0.1c-0.9-1-2.1-1.3-3.4-1.4c-0.3,0-0.5-0.4-0.7-0.6
	c-0.7-0.4-1.3-1-2.2-0.3c-0.6,0.4-1.9,0.6-2.3,0c-0.5-0.8-1.4-0.9-2-1.6c-0.3,0.3-0.6,0.6-0.8,0.7c-1.5-0.1-2.8-0.5-3.6-1.7
	c-0.2-0.3-0.6-0.1-0.8,0.2c-0.7,0.7-1.1,0.4-1.5-0.3c-0.1-0.2-0.3-0.5-0.7-0.6c-0.8,0.9-1.6,0.7-2.4-0.1c-0.1-0.1-0.4-0.2-0.5-0.3
	c-0.8-0.9-1.7,0.2-2.4-0.1C28.8,81.1,28.3,81.3,27.8,81.7z"/>
<path class="st2" d="M12.9,68.2c-0.4,0.2-0.7,0-0.8-0.3c-0.5-1.5-1.3-1-2.1-0.4c-0.4-0.1-0.4-0.4-0.2-0.7c0-0.1,0-0.2,0.1-0.3
	c1.1-0.3,1.4-1.2,1.4-2.1c-0.2-2.3,0.2-4.5,0.2-6.8c0.1-11.4,0.2-22.7,0-34.1c0-1.2,0.3-2.3,1.1-3.2c1-1.1,2.2-2,3.4-2.7
	c1-0.6,1.4-1.2,0.6-2.2c3.9-1.5,7.9-2.3,12-3c3-0.5,5.9-0.9,8.9-1.3c2.5-0.3,5.1-0.2,7.6-0.3c2.5,0,5,0,7.5,0
	c-0.2,0.6-0.7,0.7-1.2,0.7c-1,0-2,0-3,0c-0.6,0-1.2,0-1.9,0.7c3.6,0,6.8,0.3,10.1-0.5c-0.5-0.6-0.9-0.4-1.3-0.3
	c-0.6,0.1-0.9-0.1-1.2-0.6c0.1,0,0.2,0,0.3-0.1c1.3,0.2,2.6-0.3,3.8,0.3c-0.2,0.3-0.5,0.6-0.3,1.1c0.1,0.2,0.3,0.3,0.5,0.2
	c0.5-0.1,0.7-0.5,0.8-0.9c0-0.1,0-0.2,0-0.4c0.2,0,0.5,0,0.7,0c0,1,0.8,1.7,2,1.5c1-0.1,1.8,0.1,2.7,0.3c1.1,0.2,2.1,0.7,3.2,0.5
	c1-0.2,2,0,2.9,0.5c1,0.5,2.1,0.6,3.3,0.7c0.5,0.1,1,0.1,1.4,0.5c-0.1,0.3-0.4,0.2-0.5,0.4c-1.4-0.3-2.8-0.7-4.3-0.9
	c-2.5-0.4-5.1-1-7.6-1.1c-2.9-0.1-5.7-0.7-8.5-0.6v-0.1c-1.9-0.4-3.9-0.1-5.8-0.2c-1,0-2.1-0.2-3.1,0.2c-0.1,0.1-0.2,0.2-0.3,0.2
	c-1.6,0-3.1,0.2-4.7,0.2c-4.5,0.2-8.9,0.7-13.3,1.5c-3.6,0.7-7.2,1.5-10.5,3.1c-1.8,0.9-3.7,1.9-4.1,4.3c-0.1,0.1-0.2,0.2-0.2,0.2
	c-0.3,0.4-0.3,0.9-0.3,1.4c0,11.6,0,23.3,0,34.9c0,2.2,0,4.4,0,6.6c0,0.5,0,1,0.3,1.4h0.1h0.1C12.6,67.3,12.7,67.7,12.9,68.2z"/>
<path class="st1" d="M27.8,81.7c0.5-0.4,1.1-0.6,1.8-0.4c0.8,0.3,1.6-0.7,2.4,0.1c0.1,0.1,0.4,0.2,0.5,0.3c0.8,0.8,1.6,1,2.4,0.1
	c0.5,0.1,0.6,0.3,0.7,0.6c0.4,0.7,0.8,1,1.5,0.3c0.2-0.2,0.6-0.5,0.8-0.2c0.8,1.3,2,1.6,3.6,1.7c0.2-0.1,0.4-0.4,0.8-0.7
	c0.6,0.6,1.5,0.7,2,1.6c0.4,0.6,1.7,0.4,2.3,0c1-0.7,1.6,0,2.2,0.3c0.3,0.1,0.4,0.6,0.7,0.6c1.3,0,2.5,0.4,3.4,1.4
	c0.1,0.1,0.4,0.1,0.5,0.1c0.5-0.2,0.2-0.8,0.6-1c0.7,0.1,0.5,1.1,1.1,1.3c0.5,0.1,0.7-0.6,1.1-0.6c0.5,0.2,0.3,0.7,0.6,0.9
	c1.1-0.9,2.6,0.2,3.8-0.6c1.2-0.8,3,0.5,3.5-0.6c0.9-1.7,2.9,0.4,3.2-1.7c1.1,1.1,2,1.1,2.8,0.1c0.2-0.2,0.5-0.3,0.8-0.2
	c1.7,0.4,3-0.5,4.2-1.4c0.4-0.3,1-0.5,1.6-0.4c0.2,0,0.5,0,0.7,0c2.9-0.5,5.8-1.1,8.6-2.2c0.2-0.1,0.6-0.1,0.8-0.1
	c1.4,0.4,2.5-0.8,3.9-0.6c-0.1-1-0.8-1-1.4-1.1c0.6-0.5,1.6-0.6,2-1.4c0.1,0,0.1,0,0.2,0c1-0.2,1-1,1-1.8c0-5.9,0-11.8,0-17.6
	c0-5.5,0-11,0-16.4c0-0.6,0.1-1.3-0.7-1.6c0-0.4,0-0.8,0-1.2c1-0.9,1-1.9,0-2.6c-0.3-0.2-0.5-0.4-0.6-0.7c-0.1-0.2-0.3-0.6-0.4-0.6
	c-1.2,0.1-2-1.2-3.2-1c-1,0.1-1-0.4-0.8-1.2c0.1,0,0.2,0,0.2,0c0.2,0.3,0.4,0.5,0.7,0.2c0.1,0,0.1,0,0.2,0c0.3,0.4,0.8,0.5,1.2,0.4
	c0.3,0.2,0.6,0.3,0.9,0.5c1.2,0,1.8,1,2.6,1.5c0.2,0.2,0.5,0.5,0.7,0.7c0.1,0.3-0.1,0.7,0.2,1c0,0.1,0,0.3,0.1,0.4
	c0,0.2,0,0.5,0,0.7c0,0.3,0,0.5-0.1,0.8c-0.3,0.5-0.2,1-0.2,1.5c0,12.1,0,24.2,0,36.3c0,0.5-0.1,1,0.2,1.5c-0.1,0.2-0.2,0.5-0.2,0.7
	c-0.1,0.1-0.1,0.2-0.2,0.3c-0.3,0.2-0.6,0.5-1,0.7s-0.8,0.6-1.3,0.7C88,82.2,85,83,81.9,83.8c-6.1,1.6-12.2,3.1-18.3,4.7
	c-0.7,0.4-1.7,0-2.4,0.5c-0.4,0.1-0.8,0.3-1.2,0.4c-2.6,0.3-5-0.8-7.5-1.4c-3.7-0.8-7.3-2-11.1-2.8c-2.3-0.5-4.5-1.1-6.8-1.7
	C32.3,83,30,82.3,27.8,81.7z"/>
<path class="st1" d="M16.5,15.4c0.9,1,0.5,1.6-0.6,2.2c-1.3,0.7-2.4,1.7-3.4,2.7c-0.8,0.9-1.1,2-1.1,3.2c0.2,11.4,0.1,22.7,0,34.1
	c0,2.2-0.4,4.5-0.2,6.8c0.1,0.9-0.2,1.8-1.4,2.1c0-2.6,0-5.1-0.1-7.7c0-12.2,0-24.4,0-36.6c0-0.1,0-0.1,0-0.2c1-0.5,1.4-1.3,1-2.2
	c0.2-0.5,0.5-0.9,0.9-1.2c1,0.4,1.7-0.2,1.9-1.6C14.6,16.5,15.5,16,16.5,15.4z"/>
<path class="st3" d="M86.4,19.2c-1-0.5-1.4-1.5-2.2-2.2c0.8-0.7,1.5-0.2,2.2,0.2c2.1,1.3,3.8,3.1,4.6,5.6c0.4,1.4,0.3,2.9,0.4,4.4
	c0.2,1.9,0,3.7,0.1,5.6c0,0.7-0.2,1.2-1,1.2c0-3.1-0.2-6.1-0.2-9.2s-1.7-5.1-4.2-6.8C86.2,18.6,86.3,18.9,86.4,19.2z"/>
<path class="st4" d="M86.4,19.2c-0.1-0.3-0.2-0.7-0.3-1.2c2.5,1.8,4.1,3.7,4.2,6.8c0,3.1,0.2,6.1,0.2,9.2c-0.1,0.1-0.2,0.3-0.2,0.4
	c-0.3-0.2-0.6-0.3-0.9-0.5c0-0.1,0-0.3,0-0.4c0.1,0,0.2,0,0.2,0c0.5-0.3,0.5-0.8,0.5-1.3c-0.2-2.6-0.2-5.2-0.2-7.9
	c0-1.7-0.6-3.1-1.9-4.2c-0.4-0.3-0.6-0.5-1-0.1C86.7,19.9,86.5,19.6,86.4,19.2z"/>
<path class="st5" d="M9.7,22.3c0,12.2,0,24.4,0,36.6c-0.1,0-0.1,0-0.2,0c0-0.9,0-1.8,0-2.8c0-11.2,0-22.3,0-33.5
	C9.6,22.5,9.7,22.4,9.7,22.3z"/>
<path class="st6" d="M9.5,22.6c0,11.2,0,22.3,0,33.5c0,0.9,0,1.8,0,2.8H9.4c-0.1,0-0.1,0-0.2,0c0-11.6,0-23.2,0-34.8
	C9.3,23.6,9.2,23.1,9.5,22.6z"/>
<path class="st3" d="M66.4,89.2c-0.6,0.4-1.4,0.4-1.9,1c-1.6,0-3.2,0.2-4.6-0.7c0.4-0.1,0.8-0.3,1.2-0.4c0.8,0.5,1.7,0.5,2.6,0.4
	c0.8-0.2,1.6-0.3,2.4-0.5C66.3,89,66.4,89.1,66.4,89.2z"/>
<path class="st7" d="M54.2,10.8c-0.1,0-0.2,0-0.3,0.1c-0.5,0-1,0-1.5,0c-2.5,0-5,0-7.5,0c0.1-0.1,0.2-0.2,0.3-0.2c3,0,5.9,0,8.9,0.1
	C54.2,10.7,54.2,10.7,54.2,10.8z"/>
<path class="st8" d="M54.2,10.6c-3,0-5.9,0-8.9-0.1c1.7-0.5,3.5-0.2,5.2-0.2C51.7,10.3,53,10.1,54.2,10.6z"/>
<path class="st2" d="M13.6,17.1c-0.2,1.5-0.9,2-1.9,1.6C12,17.8,12.9,17.6,13.6,17.1z"/>
<path class="st9" d="M9.6,58.9c0.1,0,0.1,0,0.2,0c0,2.6,0,5.1,0.1,7.7c0,0.1,0,0.2-0.1,0.3c-0.1-0.1-0.2-0.2-0.2-0.3
	C9.5,64,9.5,61.4,9.6,58.9L9.6,58.9z"/>
<path class="st10" d="M9.5,58.9c0,2.6,0,5.1,0,7.7c-0.5-1.3-0.2-2.7-0.2-4c-0.1-1.2,0-2.5,0-3.7C9.3,58.9,9.4,58.9,9.5,58.9z"/>
<path class="st1" d="M59,11.1c0,0.1,0,0.2,0,0.4c-0.1,0.5-0.3,0.8-0.8,0.9c-0.2,0-0.4,0-0.5-0.2c-0.2-0.4,0.1-0.7,0.3-1.1
	C58.3,11.1,58.7,11.1,59,11.1z"/>
<path class="st2" d="M10.7,19.9c0.4,0.8,0.1,1.7-1,2.2C9.5,21.1,10.4,20.7,10.7,19.9z"/>
<path class="st2" d="M60,27.6c-1.5-0.5-2.9,0-4.3,0.6c-1.5,0.3-2.9,0.8-4.3,1.3c-3.9,1.3-7.9,2.5-11.9,3.7
	c-3.7,1.2-7.4,2.3-11.1,3.5c-0.9,0.3-1.8,0.7-2,1.8c-0.1,0.1-0.2,0.3-0.3,0.4c-0.1,0-0.1,0-0.2,0c-0.2-0.1-0.3-0.2-0.5-0.2
	c1-2,2.9-2.8,4.9-3.2c0.5-0.1,1.5,0,1.3-0.8s-1.1-0.4-1.7-0.2c-1.1,0.4-2.1,0.8-3.2,1c-0.7,0.1-1,0.7-1.4,1.2
	c-1.1,1.4-0.6,3-0.8,4.5c-0.2,2.5,0.3,5-0.1,7.5c-0.2,0.9,0.1,1.8,0.2,2.7c0.3,2.2,0,4.5-0.2,6.7c-0.3,2.1,0.4,4.1,0.3,6.2
	c-0.2,2.3-0.2,4.7-0.3,7c-0.1,1.5-0.9,2-2.3,1.5c-0.3-0.1-0.7-0.2-1-0.2c-1.8,0-3.3-1-4.9-1.4c-0.3-0.1-0.8-0.3-0.4-0.8
	c2.4,1,4.9,1.6,7.5,2c0.3-0.8,0.1-1.4,0.2-2c0.3-0.5,0.2-1,0.2-1.5c0-10.1,0-20.3,0-30.4c0.3-1.3,1-2.2,1.9-3.1
	c0.5-0.2,1-0.5,1.5-0.7c1.2-0.3,2.4-0.5,3.4-1.2c3.2-0.6,6.3-1.7,9.3-2.9c1.2,0,2.2-0.6,3.4-1c0.7-0.2,1.5-0.5,2.2-0.7
	c1-0.2,2-0.3,2.9-0.9c0.7-0.1,1.3-0.2,1.9-0.5c0.7-0.3,1.4-0.5,2.1-0.8c0.2,0,0.4,0,0.7,0c0.6,0.4,0.1,0.5-0.2,0.6
	c-1.2,0.4-2.4,0.7-3.5,1.1c-1.6,0.7-3.4,0.8-4.9,1.8c-0.5,0.3-1,0.2-1.5,0.3c-1.8,0.4-3.6,0.8-5.1,1.9c-0.3,0.2-0.6,0.1-0.9,0.1
	c-1.4-0.1-2.6,1-4,1.1c-0.2,0-0.4,0.4-0.3,0.7c0.3,0.4,0.8,0.3,1.1,0.1c1.6-1.2,3.7-0.8,5.4-1.7c1.9-1,3.9-1.4,5.9-2
	c1.5-0.5,3.1-0.9,4.5-1.4c2-0.7,4.2-1,6.1-1.9c0.9-0.4,1.9-0.5,2.8-0.9c0.6-0.3,1.3-0.1,1.9,0.5C60.5,27.3,60.2,27.4,60,27.6z"/>
<path class="st11" d="M60,15.9c1.7,0,3.4-0.2,5.1,0.4c-0.1,0.6,0.6,1,0.7,1.6c0.2,2.6,0.5,5.2,0.1,7.8c-0.1,0.5-0.2,0.9-0.7,0.9
	c-1.3-0.4-2.6-0.5-3.8-1.2c0.2-0.1,0.3-0.2,0.2-0.4c-0.8-1.2-0.6-2.5-0.7-3.8C60.6,19.5,60.7,17.6,60,15.9z"/>
<path class="st12" d="M69.1,16.8c1.2,0,2.5,0.2,3.6,0.7c-0.7,0.1-0.5,0.5-0.3,0.9s0.3,0.9,0.2,1.4c-0.2,1.7,0,3.3,0,5
	c0,1.4,0.5,2.8-0.4,4.1c-1.3-0.3-2.6-0.7-3.8-1.2c0.8-0.1,0.9-0.6,0.9-1.3c0-1.7,0-3.3,0-5c0-1.4,0.2-2.9-0.6-4.2
	C68.6,16.9,68.9,16.9,69.1,16.8z"/>
<path class="st13" d="M69.1,16.8c-0.2,0-0.5,0.1-0.4,0.3c0.8,1.3,0.5,2.8,0.6,4.2c0,1.7,0,3.3,0,5c0,0.6-0.2,1.2-0.9,1.3
	c-1.2-0.1-2.3-0.5-3.4-1c0.5-0.1,0.6-0.5,0.7-0.9c0.5-2.6,0.1-5.2-0.1-7.8c0-0.6-0.7-1-0.7-1.6C66.4,16.4,67.7,16.5,69.1,16.8z"/>
<path class="st14" d="M75.3,18.5c1-0.1,2,0.3,2.9,0.8c-0.2,0.1-0.5,0-0.3,0.3s0.5,0.5,0.5,0.9c0,1.3,0.3,2.6,0.3,3.9
	c-0.1,2.2,0.2,4.4,0,6.6c-0.7-0.2-1.4-0.5-2.2-0.7c0.6-3.4,0-6.8,0-10.2c0-0.6-0.3-1.2-1-1.3C75.5,18.7,75.4,18.6,75.3,18.5z"/>
<path class="st15" d="M72.2,28.8c0.9-1.3,0.4-2.7,0.4-4.1c0-1.7-0.2-3.3,0-5c0.1-0.5,0-0.9-0.2-1.4c-0.2-0.4-0.4-0.8,0.3-0.9
	c0.2,0,0.5,0,0.7,0.2c1.3,1.4,1,3.2,1.2,4.9c0.1,1.5,0,3,0,4.5C74.6,29,74,29.4,72.2,28.8z"/>
<path class="st5" d="M60,15.9c0.7,1.7,0.7,3.6,0.7,5.4c0,1.3-0.2,2.6,0.7,3.8c0.1,0.2,0,0.3-0.2,0.4C60.1,25,59,25,57.8,25
	c1-0.4,0.9-1.3,0.8-2.1c-0.2-1.6-0.4-3.1-0.2-4.7c0.1-1-0.3-1.9-1.3-2.5c0.7,0,1.4,0,2.2-0.1c0.1,0,0.2,0,0.3,0
	C59.7,15.7,59.8,15.8,60,15.9z"/>
<path class="st16" d="M52.9,26.7c-0.2,0-0.4,0-0.7,0c-0.6-0.3-1.5-0.3-1.3-1.3c0.3-2.3-0.3-4.6-0.1-6.9c0.1-1,0-2.1-0.2-3.1
	c0.6,0,1.3,0,1.9,0c0.4,2.6,0.2,5.2,0.2,7.7c0,1.2,0,2.3,0.7,3.3C53.3,26.5,53.1,26.6,52.9,26.7z"/>
<path class="st17" d="M53.5,26.4c-0.7-1-0.7-2.1-0.7-3.3c0-2.6,0.1-5.2-0.2-7.7c1,0,1.9,0,2.9,0c0,0.1,0,0.1,0,0.2
	c-0.1,0-0.2,0-0.3,0c-0.3,0.1-0.8-0.1-0.7,0.5c0.5,2.4,0.1,4.9,0.2,7.4c0,0.9,0.1,1.7,0.5,2.4C54.6,26.1,54,26.3,53.5,26.4z"/>
<path class="st18" d="M55.1,25.9c-0.4-0.8-0.5-1.6-0.5-2.4c-0.1-2.5,0.3-4.9-0.2-7.4c-0.1-0.6,0.4-0.5,0.7-0.5
	c1.4,0.5,1.6,1.5,1.4,2.8c-0.2,0.8-0.3,1.7-0.1,2.5c0.3,1.5,0.1,2.9,0.2,4.4C56.2,25.7,55.6,25.7,55.1,25.9z"/>
<path class="st19" d="M56.6,25.3c-0.1-1.5,0.1-2.9-0.2-4.4c-0.2-0.8,0-1.7,0.1-2.5c0.2-1.3,0-2.3-1.4-2.8c0.1,0,0.2,0,0.3,0
	c0.6,0,1.1,0,1.7,0.1c1,0.5,1.4,1.4,1.3,2.5c-0.2,1.6,0,3.2,0.2,4.7c0.1,0.8,0.2,1.7-0.8,2.1C57.4,25.1,57,25.2,56.6,25.3z"/>
<path class="st20" d="M78.7,31c0.2-2.2,0-4.4,0-6.6c0-1.3-0.3-2.6-0.3-3.9c0-0.4-0.2-0.6-0.5-0.9c-0.2-0.3,0.1-0.3,0.3-0.3
	c0.2,0.1,0.5,0.2,0.7,0.3c-0.1,0.9,1,0.9,1,1.7c0.1,3.3,0.5,6.7-0.1,10C79.5,31.2,79.1,31.1,78.7,31z"/>
<path class="st21" d="M79.9,31.2c0.5-3.3,0.2-6.7,0.1-10c0-0.9-1.2-0.9-1-1.7c1.1,0.2,1.8,1.1,2.4,1.9c-0.4,0.7,0,1.5,0,2.2
	c0,2.7,0,5.4,0,8.1C80.8,31.6,80.4,31.4,79.9,31.2z"/>
<path class="st22" d="M75.6,18.8c0.7,0.2,1,0.7,1,1.3c0,3.4,0.5,6.8,0,10.2c-1-0.1-1.1-0.5-1.1-1.7c0.1-2.8,0.4-5.6,0.1-8.5
	C75.4,19.7,75.4,19.2,75.6,18.8z"/>
<path class="st23" d="M91.2,38.7c0-0.2,0-0.3,0-0.5c0.1,0,0.3,0,0.4,0c0,12.5,0,25,0,37.5c0,0.1,0,0.2,0,0.3
	c-0.4-0.5-0.2-1.1-0.2-1.6c0-11.3,0-22.7,0-34C91.4,39.8,91.5,39.2,91.2,38.7z"/>
<path class="st24" d="M91.7,75.7c0-12.5,0-25,0-37.5c0.3,0.4,0.2,0.8,0.3,1.2c0,0.4,0,0.8,0,1.2c0,11.1,0,22.2,0,33.3
	C91.9,74.5,92,75.1,91.7,75.7z"/>
<path class="st19" d="M88,33.7c-0.1,0-0.1,0-0.2,0c-0.5-2-0.5-4-0.5-6c0-1,0-1.9,0-2.9c0-0.4,0-0.8,0.1-1.2c0.7-0.2,0.7,0.4,0.7,0.8
	c0,3,0.4,6,0.2,9.1C88.2,33.5,88.1,33.6,88,33.7z"/>
<path class="st25" d="M81.3,31.7c0-2.7,0-5.4,0-8.1c0-0.7-0.4-1.5,0-2.2c0.8,0.4,0.7,1.1,0.7,1.8c0,0.5,0,1,0,1.5
	c-0.1,2.4-0.2,4.8,0.2,7.2C81.9,31.9,81.6,31.8,81.3,31.7z"/>
<path class="st26" d="M86.8,20.2c0.4-0.4,0.7-0.2,1,0.1c1.3,1.1,1.9,2.6,1.9,4.2c0,2.6,0,5.2,0.2,7.9c0,0.5,0.1,1-0.5,1.3
	c0.1-3.2-0.2-6.3-0.3-9.4c0-1.1-0.4-2.2-1.2-3.1c-0.2-0.2-0.4-0.4-0.7-0.2c-0.1,0.2-0.2,0.4-0.5,0.5C86.8,21,86.8,20.6,86.8,20.2z"
	/>
<path class="st27" d="M88.3,33.4c0.2-3-0.2-6-0.2-9.1c0-0.4,0-1-0.7-0.8c0-0.4,0-0.8,0-1.2c0.9-0.1,0.7,0.6,0.9,1.1
	c0.1,0.5,0,1,0.5,1.3c0,2.4,0,4.9,0,7.3C88.8,32.5,88.9,33.1,88.3,33.4z"/>
<path class="st28" d="M82.3,32c-0.3-2.4-0.2-4.8-0.2-7.2c0.6,0.3,0.4,0.9,0.4,1.4c0,2,0,4,0,6C82.5,32.1,82.4,32,82.3,32z"/>
<path class="st29" d="M87.3,24.8c0,1,0,1.9,0,2.9c-0.5,1.9-0.1,3.8-0.2,5.7c-0.1,0-0.2,0-0.2,0c0-2.4,0-4.8,0-7.3
	C86.9,25.6,86.8,25.1,87.3,24.8z"/>
<path class="st9" d="M88.8,24.8c-0.6-0.3-0.4-0.9-0.5-1.3c-0.1-0.5,0-1.2-0.9-1.1c-0.2-0.3-0.3-0.6-0.5-1c0.2-0.1,0.4-0.2,0.5-0.5
	c0.8,0.7,1.1,1.7,1.4,2.6C88.8,24,88.8,24.4,88.8,24.8z"/>
<path class="st30" d="M84.7,27.6c0.1-1.8-0.5-3.7-0.2-5.5c0.2,0.1,0.3,0.2,0.5,0.2c0,1.8,0,3.5,0,5.3C84.8,27.7,84.8,27.6,84.7,27.6
	z"/>
<path class="st31" d="M84.7,27.6c0.1,0,0.1,0,0.2,0c0,0.1,0,0.1,0,0.2c0,1.3,0,2.6,0,3.8c0,0.9-0.4,1.2-1.2,0.8c0.8,0,1-0.4,1-1.1
	C84.7,30.1,84.7,28.9,84.7,27.6z"/>
<path class="st14" d="M84.9,27.9c0-0.1,0-0.1,0-0.2c0-1.8,0-3.5,0-5.3C85.3,24.2,85.3,26,84.9,27.9z"/>
<path class="st32" d="M25.4,38.7c0.2,0.1,0.3,0.2,0.5,0.2c0,12.9,0,25.8,0,38.7c-0.2,0.3-0.4,0.2-0.4-0.1c-0.1-0.5-0.1-1-0.1-1.4
	C25.4,63.6,25.4,51.2,25.4,38.7z"/>
<path class="st33" d="M26.6,41.1c0,11.8,0,23.7,0,35.5c0,0.5,0.1,1-0.3,1.5c-0.1-0.2-0.2-0.3-0.3-0.5c0-1,0-2.1,0-3.1
	c0-11.1,0-22.3,0-33.4C26.3,41.1,26.4,41.1,26.6,41.1z"/>
<path class="st19" d="M26.1,41.1c0,11.1,0,22.3,0,33.4c0,1,0,2.1,0,3.1c-0.1,0-0.1,0-0.2,0c0-12.9,0-25.8,0-38.7c0.1,0,0.1,0,0.2,0
	C26.1,39.6,26.1,40.4,26.1,41.1z"/>
<path class="st34" d="M12.4,22.4c0.3,0.6,0.2,1.2,0.2,1.8c0,11.4,0,22.8,0,34.3c0,0.2,0,0.3,0,0.5c-0.1,0-0.3,0-0.4,0
	c0-12.1,0-24.2,0-36.3C12.3,22.5,12.4,22.4,12.4,22.4z"/>
<path class="st35" d="M12.2,22.6c0,12.1,0,24.2,0,36.3h-0.1c-0.1,0-0.1,0-0.2,0c0-11.6,0-23.3,0-34.9C11.9,23.5,11.9,23,12.2,22.6z"
	/>
<path class="st1" d="M52.5,10.8c0.5,0,1,0,1.5,0c0.2,0.5,0.6,0.7,1.2,0.6c0.4-0.1,0.9-0.2,1.3,0.3c-3.3,0.7-6.5,0.5-10.1,0.5
	c0.7-0.6,1.3-0.7,1.9-0.7c1,0,2,0,3,0C51.8,11.5,52.3,11.5,52.5,10.8z"/>
<path class="st36" d="M12.2,58.9c0.1,0,0.3,0,0.4,0c0,0.4,0,0.8,0,1.2c0,1.8,0,3.5,0,5.3c0,0.5,0.1,1-0.2,1.4h-0.1h-0.1
	C12.2,64.2,12.1,61.5,12.2,58.9L12.2,58.9z"/>
<path class="st37" d="M53.2,13.2c-2.7,0-5.5,0-8.2,0c0.1-0.1,0.2-0.2,0.3-0.2c3,0,5.9,0,8.9,0v0.1C53.8,13.1,53.5,13.2,53.2,13.2z"
	/>
<path class="st38" d="M54.2,12.9c-3,0-5.9,0-8.9,0c1-0.4,2-0.2,3.1-0.2C50.3,12.8,52.3,12.5,54.2,12.9z"/>
<path class="st39" d="M12.1,58.9c0,2.6,0.1,5.3,0.1,7.9c-0.3-0.4-0.3-0.9-0.3-1.4c0-2.2,0-4.4,0-6.6C12,58.9,12.1,58.9,12.1,58.9z"
	/>
<path class="st1" d="M91.7,75.7c0.3-0.6,0.2-1.2,0.2-1.8c0-11.1,0-22.2,0-33.3c0.8,0.3,0.7,1,0.7,1.6c0,5.5,0,11,0,16.4
	c0,5.9,0,11.8,0,17.6c0,0.8,0,1.6-1,1.8c0-0.7,0-1.4,0-2.1C91.6,75.9,91.7,75.8,91.7,75.7z"/>
<path class="st36" d="M66.2,88.9c-0.8,0.2-1.6,0.3-2.4,0.5c-0.1-0.3-0.2-0.6-0.2-0.9c6.1-1.6,12.2-3.1,18.3-4.7
	c3.1-0.8,6.2-1.5,9.2-2.4c0.4-0.1,0.8-0.4,1.3-0.7c0.1,0.5,0.3,0.7,0.8,0.4c0.4-0.2,0.9-0.4,1.3-0.4c0.1,0,0.2,0,0.2,0
	c-1.2,1.2-2.8,1.2-4.3,1.6C88.3,83,86,83.5,83.8,84c-1.8,0.4-3.6,0.6-5.3,1.4c-2.2,0.5-4.4,0.8-6.5,1.7c-1.2,0-2.3,0.4-3.5,0.8
	C67.9,88.3,66.9,88.2,66.2,88.9z"/>
<path class="st40" d="M93.6,79.8c0.1-0.2,0.2-0.5,0.2-0.7c0.3-0.4,0.3-0.9,0.3-1.4c0-12.5,0-25,0-37.5c0.3-0.3,0.6-0.4,1,0
	c0,12.3,0,24.6,0,36.9c0,0.5,0,1.1-0.1,1.5C94.7,79.2,94.5,79.9,93.6,79.8z M94.4,78c0.1,0,0.2,0,0.2,0c0-12.3,0-24.6,0-36.9
	c-0.1,0-0.2,0-0.2,0C94.4,53.3,94.4,65.6,94.4,78z"/>
<path class="st9" d="M95,40.1c-0.3-0.4-0.7-0.3-1,0c-0.1-0.2-0.2-0.3-0.2-0.5c0-0.3,0-0.5,0.1-0.8c0.6-0.2,1.1-0.2,1.4,0.5
	c0.2,0.6,0.6,1.1,0.5,1.7c0,11.8,0,23.5,0,35.3c0,0.6,0.2,1.3-0.5,1.7c0-12,0-24.1,0-36.1C95.3,41.4,95.4,40.7,95,40.1z"/>
<path class="st32" d="M93.8,39.7c0.1,0.2,0.2,0.3,0.2,0.5c0,12.5,0,25,0,37.5c0,0.5,0,1-0.3,1.4c-0.3-0.5-0.2-1-0.2-1.5
	c0-12.1,0-24.2,0-36.3C93.6,40.7,93.5,40.2,93.8,39.7z"/>
<path class="st41" d="M95.3,78.1c0.7-0.4,0.5-1.1,0.5-1.7c0-11.8,0-23.5,0-35.3c0.3,0.6,0.2,1.2,0.2,1.8c0,11.1,0,22.2,0,33.3
	c0.3,1.8-0.3,3.3-1.4,4.6c-0.5,0-0.9,0.2-1.3,0.4c-0.5,0.3-0.7,0-0.8-0.4c0.3-0.2,0.6-0.5,1-0.7c0.3,0.5,0.6,0.3,1,0.1
	C95,79.6,95.3,79,95.3,78.1z"/>
<path class="st42" d="M96,76.2c0-11.1,0-22.2,0-33.3c0-0.6,0.1-1.2-0.2-1.8c0-0.6-0.3-1.1-0.5-1.7c-0.3-0.7-0.8-0.6-1.4-0.5
	c0-0.2,0-0.5,0-0.7c0.9-0.4,1.3,0.5,1.9,0.7c0.5,1.9,0.5,3.8,0.5,5.7c0,10.5,0,21,0,31.5C96.1,76.2,96.1,76.2,96,76.2z"/>
<path class="st9" d="M95.3,78.1c0.1,0.9-0.3,1.5-1,2c-0.3,0.2-0.7,0.5-1-0.1c0.1-0.1,0.1-0.2,0.2-0.3c0.9,0.2,1.2-0.5,1.4-1.2
	C95,78,95,77.5,95,77c0-12.3,0-24.6,0-36.9c0.3,0.6,0.2,1.2,0.2,1.9C95.3,54,95.3,66.1,95.3,78.1z"/>
<path class="st43" d="M91.6,76c0,0.7,0,1.4,0,2.1c-0.1,0-0.1,0-0.2,0c-0.3-0.4-0.2-1-0.3-1.5c0-12.6,0-25.2,0-37.7
	c0-0.1,0-0.2,0-0.3c0.4,0.5,0.2,1.1,0.2,1.6c0,11.3,0,22.7,0,34C91.4,74.9,91.3,75.5,91.6,76z"/>
<path class="st44" d="M88.8,24.8c0-0.4,0-0.8,0-1.2c0.2,0.3,0.3,0.7,0.2,1c-0.1,3,0.2,6,0.2,9.1c0,0.1,0,0.3,0,0.4
	c-0.5,0.1-0.9,0-1.2-0.4c0.1-0.1,0.2-0.2,0.3-0.3c0.6-0.3,0.5-0.9,0.5-1.4C88.8,29.6,88.8,27.2,88.8,24.8z"/>
<path class="st1" d="M87.1,33.4c0.1-1.9-0.2-3.8,0.2-5.7c0,2,0,4,0.5,6C87.5,33.9,87.3,33.7,87.1,33.4z"/>
<path class="st45" d="M93.5,36.8c0.4-0.4,0.7-0.4,1.1-0.1c0.7,0.5,1.5,1,2,1.8c0,0.2,0,0.3,0,0.5c-0.2-0.1-0.3-0.2-0.5-0.2
	c-0.2-0.7-0.7-1.1-1.4-1.2c-0.4-0.2-0.7,0-1,0.3C93.5,37.5,93.6,37.1,93.5,36.8z"/>
<path class="st46" d="M63.5,88.5c0.1,0.3,0.2,0.6,0.2,0.9c-0.9,0.1-1.8,0.1-2.6-0.4C61.9,88.5,62.8,88.8,63.5,88.5z"/>
<path class="st47" d="M93.8,37.8c0.3-0.3,0.6-0.5,1-0.3c0.3,0.5,1,0.8,1,1.4l0,0c-0.6-0.3-1-1.2-1.9-0.7
	C93.8,38.1,93.8,37.9,93.8,37.8z"/>
<path class="st48" d="M96.7,38.9c0-0.2,0-0.3,0-0.5c0.9,1.2,0.8,2.7,0.8,4c-0.1,6.3,0,12.6,0,18.9c0,5.6,0,11.2,0,16.8
	c0,1.8-0.7,2.9-2.2,3.3c1.6-1.3,1.7-3,1.7-4.8c-0.1-11.5,0-23.1,0-34.6C96.9,41,96.9,40,96.7,38.9z"/>
<path class="st46" d="M96.7,38.9c0.2,1,0.2,2.1,0.2,3.1c0,11.5,0,23.1,0,34.6c0,1.9-0.1,3.6-1.7,4.8c-0.5,0.2-1,0.5-1.4,0.7
	c-1.3,0-2.5,0.2-3.6,1c-1.6,0.2-3.1,1-4.8,1c-0.5,0-1,0-1.4,0c2.2-0.6,4.4-1,6.6-1.7c1.4-0.5,3.1-0.4,4.3-1.6
	c0.7-0.4,1.2-0.9,1.4-1.7c0.1-0.2,0.2-0.3,0.2-0.5c0.3-0.5,0.2-1,0.2-1.5c0-11.7,0-23.4,0-35.2c0-0.5,0.1-1-0.2-1.5
	c0-0.2,0-0.3,0-0.5c-0.1-0.4-0.2-0.8-0.2-1.2C96.4,38.8,96.5,38.9,96.7,38.9z"/>
<path class="st49" d="M84,84.1c0.5,0,1,0,1.4,0c-0.8,0.7-1.9,0.7-2.9,1c-1.3,0.3-2.6,0.5-3.9,0.7c0-0.1,0-0.2,0-0.2
	C80.3,84.7,82.2,84.5,84,84.1z"/>
<path class="st49" d="M78.7,85.6c0,0.1,0,0.2,0,0.2c-0.6,0.7-1.4,0.7-2.2,0.8c-1.4,0.3-2.8,0.9-4.3,0.8c0-0.1,0-0.2,0-0.2
	C74.3,86.3,76.5,86,78.7,85.6z"/>
<path class="st49" d="M72.2,87.2c0,0.1,0,0.2,0,0.2c-1.8,0.9-3.8,1.3-5.8,1.7c-0.1-0.1-0.2-0.2-0.2-0.2c0.7-0.8,1.7-0.6,2.5-0.9
	C69.9,87.7,71,87.3,72.2,87.2z"/>
<path class="st48" d="M90.2,83.2c1.1-0.7,2.3-0.9,3.6-1C92.7,82.8,91.5,83,90.2,83.2z"/>
<path class="st50" d="M89.3,33.7c0-3-0.4-6-0.2-9.1c0-0.4,0-0.7-0.2-1c-0.4-0.9-0.7-1.9-1.4-2.6c0.3-0.2,0.5,0,0.7,0.2
	c0.8,0.9,1.2,1.9,1.2,3.1c0.1,3.1,0.4,6.3,0.3,9.4C89.4,33.6,89.3,33.7,89.3,33.7z"/>
<path class="st51" d="M56.8,30.1c0.5-0.1,0.9-0.2,1.4-0.3c0.3,0.3,0.5,0.6,0.5,1c0,0.3,0,0.6,0,1c-0.6-0.2-0.3-1-0.8-1.2
	c-0.3,0-0.5,0.2-0.5,0.4c0.4,2.4-0.2,4.7-0.4,7.1c-0.3,2.7,0.7,5.4,0.5,8.1c-0.1,1.7,0,3.3,0,5c-0.6,1.7,0.1,3.5-0.4,5.3
	c-1.1-0.6-2-1.2-1.8-2.6c0.2-1.1-0.2-2-1.3-2.5c0.5-0.5,1.6-0.5,0.7-1.3c-0.5-0.4-1.1-0.8-1.5-1.3c-0.3-0.4-0.7-0.3-1,0
	c-0.1-0.6-0.5-1-1.1-1.1c-0.7,0-0.7,0.6-0.8,1c-0.5,1.2-0.3,2.7-1.5,3.7c0,0-0.1,0.2,0,0.2c0.2,1.1-0.4,1.9-0.7,2.9
	s-0.4,2.2-0.6,3.3c0,0.3,0.1,0.5,0.4,0.4c0.4,0,0.8,0,1.2,0c0.6,0.6,0.8,1.3,0.7,2.2c0,1.3,0,2.5,0,3.8c-0.7,0.6-0.8,1.4-1,2.3
	c-0.4,2.5-2.2,4-4.3,3.7c-0.8-0.1-1.2-0.5-1.2-1.3s0.1-1.6-0.2-2.4c-0.1-0.3-0.3-0.7,0.1-0.9c0.4-0.2,0.8-0.1,1.1,0.2
	c0.3,0.2,0.4,0.6,0.5,0.9c0.2,0.5,0.2,1.3,1,1c0.7-0.3,1.1-0.8,0.6-1.6c-0.4-0.7-0.3-1.4,0.4-1.9c1.4-1,1.4-3.7,0-4.8
	c-0.6-0.4-0.9-1-0.8-1.7c0.1-1.5,0.3-3,0.2-4.4c-0.1-1.2,0-2,1.1-2.5c-0.8-1.4-0.7-1.6,0.8-2c0.4-0.1,0.9-0.2,0.8-0.8
	c-0.1-0.6-0.6-0.6-1.1-0.6c-2.5,0.1-5,0.1-7.5,0.2c-0.8,0-1.5-0.1-2.3,0c-1-0.2-1.3,0.4-1.1,1.4c0.2,0.9,0.2,1.9,0.2,2.9
	c0,4.7,0,9.4,0,14c0,0.6-0.2,1.4,0.6,1.5c0.7,0.1,0.7-0.7,0.8-1.2c0.2-0.9,0.8-1.1,1.6-1.1c0.4,0,0.7,0.1,1.1,0.1
	c0.4,0,0.9-0.1,1,0.4c0.1,0.4-0.3,0.6-0.5,0.9c-1.3,1-2.6,1.9-4,2.8c-0.4,0.2-0.7,0.9-1.2,0.5s-0.4-1.1-0.3-1.6
	c0.6-1.8,0.4-3.6,0.4-5.5c0-3,0-6.1,0-9.1c0-1.4-0.6-2.7-0.2-4c0.2-0.5-0.4-0.6-0.8-0.4c-0.2,0.1-0.5,0.2-0.7,0.3
	c-0.7,0-1.4,0-2.2,0s-1.3,0.3-1.2,1.2c-0.5,0.4-0.4,0.9-0.4,1.4c0,6.9,0,13.8,0,20.7c0,0.5,0,1,0.5,1.4c0.7,0.6,1.6,0.6,2.4,0.9
	c0.3,0.1,0.7,0.1,0.7-0.4c0.1,0,0.3,0,0.4-0.1c0.2,0,0.3,0,0.5,0c0.7-0.4,1-1,0.6-1.8c-0.2-0.6-0.2-1.3,0.1-2.1
	c1.1,1.2,2.1,2.2,3.1,3.3c0.5,0.6,1.2,1,1.5,1.7c0.2,0.5,0.5,0.9,1.1,0.8c0.7-0.1,1.1-0.5,1.2-1.1c0.2-1.2,1-1.3,1.9-1.1
	c0.3,0.1,0.5,0,0.8,0c1.9-0.1,3-1.4,4.1-2.6c0.9-0.9,1.9-1.9,2.1-3.3c0.9-0.1,1.3-0.6,1.4-1.4c0.1-1,0.3-1.7,1.5-1.8
	c-0.5-1-1.1-1.9-0.5-2.9c0.5-0.8,0.7-1.6,0.8-2.5c0-0.8,0.5-1.2,1.2-1.2c0.8,0,0.7,0.7,0.7,1.3c0,2.4,0,4.8,0,7.2
	c0,1.1,0.3,2.2,0.2,3.3c-0.4,3.7-0.1,7.4-0.1,11c0,0.2,0.1,0.4,0.2,0.6c0,0.1,0,0.2,0,0.2c-0.2,0-0.3,0-0.5,0
	c-0.4-1.3-3.6-2.9-5-2.5c-0.3,0.1-0.7,0.3-1,0.1c-1.2-0.5-2.3-0.2-3.4,0.2c-0.5-0.1-1-0.2-1.5-0.3c-1.8-0.4-3.6-0.8-5.3-1.3
	c-2-0.5-2.1-0.3-2.5-2.4c-0.1-0.6-0.2-1.2-0.9-1.4c-1.1,0.9,0.2,1.5,0.2,2.2c-0.5,0.5-1.1,0.5-1.6,0.4c-1.7-0.3-3.3-0.8-5-1.1
	c-1.3-0.2-1.7-1-1.7-2.1c0-11.3,0-22.5,0-33.8c0-1.2,0.4-2.1,1.6-2.5c0.5-0.1,0.5-0.3,0.1-0.6c0.7-0.3,1.3-0.5,2-0.8
	c3.3-1,6.6-1.9,9.9-3c2.8-0.9,5.6-1.6,8.4-2.6C53.2,31.2,55.1,31,56.8,30.1z M54.9,43.7c0.1-0.3,0.2-0.5,0.2-0.8c0-2.4,0-4.8,0-7.2
	c0-0.3-0.1-0.6-0.3-0.9c-0.1,0-0.3,0-0.4,0c-1.9,0.5-3.7,1-5.6,1.6c-2,0.6-3.9,1.1-5.9,1.7c-1.9,0.6-3.9,1.1-5.8,1.6
	c-0.4,0.3-0.3,0.7-0.3,1.1c0,1.6,0,3.2,0,4.8c0,1.3,0.1,1.4,1.5,1c2.5-0.4,5-0.8,7.4-1.2c2.9-0.5,5.7-1,8.6-1.5
	C54.6,44,54.8,43.9,54.9,43.7z M31.6,47.8c0.4,0,0.8,0,1.2-0.2c0.8,0.1,1.4-0.3,2.1-0.5c0.1,0,0.2,0,0.3,0c0.4-0.2,0.5-0.5,0.5-0.9
	c0-1.7,0-3.5,0-5.2c0-0.4-0.1-0.7-0.5-0.8c-0.2,0.1-0.5,0.1-0.7,0.2c-0.8,0.3-1.6,0.5-2.4,0.8c-0.2,0-0.3,0-0.5,0
	c-0.6,0-0.5,0.4-0.5,0.8c0,1.6,0,3.3,0,4.9C31.1,47.2,31.2,47.6,31.6,47.8z M56.4,81.9c0.6-0.7,0.6-1.5,0.6-2.3c0-3.2,0.1-6.4,0-9.6
	c-0.1-2.2-0.2-4.3-0.2-6.5c0-0.8,0.2-1.6,0.2-2.4c0-0.4-0.1-0.9-0.5-0.9c-0.6-0.1-0.5,0.5-0.6,0.8c-0.3,1.2-0.2,2.5-0.2,3.7
	c0,1,0.5,2.3-1.2,2.5c-0.1,0-0.2,0.2-0.2,0.3c-0.2,1.6-1.7,2.9-1.1,4.7c0.1,0.3,0,0.7-0.1,1.1c-0.1,0.8-0.5,1.4-1.4,1.4
	s-1.3,0.5-1.3,1.4c0,0.5-0.4,1-0.9,0.9c-1.1-0.3-2.2,0.2-3.3,0.1c-0.6,0-1.1,0.2-1,0.8c0.1,0.6,0.6,1,1.2,0.7
	c0.8-0.3,1.3,0.1,1.4,0.8c0.1,0.9,0.7,1.1,1.4,1.1c1.1,0,2.3,0.1,3.5-0.1C54,80.2,55.3,81.1,56.4,81.9z M47,34.4
	c1.1-0.1,1.9-0.1,2.4,0.8c0.2,0.3,0.6,0.1,0.9,0c1.3,0,2.2-1,3.5-1c1.6,0,1.7,0,1.6-1.5c0-0.4,0.3-0.8,0-1.2
	c-1.1-0.3-1.4,0.4-1.5,1.3C52,32.4,48.2,33.2,47,34.4z M36.6,40.2C36.6,40.2,36.5,40.2,36.6,40.2c-0.1,2-0.1,4.1-0.1,6.1h0.1
	C36.6,44.2,36.6,42.2,36.6,40.2z M56.2,44.2c0.5-0.8,0.5-1.3-0.1-1.9C55.6,42.9,55.6,43.5,56.2,44.2z"/>
<path class="st52" d="M58.8,30.8c0-0.4-0.2-0.7-0.5-1c0.4-0.4,0.8-0.1,1.2,0c4.4,1.4,8.7,2.7,13.1,4.1c2.5,0.8,5,1.6,7.4,2.3
	c2.9,0.9,5.9,1.8,8.8,2.7c0,11.9,0,23.8,0,35.8c0,0.4,0,0.9,0.2,1.3h0.1c0.2,1-0.3,1.4-1.2,1.6c-1.1,0.2-2.2,0.6-3.4,0.9
	c-1.9,0.2-3.7,0.9-5.6,1.3c-4.6,1.1-9.1,2.5-13.7,3.5c-1.4,0.3-2.8,0.8-4.2,1.2c-0.7-0.2-1.4,0.8-2.2,0.2c0-0.1,0-0.1,0-0.2
	c0.1,0,0.2,0,0.2,0c0.3-0.4,0.2-0.8,0.2-1.3c0-4.2,0-8.4,0-12.6c0-0.4,0-0.9-0.2-1.3c0-6.1,0-12.2,0-18.3c0-6.2,0-12.4,0-18.6
	C59,31.8,59.1,31.3,58.8,30.8z M85.4,75c0.3-2.1,0.4-4.2-0.1-6.2c-0.4,0-0.8,0-1.1,0c-1.5,0.1-3,0.4-4.5,0.5
	c-0.8,0.1-1.8-0.1-2.5,0.4c-1.2,0.1-0.2,1-0.5,1.5c-0.4,1.5-0.2,3-0.2,4.5c0,1.2-0.8,1.5-1.7,1.7C75.1,77,75,76.5,75,76c0-2,0-4,0-6
	c0.2,0.2,0.3,0.6,0.8,0.3c0-0.8,0.4-1.3,1.3-1.6c0.8-0.3,1.5,0.1,2.2-0.1c1.9-0.3,3.9-0.1,5.8-0.5c1.1-0.2,1.6,0.1,1.6,1.3
	c0,1.3,0,2.6,0,3.8c0,2.3-0.8,3.1-3.1,3.1c-0.5,0-0.9,0.1-1.2,0.3c-0.3,0.2-0.6,0.4-0.5,0.8s0.6,0.5,0.9,0.4
	c1.1-0.5,2.3-0.3,3.5-0.7C88,76.6,88,76.7,88,75c0-11.3,0-22.6,0-33.9c0-1.8-0.9-2.6-2.6-2.4c-0.4,0-0.6-0.1-0.8-0.3
	c-0.9-1-2-1-3.2-1c-0.4,0-0.8,0.1-1.1-0.2c-0.6-0.6-1.4-0.7-2.2-0.6c-0.6,0-1.1-0.2-1.6-0.4c-1.5-0.4-2.6-1.9-4.2-1.7
	c-2.1,0.3-3.6-1-5.4-1.5c-1.5-0.5-3-1.2-4.6-1.2c-0.4,0-0.8-0.2-1.1-0.5c-0.6-0.6-1-0.3-1.2,0.3c-0.1,0.5-0.3,1-0.2,1.4
	c0.4,2.8,0.2,5.5,0.1,8.3c-0.1,1.8-0.2,3.7,0,5.5c0.1,1,0,2.1-0.1,3.1c-0.2,1.6-0.4,3.2-0.4,4.9c0,3,0,6.1,0,9.1
	c-0.1,3.7,0.7,7.4,0.5,11.1c-0.1,2.3,0,4.6,0,7c0,1.3,0.7,1.9,1.8,1.5c1.4-0.5,3-0.7,4.2-1.4c1-0.6,2-0.7,3-0.7c0.3,0,0.5,0,0.8-0.2
	c0.9-0.7,2-1,3.1-0.8c1.9,0.3,3.4-1.3,5.2-1.1c0.1,0,0.3-0.1,0.4-0.2c0.6-0.6,1.2-1,2.1-0.8c0.3,0.1,0.7-0.1,0.6-0.7
	c-1.5-0.5-3-0.3-4.5,0c0.1-0.5,0.5-0.4,0.7-0.6c2.4-0.5,4.6-1.3,7-1.5C84.9,75.4,85.2,75.4,85.4,75L85.4,75z"/>
<path class="st6" d="M89,38.9c0.3,0.5,0.2,1,0.2,1.5c0,11.3,0,22.6,0,34c0,0.5,0.1,1-0.2,1.5h-0.1c0-0.3,0-0.6,0-0.8
	C89,63.1,89,51,89,38.9z"/>
<path class="st22" d="M89,38.9C89,51,89,63,89,75.1c0,0.3,0,0.6,0,0.8c-0.2-0.4-0.2-0.9-0.2-1.3c0-11.9,0-23.8,0-35.8
	C88.9,38.9,88.9,38.9,89,38.9z"/>
<path class="st53" d="M87.4,78.5c0.6-0.3,1.1-0.6,1.8-0.6c0,0.1,0.1,0.2,0.1,0.3c-0.6,0.2-1.2,0.4-1.8,0.6
	C87.4,78.7,87.4,78.6,87.4,78.5z"/>
<path class="st37" d="M29.7,16.8c2-0.6,4.2-0.7,6.3-0.9c1.3-0.2,2.7-0.2,4.1-0.3c-0.4,0.2-0.8,0.2-1.2,0.3c-0.4,0-0.7,0.2-0.6,0.7
	c0.2,3.8,0,7.6,0.1,11.4c0,1.1,0.1,2.2,1.4,2.6c-3,1.2-6.1,2.3-9.3,2.9c-0.3-1.4-0.3-2.9-0.3-4.4c0-1.1,0.4-2.2,0.2-3.3
	c-0.3-2.1,0-4.3-0.2-6.4c-0.1-0.5,0-1,0.2-1.5C30.7,17,30.3,16.8,29.7,16.8z"/>
<path class="st54" d="M29.7,16.8c0.6,0,1,0.2,0.7,0.9c-0.2,0.5-0.2,1-0.2,1.5c0.2,2.1-0.1,4.3,0.2,6.4c0.2,1.1-0.2,2.2-0.2,3.3
	c0,1.5,0,2.9,0.3,4.4c-1,0.7-2.2,0.9-3.4,1.2c-0.2,0-0.4,0-0.8-0.1c1-0.6,1-1.4,1-2.2c0-4.4,0-8.7,0-13.1c0-1.7,0-1.7-1.7-1.7
	C26.9,17,28.3,17.2,29.7,16.8z"/>
<path class="st55" d="M39.8,30.5c-1.3-0.4-1.4-1.4-1.4-2.6c-0.1-3.8,0.1-7.6-0.1-11.4c0-0.5,0.2-0.7,0.6-0.7c0.4,0,0.8,0,1.2-0.3
	c0.4,0,0.8,0,1.2,0c0.2,1,0.2,2.1,0.2,3.1c0,2.9-0.1,5.8,0.2,8.7c0.1,1,0.4,1.8,1.5,2C42,29.9,41,30.5,39.8,30.5z"/>
<path class="st56" d="M43.1,29.5c-1-0.3-1.3-1-1.5-2c-0.3-2.9-0.2-5.8-0.2-8.7c0-1,0-2.1-0.2-3.1c0.2,0,0.5,0,0.7,0
	c0.6,0,1.1,0,1.7,0c0.4,0.8,0.5,1.7,0.5,2.6c0,2.9,0,5.8,0,8.8c0,1,0.2,1.6,1.2,1.9C44.6,29.1,43.9,29.3,43.1,29.5z"/>
<path class="st57" d="M25.6,17.5c1.7,0,1.7,0,1.7,1.7c0,4.4,0,8.7,0,13.1c0,0.8,0,1.6-1,2.2c0.4,0.1,0.6,0.1,0.8,0.1
	c-0.5,0.2-1,0.5-1.5,0.7c-0.1-1.3-0.2-2.6-0.2-4c0-4.2,0-8.5,0-12.7c0-0.5,0-0.8-0.6-0.9C25.1,17.7,25.4,17.6,25.6,17.5z"/>
<path class="st50" d="M50.1,27.4c-0.6,0.3-1.2,0.4-1.9,0.5c-0.2-0.1-0.5-0.3-0.7-0.2c-1.4,0.3-1.6-0.3-1.3-1.5c0.1-0.3,0-0.6,0-1
	c-0.1-3.3-0.2-6.6-0.2-9.9l0,0c0.9,0,1.8,0,2.6,0c0,3.3,0,6.5,0,9.8C48.6,26.3,49,27.1,50.1,27.4z"/>
<path class="st58" d="M46,15.4c0.1,3.3,0.2,6.6,0.2,9.9c0,0.3,0,0.7,0,1c-0.3,1.2,0,1.8,1.3,1.5c0.2,0,0.4,0.1,0.7,0.2
	c-0.9,0.6-1.9,0.7-2.9,0.9c-1-0.2-1.3-0.9-1.2-1.9c0-2.9,0-5.8,0-8.8c0-0.9-0.1-1.8-0.5-2.6C44.4,15.2,45.2,15.4,46,15.4z"/>
<path class="st59" d="M50.1,27.4c-1.2-0.3-1.5-1.1-1.5-2.2c0-3.3,0-6.5,0-9.8c0.6,0,1.3,0,1.9,0c0.2,1,0.3,2.1,0.2,3.1
	c-0.2,2.3,0.4,4.6,0.1,6.9c-0.1,1,0.8,1,1.3,1.3C51.6,26.9,50.8,27.2,50.1,27.4z"/>
<path class="st60" d="M24.9,17.8c0.5,0.1,0.6,0.4,0.6,0.9c0,4.2-0.1,8.5,0,12.7c0,1.3,0.1,2.6,0.2,4c-0.9,0.9-1.6,1.9-1.9,3.1
	c-0.1,0.2-0.2,0.3-0.3,0.5c-0.3,0.6-0.2,1.2-0.2,1.8c0,9.5,0,19,0,28.5C22.9,68.7,23,68,23,67.5c0-8.4,0-16.7,0-25.1
	c0-1.7-0.1-3.4,0.2-5.1c1.4-1.1,1.4-2.7,1.4-4.2c0-3.1-0.2-6.3-0.1-9.4c0.1-1.9,0.3-3.9-0.2-5.8C24.6,17.8,24.7,17.8,24.9,17.8z"/>
<path class="st13" d="M23.4,38.9c0.1-0.2,0.2-0.3,0.3-0.5c0,10.1,0,20.3,0,30.4c0,0.5,0.1,1-0.2,1.5c0-0.1-0.1-0.3-0.1-0.4
	C23.4,59.6,23.4,49.3,23.4,38.9z"/>
<path class="st33" d="M26.4,38.5c0.2,0.5,0.2,0.9,0.2,1.4c0,0.4,0,0.8,0,1.2c-0.1,0-0.3,0-0.4,0c0-0.7,0-1.5-0.1-2.2
	C26.2,38.8,26.3,38.6,26.4,38.5z"/>
<path class="st61" d="M46,15.4c-0.8,0-1.6-0.1-2.4,0.3c-0.6,0-1.1,0-1.7,0c1.2-1.1,2.7-1,4.1-0.9c0.8,0,1.7,0.2,2.5,0
	c0.9-0.2,1.8-0.1,2.6,0.1c0.8,0.2,1.6,0.2,2.4,0.1c0.8-0.1,1.6-0.2,2.3,0.2c0.5,0.2,1.1,0.1,1.6-0.2c0.8-0.4,1.4-0.2,1.7,0.7
	c-0.7,0-1.4,0-2.2,0.1c-0.6,0-1.1,0-1.7-0.1c0-0.1,0-0.1,0-0.2c-0.4-0.3-0.8-0.3-1.3-0.3c-1.9,0-3.8,0-5.7,0
	C47.6,15.2,46.8,15,46,15.4L46,15.4z"/>
<path class="st62" d="M46,15.4c0.8-0.4,1.6-0.2,2.4-0.2c1.9,0,3.8,0,5.7,0c0.4,0,0.9,0,1.3,0.3c-1,0-1.9,0-2.9,0c-0.6,0-1.3,0-1.9,0
	c-0.6,0-1.3,0-1.9,0C47.8,15.4,46.9,15.4,46,15.4z"/>
<path class="st63" d="M58.8,84.4c0,0.1,0,0.1,0,0.2c-0.2,0-0.3,0-0.5,0c-0.2-0.4-0.5-0.8-0.7-1.2c0-0.1,0-0.2,0-0.2
	c0-10.7,0-21.3,0-32c0-1.7-0.1-3.4,0-5c0.2-2.7-0.8-5.4-0.5-8.1c0.2-2.4,0.8-4.7,0.4-7.1c0-0.3,0.2-0.4,0.5-0.4
	c0.5,0.2,0.2,1,0.8,1.2c0,6.4,0,12.8,0,19.2C58.8,62.1,58.8,73.2,58.8,84.4z"/>
<path class="st51" d="M57.5,83.4c0.2,0.4,0.5,0.8,0.7,1.2c-2.2-0.2-4.3-0.9-6.5-1.4c-2.7-0.6-5.4-1.4-8.2-2
	c-3.8-0.8-7.6-1.9-11.5-2.9c-1.1-0.3-2.3-0.6-3.4-0.9c0-0.2,0-0.3,0-0.5c0.3-0.5,0.2-1,0.2-1.5c0-10.4,0-20.9,0-31.3
	c0-0.5,0.1-1-0.2-1.5c0.1-1.2-0.3-2.4,0.2-3.6c0.7-0.2,1.4-0.5,2.2-0.7c0.4,0.3,0.4,0.4-0.1,0.6c-1.3,0.4-1.6,1.4-1.6,2.5
	c0,11.3,0,22.5,0,33.8c0,1.2,0.4,1.9,1.7,2.1c1.7,0.3,3.3,0.7,5,1.1c0.5,0.1,1.1,0.1,1.6-0.4c-0.1-0.7-1.3-1.3-0.2-2.2
	c0.7,0.3,0.7,0.9,0.9,1.4c0.5,2.1,0.5,1.8,2.5,2.4c1.8,0.5,3.5,0.9,5.3,1.3c0.5,0.1,1,0.2,1.5,0.3c0.8,0.4,1.7,0.2,2.4,0.6
	c1.7,0.9,3.8,0.5,5.4,1.6c0.4,0.3,1,0.2,1.5,0C57.2,83.4,57.4,83.4,57.5,83.4z"/>
<path class="st64" d="M28.7,76.9c0,0.2,0,0.3,0,0.5c-0.2-0.1-0.4-0.1-0.6-0.2c0-6.8,0-13.6,0-20.3c0-1.4,0-2.8,0-4.2
	c0.1,0,0.3,0,0.4,0C28.7,60.7,28.7,68.8,28.7,76.9z"/>
<path class="st65" d="M18.6,19.7c0.2-0.1,0.5-0.2,0.7-0.2c0.3,0,0.6,0.1,0.5,0.5c-0.4,0.7-0.5,1.5-0.5,2.3c0.1,1.7,0.2,3.3,0.2,5
	c0,13.2,0,26.4,0,39.6c0,0.7-0.2,1.4,0.5,1.9c0.1,0.2,0.2,0.3,0.2,0.5c-0.1,0.1-0.1,0.1-0.2,0.2c-0.5-0.2-1-0.1-1.4-0.5
	c0.4-0.4,0.2-0.8,0.2-1.2c-0.1-1-0.2-2.1-0.2-3.1c0-4.3,0-8.6,0-12.8c0-10,0-19.9-0.1-29.9C18.6,21.1,19,20.4,18.6,19.7z"/>
<path class="st66" d="M17,20.9c0.1-0.1,0.2-0.1,0.2-0.2c0.3,0.3,0.3,0.7,0.3,1.1c0.3,2.8,0,5.6,0.1,8.5c0.2,5.8,0.1,11.6,0.1,17.4
	c0,6.2,0,12.4,0,18.6c0,0.6-0.1,1.3,0.5,1.8c0.1,0.2,0,0.4-0.3,0.5c-0.4,0-0.8,0.1-1.2-0.3c0.1-0.2,0.2-0.5,0.2-0.7
	c0-2.7,0-5.4,0-8.1c0-0.5,0-1-0.2-1.5c-0.2-2.6-0.3-5.3,0-7.9c0-9.5,0-19.1,0-28.6C16.8,21.2,16.9,21,17,20.9z"/>
<path class="st30" d="M15,22.3c0.2-0.5,0.5-0.9,1-1.2c0.3,0.9,0,1.7,0,2.6c0,10.4,0,20.7,0,31.1c0,3.6-0.1,7.2,0.1,10.8
	c0,0.6,0.3,1.4-0.1,2c-0.4-0.1-0.7-0.4-0.9-0.8c0.5-0.3,0.4-0.7,0.4-1.2c0-0.9,0-1.8,0-2.7c-0.1-1.4,0.3-2.9-0.2-4.3
	c0-11.3,0-22.7,0-34c0-0.6,0.1-1.2-0.2-1.8C15,22.7,15,22.5,15,22.3z"/>
<path class="st11" d="M15.9,67.6c0.4-0.6,0.2-1.3,0.1-2c-0.1-3.6,0-7.2,0-10.8c0-10.4,0-20.7,0-31.1c0-0.9,0.3-1.7,0-2.6
	c0.3-0.3,0.6-0.2,1-0.2c-0.1,0.2-0.2,0.3-0.2,0.5c-0.3,0.5-0.2,1-0.2,1.5c0,8.5,0,17,0,25.6c0,0.5-0.1,1,0.2,1.5
	c-0.3,2.6-0.2,5.3,0,7.9c0,1.4-0.1,2.8-0.1,4.2c0.1,1.8-0.2,3.7,0.3,5.4c-0.1,0.2-0.2,0.5-0.2,0.7C16.5,68,16.2,67.8,15.9,67.6z"/>
<path class="st67" d="M22,18.5c0.1,0,0.1,0,0.2,0c0.2,0,0.3,0,0.5,0c-0.1,0.6-0.6,1.1-0.6,1.7c0.1,3-0.1,5.9,0,8.9
	c0.1,3.5,0.1,7,0.1,10.5c0,4.9,0,9.8,0,14.7c0,4.5,0,9,0,13.5c0,0.7,0.1,1.4,1,1.6c-0.1,0.2-0.2,0.3-0.2,0.5
	c-0.7,0.1-1.4-0.2-2.1-0.3c0.3-0.1,0.6-0.1,0.9-0.2c0.5-1.7,0.2-3.5,0.2-5.2c-0.1-2.4-0.3-4.8-0.1-7.2c0.2-2,0-4,0-5.9
	c0-1.8-0.3-3.7-0.1-5.5c0.3-3.1,0-6.1,0.1-9.2C22,30.4,21.1,24.5,22,18.5z"/>
<path class="st68" d="M17.9,68.5c0.3-0.1,0.3-0.2,0.3-0.5c0.1-5,0.1-10,0.1-15c0-2.9,0.2-5.8,0-8.7c-0.2-3.5,0.1-7,0.1-10.5
	c0-4.3-0.2-8.7-0.1-13.1c0-0.3-0.1-0.6-0.3-0.8c0.2-0.1,0.5-0.2,0.7-0.3c0.4,0.7,0,1.4,0,2.2c0.1,10,0.1,19.9,0.1,29.9
	c0,4.3,0,8.6,0,12.8c0,1,0.1,2.1,0.2,3.1c0,0.4,0.2,0.9-0.2,1.2C18.3,69,18.1,68.8,17.9,68.5z"/>
<path class="st69" d="M21.8,69.5c-0.3,0.1-0.6,0.1-0.9,0.2c-0.2-0.1-0.5-0.2-0.7-0.3c0.1-0.1,0.1-0.1,0.2-0.2c0.7-0.4,0.5-1,0.5-1.6
	c0-6.5,0-13,0-19.5c0-5.7-0.2-11.5-0.2-17.2c0-3.5-0.2-7,0.1-10.5c0-0.5-0.1-1-0.5-1.3c0.1,0,0.1,0,0.2,0c0.6,0.1,0.7,0.4,0.6,0.9
	c-0.2,1.1-0.1,2.2-0.1,3.2c0.1,3.6,0.4,7.2,0.2,10.8c-0.2,4,0,8.1,0,12.1c0,4.2-0.1,8.4-0.1,12.7c0.1,3,0.3,6,0.1,9
	C21.2,68.3,21.3,68.9,21.8,69.5z"/>
<path class="st70" d="M23,69.9c0.1-0.2,0.2-0.3,0.2-0.5c0-0.1,0-0.2,0-0.2c0-9.5,0-19,0-28.5c0-0.6-0.1-1.2,0.2-1.8
	c0,10.3,0,20.7,0,31C23.3,70,23.1,69.9,23,69.9z"/>
<path class="st71" d="M15.3,58.6c0.5,1.4,0.2,2.8,0.2,4.3c0,0.9,0,1.8,0,2.7c0,0.4,0,0.9-0.4,1.2c0-0.1,0-0.1-0.1-0.2
	c0-2.6,0-5.1,0-7.7c0-0.1,0-0.2,0-0.2C15.1,58.6,15.2,58.6,15.3,58.6z"/>
<path class="st72" d="M15,58.9c0,2.6,0,5.1,0,7.7c-0.2-0.1-0.3-0.2-0.5-0.3c0-2.5,0-5,0.1-7.4C14.7,58.9,14.9,58.9,15,58.9z"/>
<path class="st34" d="M14.6,58.9c0,2.5,0,5-0.1,7.4c-0.3-0.4-0.2-0.9-0.2-1.4c0-2.1,0-4.2,0-6.2c0.1,0,0.1,0,0.2,0
	C14.5,58.7,14.6,58.8,14.6,58.9z"/>
<path class="st73" d="M20.3,19c0.4,0.4,0.5,0.8,0.5,1.3c-0.3,3.5-0.1,7-0.1,10.5c0,5.7,0.2,11.5,0.2,17.2c0,6.5,0,13,0,19.5
	c0,0.6,0.2,1.2-0.5,1.6c-0.1-0.2-0.2-0.3-0.2-0.5c0.2-2-0.1-4,0-6c0.2-0.4,0.2-0.8,0.2-1.3c0-4,0-8.1,0-12.1c0-0.4,0-0.9-0.2-1.3
	c0-2.4,0-4.9-0.1-7.3C20,39.4,20,38.3,20,37.1c0.1-1.9,0.1-3.7,0.1-5.6c0-2.1-0.1-4.2,0-6.3c0.1-1.8,0.3-3.6-0.1-5.5
	c0.1-0.4-0.2-0.5-0.5-0.5C19.7,19.3,20,19.2,20.3,19z"/>
<path class="st74" d="M21.8,69.5c-0.4-0.5-0.5-1.2-0.5-1.8c0.2-3,0-6-0.1-9c-0.1-4.2,0-8.5,0.1-12.7c0-4-0.3-8,0-12.1
	c0.2-3.6-0.1-7.2-0.2-10.8c0-1.1-0.1-2.2,0.1-3.2c0.1-0.5-0.1-0.9-0.6-0.9c0.5-0.2,1-0.3,1.5-0.5c-0.9,5.9,0,11.9-0.2,17.9
	c-0.1,3.1,0.1,6.1-0.1,9.2c-0.2,1.8,0.1,3.7,0.1,5.5c0,2,0.2,4,0,5.9c-0.2,2.4,0,4.8,0.1,7.2C22,66,22.2,67.7,21.8,69.5z"/>
<path class="st75" d="M22.7,18.5c-0.2,0-0.3,0-0.5,0c0.7-0.4,1.4-0.5,2.2-0.7c0.5,1.9,0.2,3.9,0.2,5.8c-0.1,3.1,0.1,6.3,0.1,9.4
	c0,1.5-0.1,3.1-1.4,4.2c-0.1-0.3-0.2-0.6-0.2-0.9c0-5.4,0-10.8,0-16.2C23,19.6,23,19,22.7,18.5z"/>
<path class="st76" d="M17.9,20c0.2,0.2,0.3,0.5,0.3,0.8c-0.1,4.4,0.1,8.7,0.1,13.1c0,3.5-0.4,7-0.1,10.5c0.2,2.9,0.1,5.8,0,8.7
	c0,5,0,10-0.1,15c-0.6-0.5-0.5-1.1-0.5-1.8c0-6.2,0-12.4,0-18.6c0-5.8,0.2-11.6-0.1-17.4c-0.1-2.8,0.2-5.7-0.1-8.5
	c0-0.4-0.1-0.8-0.3-1.1C17.3,20.3,17.6,20.1,17.9,20z"/>
<path class="st77" d="M14.6,58.9c0-0.1,0-0.2-0.1-0.2c0-0.5,0-1,0-1.4c0-10.9,0-21.9,0-32.8c0-0.6,0-1.2,0.1-1.8
	c0.1-0.1,0.3-0.2,0.4-0.3c0,0.2,0,0.3,0,0.5c0,11.9,0,23.9,0,35.8c0,0.1,0,0.2,0,0.2C14.9,58.9,14.7,58.9,14.6,58.9z"/>
<path class="st4" d="M14.6,22.6c0,0.6-0.1,1.2-0.1,1.8c0,10.9,0,21.9,0,32.8c0,0.5,0,1,0,1.4c-0.1,0-0.1,0-0.2,0c0-11.5,0-23,0-34.5
	C14.3,23.6,14.2,23,14.6,22.6z"/>
<path class="st53" d="M12.7,60.1c0-0.4,0-0.8,0-1.2c0-0.2,0-0.3,0-0.5c0.5-0.4,0.2-1.4,1.1-1.7C14,57.9,13.4,59.7,12.7,60.1z"/>
<path class="st57" d="M96.2,79.1c-0.2,0.8-0.7,1.3-1.4,1.7c-0.1,0-0.2,0-0.2,0c1.2-1.3,1.7-2.8,1.4-4.6c0.1,0,0.2,0,0.2,0
	C96.2,77.1,96.2,78.1,96.2,79.1z"/>
<path class="st78" d="M94.4,78c0-12.3,0-24.6,0-37c0.1,0,0.2,0,0.2,0c0,12.3,0,24.6,0,36.9C94.6,77.9,94.5,78,94.4,78z"/>
<path class="st47" d="M96.2,79.1c0-1,0-1.9,0-2.9c0-10.5,0-21,0-31.5c0-1.9,0.1-3.8-0.5-5.7l0,0c0.2,0.3,0.5,0.6,0.7,1
	c0,0.2,0,0.3,0,0.5c0,12.7,0,25.5,0,38.2C96.4,78.7,96.3,78.9,96.2,79.1z"/>
<path class="st46" d="M96.5,39.9c-0.2-0.3-0.5-0.6-0.7-1c0-0.7-0.7-0.9-1-1.4c0.8,0.1,1.2,0.5,1.4,1.2
	C96.3,39.1,96.4,39.5,96.5,39.9z"/>
<path class="st46" d="M96.5,78.6c0-12.7,0-25.5,0-38.2c0.3,0.5,0.2,1,0.2,1.5c0,11.7,0,23.4,0,35.2C96.7,77.6,96.7,78.1,96.5,78.6z"
	/>
<path class="st51" d="M35.7,50.2c0.4-0.2,1-0.1,0.8,0.4c-0.4,1.4,0.2,2.7,0.2,4c-0.1,3,0,6.1,0,9.1c0,1.8,0.2,3.7-0.4,5.5
	c-0.2,0.5-0.3,1.2,0.3,1.6c0.5,0.4,0.8-0.3,1.2-0.5c1.3-0.9,2.7-1.9,4-2.8c0.3-0.2,0.7-0.4,0.5-0.9c-0.1-0.5-0.6-0.4-1-0.4
	s-0.7,0-1.1-0.1c-0.8-0.1-1.4,0.2-1.6,1.1c-0.1,0.5-0.1,1.2-0.8,1.2c-0.8-0.1-0.6-0.9-0.6-1.5c0-4.7,0-9.4,0-14c0-1,0-1.9-0.2-2.9
	s0.1-1.6,1.2-1.7c0.8-0.1,1.5,0,2.3,0c2.5,0,5-0.1,7.5-0.2c0.5,0,1,0,1.1,0.6s-0.4,0.7-0.8,0.8c-1.5,0.5-1.6,0.7-0.8,2
	c-1.1,0.5-1.2,1.3-1.1,2.5c0.2,1.4,0,2.9-0.2,4.4c-0.1,0.8,0.2,1.3,0.8,1.7c1.5,1.1,1.5,3.7,0,4.8c-0.7,0.5-0.9,1.1-0.4,1.9
	s0.1,1.4-0.6,1.6c-0.8,0.3-0.8-0.5-1-1c-0.1-0.3-0.2-0.7-0.5-0.9c-0.3-0.3-0.7-0.4-1.1-0.2c-0.5,0.2-0.2,0.6-0.1,0.9
	c0.3,0.8,0.2,1.6,0.2,2.4c0,0.9,0.4,1.2,1.2,1.3c2.1,0.3,3.9-1.2,4.3-3.7c0.1-0.8,0.2-1.7,1-2.3c0.1,0.1,0.2,0.2,0.2,0.2
	c0,0.2,0,0.5,0,0.7c-0.2,0.3-0.2,0.7-0.3,1c-0.7,3.3-3.8,5.3-7,4.4c-0.7-0.2-1-0.5-1-1.2s0.2-1.5-0.2-2.2c-1.6,1.2-3.2,2.4-4.9,3.6
	c1.8,1.7,3.5,3.2,5.1,4.8c0-0.5,0.1-1.3,0.1-2c0.4-0.2,0.7-0.1,1,0c1.8,0.4,3.6,0.6,5.2-0.6c2.5-2,3.4-4.7,4-7.7
	c0.5-2.3,0.1-4.7,0.2-7c0.7-0.5,1.5-0.1,2.2-0.2c0.3,0.2,0.6,0.6,0,0.6c-1.4,0.2-1.2,0.8-0.6,1.6c0.1,0.1,0.1,0.3,0,0.5
	c-0.9,2.6-1.1,5.3-1.9,7.9c-0.2,1.4-1.3,2.4-2.1,3.3c-1.1,1.2-2.2,2.6-4.1,2.6c-0.3,0-0.5,0.1-0.8,0c-1-0.2-1.7-0.1-1.9,1.1
	c-0.1,0.6-0.6,1-1.2,1.1c-0.6,0.1-0.9-0.3-1.1-0.8c-0.3-0.7-1-1.1-1.5-1.7c-1-1.1-2-2.1-3.1-3.3c-0.3,0.8-0.3,1.5-0.1,2.1
	c0.3,0.8,0.1,1.4-0.6,1.8c0-7.7,0-15.4,0-23.1C35.7,51.8,35.7,51,35.7,50.2z"/>
<path class="st51" d="M56.4,81.9c-1.2-0.9-2.4-1.8-3.9-1.5c-1.2,0.2-2.3,0-3.5,0.1c-0.8,0-1.3-0.2-1.4-1.1c-0.1-0.7-0.6-1.1-1.4-0.8
	c-0.7,0.2-1.2-0.1-1.2-0.7c-0.1-0.7,0.4-0.9,1-0.8c1.1,0.1,2.2-0.4,3.3-0.1c0.6,0.1,0.9-0.3,0.9-0.9c0-0.9,0.4-1.3,1.3-1.4
	c0.8,0,1.3-0.6,1.4-1.4c0-0.4,0.2-0.8,0.1-1.1c-0.6-1.8,0.9-3.1,1.1-4.7c0-0.1,0.1-0.3,0.2-0.3c1.7-0.2,1.2-1.5,1.2-2.5
	c0.1-1.2,0-2.5,0.2-3.7c0.1-0.4,0.1-0.9,0.6-0.8c0.5,0.1,0.6,0.6,0.5,0.9c0,0.8-0.2,1.6-0.2,2.4c0,2.2,0.1,4.3,0.2,6.5
	c0.1,3.2,0,6.4,0,9.6C57.1,80.4,57.1,81.2,56.4,81.9z"/>
<path class="st63" d="M52.3,69.5c0.7-2.6,1-5.3,1.9-7.9c0-0.1,0-0.3,0-0.5c-0.6-0.8-0.9-1.5,0.6-1.6c0.5-0.1,0.3-0.4,0-0.6
	c0.2-0.6-0.3-1.1-0.2-1.7c0.1-0.1,0.2-0.2,0.2-0.2c1.3,0.2,0.3,1.8,1.3,2.2c0.4-0.4,0.3-0.9,0.4-1.2c0.5-1.4-0.1-2-1.7-1.9
	c-0.3-0.7-0.3-1.4-0.5-2.2c0.2,0.1,0.3,0.4,0.6,0.4c0.4-1.6,0.3-1.7-1.8-2.8c-0.4-0.8-0.6-1.7-0.7-2.6c0.3-0.3,0.7-0.4,1,0
	c0.4,0.5,1,0.9,1.5,1.3c0.9,0.8-0.2,0.8-0.7,1.3c1.1,0.5,1.4,1.4,1.3,2.5c-0.2,1.4,0.6,2,1.8,2.6c0.5-1.7-0.2-3.6,0.4-5.3
	c0,10.7,0,21.3,0,32c-0.1-0.2-0.2-0.4-0.2-0.6c0-3.7-0.2-7.4,0.1-11c0.1-1.1-0.2-2.2-0.2-3.3c0-2.4,0-4.8,0-7.2
	c0-0.5,0.1-1.3-0.7-1.3c-0.7,0-1.2,0.4-1.2,1.2c0,0.9-0.3,1.7-0.8,2.5c-0.6,1,0,1.9,0.5,2.9c-1.2,0-1.4,0.8-1.5,1.8
	C53.6,68.8,53.1,69.4,52.3,69.5z"/>
<path class="st63" d="M47,34.4c1.2-1.3,5.1-2.1,6.8-1.5c0.1-0.9,0.4-1.6,1.5-1.3c0.3,0.4,0,0.8,0,1.2c0.1,1.5,0,1.5-1.6,1.5
	c-1.2,0-2.2,1-3.5,1c-0.3,0-0.7,0.3-0.9,0C48.9,34.3,48,34.4,47,34.4z"/>
<path class="st51" d="M52.3,48.8c0.1,0.9,0.4,1.8,0.7,2.6c0.2,0.6,0.3,1.3,0.5,1.9c-0.1,0.2-0.2,0.4-0.5,0.5
	c-0.3-0.8-0.5-1.5-0.8-2.3c-0.2-0.7-0.1-1.6-0.9-2c0-0.1-0.1-0.3-0.1-0.7c-0.1,0.4-0.1,0.5-0.1,0.7c-0.7,0.8-0.8,1.8-1.1,2.7
	c-0.6,2.1-1.7,4-1.8,6.2c-0.1,0.1-0.1,0.2-0.2,0.3c0,0.1,0,0.1,0,0.2c0,0.1,0,0.2,0,0.2c-0.3,0.1-0.5-0.1-0.4-0.4
	c0.2-1.1,0.3-2.2,0.6-3.3c0.3-0.9,0.9-1.8,0.7-2.9c0-0.1,0-0.2,0-0.2c1.2-1,1-2.4,1.5-3.7c0.2-0.4,0.2-1,0.8-1
	C51.8,47.8,52.1,48.2,52.3,48.8z"/>
<path class="st63" d="M57.1,83.4c-0.5,0.3-1.1,0.3-1.5,0c-1.7-1.1-3.7-0.7-5.4-1.6c-0.8-0.4-1.7-0.2-2.4-0.6
	c1.1-0.4,2.2-0.7,3.4-0.2c0.4,0.2,0.7-0.1,1-0.1C53.5,80.5,56.6,82.1,57.1,83.4z"/>
<path class="st20" d="M31.6,51.7c0,0.1,0.1,0.2,0.1,0.2c0,0.2,0,0.5,0,0.7c0,7.4,0,14.9,0,22.3c0,0.1,0,0.2,0,0.3
	c-0.5-0.4-0.5-0.9-0.5-1.4c0-6.9,0-13.8,0-20.7C31.1,52.6,31.1,52.1,31.6,51.7z"/>
<path class="st1" d="M35.7,52.6c0,7.7,0,15.4,0,23.1c-0.2,0-0.3,0-0.5,0c0-7.7,0-15.4,0-23C35.4,52.6,35.5,52.6,35.7,52.6z"/>
<path class="st79" d="M35.2,52.6c0,7.7,0,15.4,0,23c-0.1,0-0.3,0-0.4,0.1c-0.2-0.1-0.3-0.2-0.5-0.2c0.9-0.2,0.7-0.9,0.7-1.5
	c0-6.3,0-12.6,0-18.9c0-0.8,0-1.7,0-2.5C35.1,52.6,35.1,52.6,35.2,52.6z"/>
<path class="st80" d="M58.8,50.9c0-6.4,0-12.8,0-19.2c0-0.3,0-0.6,0-1c0.3,0.5,0.2,1.1,0.2,1.6c0,6.2,0,12.4,0,18.6
	C58.9,51,58.8,50.9,58.8,50.9z"/>
<path class="st81" d="M35.2,40.2c0.4,0.2,0.5,0.5,0.5,0.8c0,1.7,0,3.5,0,5.2c0,0.4-0.1,0.7-0.5,0.9C35.2,44.8,35.2,42.5,35.2,40.2z"
	/>
<path class="st82" d="M31.6,47.8c-0.4-0.2-0.5-0.6-0.5-1c0-1.6,0-3.3,0-4.9c0-0.3-0.1-0.8,0.5-0.8C31.6,43.4,31.6,45.6,31.6,47.8z"
	/>
<path class="st56" d="M54.4,43.9c0.4-3,0.4-6,0-9.1c0.1,0,0.3,0,0.4,0c0,3,0,5.9,0.1,8.9C54.8,43.9,54.6,44,54.4,43.9z"/>
<path class="st83" d="M54.9,43.7c0-3,0-5.9-0.1-8.9c0.2,0.3,0.3,0.6,0.3,0.9c0,2.4,0,4.8,0,7.2C55.1,43.2,55,43.5,54.9,43.7z"/>
<path class="st84" d="M37.2,39.7c0,1.9,0,3.7,0,5.6c0,0.9,0.3,1.4,1.2,1.3c-1.4,0.4-1.5,0.3-1.5-1c0-1.6,0-3.2,0-4.8
	C36.9,40.4,36.8,40,37.2,39.7z"/>
<path class="st85" d="M31.6,47.8c0-2.2,0-4.4,0-6.7c0.2,0,0.3,0,0.5,0c-0.5,1.9-0.2,3.8-0.2,5.8c0,0.6,0.5,0.6,0.9,0.7
	C32.5,47.8,32.1,47.8,31.6,47.8z"/>
<path class="st86" d="M50.1,65.4c-0.1-0.1-0.2-0.2-0.2-0.2c0-1.3,0-2.5,0-3.8c0-0.8-0.1-1.6-0.7-2.2c0.3,0,0.6,0,0.9,0
	C50.1,61.2,50.1,63.3,50.1,65.4L50.1,65.4z"/>
<path class="st87" d="M35.2,40.2c0,2.3,0,4.6,0,6.9c-0.1,0-0.2,0-0.3,0c0-1.8,0-3.7,0-5.5c0-0.5,0.1-1-0.5-1.2
	C34.7,40.3,34.9,40.2,35.2,40.2z"/>
<path class="st88" d="M36.6,40.2c0,2,0,4,0,6.1h-0.1C36.5,44.3,36.5,42.3,36.6,40.2C36.5,40.2,36.6,40.2,36.6,40.2z"/>
<path class="st1" d="M35.2,52.6c-0.1,0-0.1,0-0.2,0c0-0.7,0-1.4-0.1-2.1c0.2-0.1,0.5-0.2,0.7-0.3c0,0.8,0,1.6,0,2.4
	C35.5,52.6,35.4,52.6,35.2,52.6z"/>
<path class="st51" d="M34.2,75.5c0.2,0.1,0.3,0.2,0.5,0.2c0,0.5-0.4,0.5-0.7,0.4c-0.8-0.3-1.7-0.3-2.4-0.9c0-0.1,0-0.2,0-0.3
	c0.1,0,0.2,0,0.2,0C32.6,75.5,33.4,75.4,34.2,75.5z"/>
<path class="st63" d="M56.2,44.2c-0.6-0.7-0.7-1.2-0.1-1.9C56.7,42.9,56.7,43.4,56.2,44.2z"/>
<path class="st89" d="M50.1,59.2c-0.3,0-0.6,0-0.9,0c-0.4,0-0.8,0-1.2,0c0-0.1,0-0.2,0-0.2c0.8,0,1.6,0,2.3,0c0,0.1,0,0.2,0,0.3
	C50.2,59.1,50.2,59.1,50.1,59.2z"/>
<path class="st52" d="M77.5,76.9c-0.2,0.2-0.6,0.1-0.7,0.6c1.5-0.3,3-0.4,4.5,0c0.1,0.6-0.3,0.8-0.6,0.7c-0.9-0.2-1.5,0.3-2.1,0.8
	c-0.1,0.1-0.3,0.2-0.4,0.2c-1.9-0.2-3.3,1.4-5.2,1.1c-1-0.2-2.2,0.1-3.1,0.8c-0.2,0.2-0.5,0.2-0.8,0.2c-1.1,0-2,0.2-3,0.7
	c-1.3,0.7-2.8,0.9-4.2,1.4C60.6,83.9,60,83.2,60,82c0-2.3-0.1-4.6,0-7c0.2-3.7-0.6-7.4-0.5-11.1c0-3,0-6.1,0-9.1
	c0-1.7,0.2-3.3,0.4-4.9c0.1-1,0.2-2.1,0.1-3.1c-0.2-1.8-0.1-3.7,0-5.5c0.1-2.8,0.2-5.5-0.1-8.3c-0.1-0.5,0.1-1,0.2-1.4
	c0.2-0.7,0.6-1,1.2-0.3c0.3,0.3,0.6,0.5,1.1,0.5c1.6,0.1,3.1,0.8,4.6,1.2c1.8,0.5,3.3,1.8,5.4,1.5c1.5-0.2,2.7,1.3,4.2,1.7
	c0.5,0.1,1,0.4,1.6,0.4c0.8,0,1.6,0,2.2,0.6c0.3,0.3,0.7,0.2,1.1,0.2c1.1,0.1,2.3,0.1,3.2,1c0.2,0.2,0.5,0.4,0.8,0.3
	c1.8-0.2,2.6,0.6,2.6,2.4c0,11.3,0,22.6,0,33.9c0,1.7-0.1,1.6-1.7,2.1c-1.2,0.4-2.4,0.1-3.5,0.7c-0.3,0.2-0.8,0.1-0.9-0.4
	c-0.1-0.4,0.2-0.6,0.5-0.8c0.4-0.2,0.8-0.3,1.2-0.3c2.4,0.1,3.1-0.7,3.1-3.1c0-1.3,0-2.6,0-3.8c0-1.2-0.5-1.5-1.6-1.3
	c-1.9,0.4-3.9,0.2-5.8,0.5c-0.7,0.1-1.4-0.2-2.2,0.1c-0.9,0.3-1.3,0.7-1.3,1.6c-0.5,0.2-0.6-0.2-0.8-0.3c-0.1,0-0.2,0-0.2,0
	c-0.2,0-0.3,0-0.5,0s-0.5,0-0.7,0.2c-3.4,0.4-6.9,0.8-10.3,1.2c-0.2,0-0.4,0-0.7,0c-0.1,0-0.2,0-0.3,0c-0.5,1.2-0.2,2.5-0.2,3.8
	c0,1.6-0.3,3.3,0.2,4.9c0.1-0.1,0.2-0.2,0.2-0.3c0.1,0,0.2,0,0.2,0c0.6,0,1.2,0,1.8-0.1c1.3-0.1,2.6-0.7,3.9-0.9
	c1.7-0.2,3.4-0.7,5.1-1.2c0.2-0.1,0.5-0.1,0.7-0.2c0.2,0,0.3,0,0.5,0l0,0c0.9-0.2,1.7-0.6,1.7-1.7c0-1.5-0.2-3,0.2-4.5
	c0,1.6,0,3.1,0,4.7c0,0.4-0.1,0.9,0.5,1.1C77.3,76.9,77.4,76.9,77.5,76.9z M62.3,67.8c0.1,0,0.1,0,0.2,0c1.1,0.6,2.1-0.3,3.2-0.1
	c0.5-0.1,1.1-0.2,1.6-0.2c2.1,0.3,4-0.7,6-0.5c0.2,0,0.4-0.2,0.5-0.3c0.1,0,0.3,0,0.4,0c0.2,0,0.3,0,0.5,0c0.1,0,0.2,0,0.2,0
	c0.2-0.1,0.5-0.2,0.7,0c0.7,1.1,1.8,0.9,2.9,0.9s2-0.1,3-0.7c0.3-0.2,0.7,0,1,0c1.2,0,2.2-0.6,3.4-0.6c0.1,0,0.2-0.3,0.3-0.5
	c0.8-2.1,0.5-4.3,0.7-6.4c0-0.8-0.5-1-1.3-1c-0.9,0.1-1.8,0.3-2.8-0.4c0.8-0.3,1.4-0.8,2.2-0.7c1.3,0.1,1.7-0.1,1.7-1.5
	s0-2.7-0.2-4.1c-0.3-2.4-0.2-2.4-2.7-2.5c-1.2-0.1-2.4,0.1-3.5-0.7c-1.2-1-2.5-0.2-3.8-0.2c-0.7,0-0.8,0.7-1,1.2
	c-0.1,0.3-0.4,0.3-0.6,0.2c0.1-0.4,0.2-0.8,0-1.2c-0.8-1.4-2.4-1.1-3.6-1.2c-1-0.1-2-1-3.2-0.3c-0.3,0.2-0.6-0.2-0.8-0.3
	c-1.7-0.8-3.4-0.6-5.1,0.2c-0.3,1.1,0,2.1-0.1,3.1c-1,1.2-1,3.4,0,4.3c0,0.5,0,1,0,1.4c0,0.9,0.7,0.7,1.2,0.7
	c1.6,0.1,3.3-0.2,4.8,0.2c1.2,0.3,2.2,0.2,3.3-0.2c0.9,0,1.7,0,2.6,0h0.1h0.1c0.2-0.1,0.4-0.2,0.5-0.3c0.1-0.2,0.1-0.5,0.2-0.7
	c0.7-0.3,0.7,0.3,0.8,0.7c0.4,1,1,1.7,2.3,1.2c0.9-0.3,1.8-0.2,2.7-0.1c0.5,0,0.9,0.2,1,0.8c-1.3,0.5-2.6,0.4-3.9,0.2
	c-0.4-0.1-0.9-0.1-1.1,0.3c-0.2,0.5,0.3,0.6,0.5,0.8c-0.7,0.1-0.7,0.6-0.7,1.2c0,1.5,0,3.1,0,4.6c-0.4-1.5-0.1-3-0.2-4.5
	c0-0.4,0-1-0.2-1c-1.1-0.2-1.7-1.5-3-1.1c-0.8,0.2-1.6,0.2-2.4,0.2c-2.5,0-5,0-7.4,0c-0.6,0-1.2-0.1-1.5,0.7c0,1.9,0,3.7,0,5.6
	C62.1,65.9,61.9,66.9,62.3,67.8z M62.4,43.7L62.4,43.7c0.3,0.4,0.6,0.6,1.1,0.7c1.6,0.1,3.1,1,4.7,0.9c1.1-0.1,2,1.2,3.2,0.5
	c0.1,0,0.3,0.1,0.4,0.2c0.9,1.1,2.1,0.2,3.1,0.5c0.4,0.1,0.5-0.4,0.3-0.8c0-0.1,0-0.2,0-0.2c0.4-0.1,0.6,0.1,0.7,0.4
	c0.7,1.6,2.4,1.4,3.6,1.7c0.9,0.2,2,0.1,2.9,0.6s1.9,0.5,2.9,0.5c0.7,0,1.3-0.6,1.4-1.4c0.3-1.6,0.2-3.3,0.2-4.9
	c0-0.7-0.2-1.5-1.1-1.6c-1.3-0.2-2.4-0.9-3.6-1.3c-0.6-0.2-1.3,0.2-1.7-0.3c-1.1-0.9-2.2-0.9-3.5-0.7c-0.7,0.1-1.5,0.1-1.7-0.9
	c-0.1-0.6-0.6-0.8-1.2-0.6c-1.6,0.5-3.2-0.3-4.4-0.8c-2.1-1-4.4-1.3-6.6-1.9c-0.5-0.1-0.6,0.2-0.7,0.6c0,0.1,0,0.2,0,0.2
	c-0.1,0.2-0.2,0.3-0.2,0.5c-0.5,0.3-0.7,0.8-0.7,1.3c0,1.5,0,2.9,0,4.4c0,0.5,0.2,0.8,0.7,1C62.1,42.8,62.1,43.3,62.4,43.7z"/>
<path class="st90" d="M58.8,50.9c0.1,0,0.2,0,0.2,0c0,6.1,0,12.2,0,18.3c0,5,0,10.1,0,15.1c-0.1,0-0.2,0-0.2,0
	C58.8,73.2,58.8,62.1,58.8,50.9z"/>
<path class="st52" d="M59,84.4c0-5,0-10.1,0-15.1c0.2,0.4,0.2,0.8,0.2,1.3c0,4.2,0,8.4,0,12.6C59.2,83.5,59.2,84,59,84.4z"/>
<path class="st91" d="M77.2,69.7c0,2.4,0,4.8,0,7.2c-0.6-0.1-0.5-0.6-0.5-1.1c0-1.6,0-3.1,0-4.7C77,70.7,76,69.8,77.2,69.7z"/>
<path class="st92" d="M74.8,69.9c0.1,0,0.2,0,0.2,0c0,2,0,4,0,6c0,0.5,0,1-0.2,1.4l0,0C74.8,74.9,74.8,72.4,74.8,69.9z"/>
<path class="st93" d="M85.4,75c-0.4-1.6-0.1-3.2-0.2-4.7c0-0.7-0.3-1.2-1-1.4c0.4,0,0.8,0,1.1,0C85.4,70.8,85.4,72.9,85.4,75
	L85.4,75z"/>
<path class="st94" d="M85.4,75c0-2.1-0.1-4.2-0.1-6.2C85.9,70.8,85.7,72.9,85.4,75z"/>
<path class="st64" d="M28.7,52.6c-0.1,0-0.3,0-0.4,0c0-4.2,0-8.4,0-12.6c0-0.5,0-1.1,0.7-1.1c-0.5,1.2-0.2,2.4-0.2,3.6
	C28.7,45.9,28.7,49.3,28.7,52.6z"/>
<path class="st95" d="M22.7,18.5C23,19,23,19.6,23,20.1c0,5.4,0,10.8,0,16.2c0,0.3,0.1,0.6,0.2,0.9C22.9,39,23,40.7,23,42.4
	c0,8.4,0,16.7,0,25.1c0,0.6-0.1,1.2,0.2,1.8c0,0.1,0,0.2,0,0.2c-0.8-0.2-1-0.9-1-1.6c0-4.5,0-9,0-13.5c0-4.9,0-9.8,0-14.7
	c0-3.5-0.1-7-0.1-10.5c0-2.9,0.2-5.9,0-8.9C22.1,19.6,22.6,19.1,22.7,18.5z"/>
<path class="st96" d="M28.7,52.6c0-3.4,0-6.7,0.1-10.1c0.3,0.5,0.2,1,0.2,1.5c0,10.4,0,20.9,0,31.3c0,0.5,0.1,1-0.2,1.5
	C28.7,68.8,28.7,60.7,28.7,52.6z"/>
<path class="st31" d="M20.1,62.7c-0.1,2,0.2,4,0,6c-0.6-0.5-0.5-1.2-0.5-1.9c0-13.2,0-26.4,0-39.6c0-1.7-0.2-3.3-0.2-5
	c0-0.8,0.1-1.6,0.5-2.3c0.4,1.8,0.2,3.7,0.1,5.5c-0.1,2.1,0,4.2,0,6.3c0,1.9,0,3.7-0.1,5.6c-0.1,1.2,0,2.3,0.1,3.5
	c0.1,2.4,0.1,4.8,0.1,7.3C20.1,53,20.1,57.8,20.1,62.7z"/>
<path class="st77" d="M16.7,50c-0.3-0.5-0.2-1-0.2-1.5c0-8.5,0-17,0-25.6c0-0.5-0.1-1,0.2-1.5C16.7,30.9,16.7,40.5,16.7,50z"/>
<path class="st77" d="M17,67.5c-0.5-1.8-0.2-3.6-0.3-5.4c-0.1-1.4,0-2.8,0.1-4.2c0.3,0.5,0.2,1,0.2,1.5C17,62.1,17,64.8,17,67.5z"/>
<path class="st39" d="M15,58.6c0-11.9,0-23.9,0-35.8c0.3,0.6,0.2,1.2,0.2,1.8c0,11.3,0,22.7,0,34C15.2,58.6,15.1,58.6,15,58.6z"/>
<path class="st73" d="M20.1,62.7c0-4.9,0-9.8,0-14.7c0.2,0.4,0.2,0.8,0.2,1.3c0,4,0,8.1,0,12.1C20.3,61.9,20.3,62.3,20.1,62.7z"/>
<path class="st93" d="M50.3,58.9c0.5,1,0.2,2.1,0.3,3.2c0.1,1,0,1.9,0,2.9c0,0.4,0,0.9-0.4,1.2c0-0.2,0-0.5,0-0.7l0,0
	c0.5-2.1,0.1-4.2,0.2-6.2C50.3,59.1,50.3,59,50.3,58.9z"/>
<path class="st97" d="M52.3,66.1c0.1-2.3-0.2-4.7,0.2-7C52.4,61.4,52.8,63.8,52.3,66.1z"/>
<path class="st60" d="M31.6,52.6c0.3,0.5,0.2,1.1,0.2,1.6c0,6.7,0,13.3,0,20c0,0.2,0,0.4,0,0.7c-0.1,0-0.2,0-0.2,0
	C31.6,67.5,31.6,60.1,31.6,52.6z"/>
<path class="st63" d="M54.7,56c1.6-0.1,2.1,0.6,1.7,1.9c-0.1,0.4,0,0.9-0.4,1.2c-1-0.4,0.1-2-1.3-2.2C54.7,56.6,54.7,56.3,54.7,56z"
	/>
<path class="st51" d="M54.7,56c0,0.3,0,0.6,0,1c-0.1,0.1-0.2,0.2-0.2,0.2c-0.8-1-1.2-2.1-1.4-3.4c0.2-0.1,0.4-0.3,0.5-0.5
	c0.2,0.2,0.5,0.3,0.7,0.5C54.3,54.6,54.3,55.3,54.7,56z"/>
<path class="st63" d="M54.2,53.8c-0.2-0.2-0.5-0.3-0.7-0.5c-0.2-0.6-0.3-1.3-0.5-1.9c2,1,2.1,1.2,1.8,2.8
	C54.4,54.2,54.4,54,54.2,53.8z"/>
<path class="st53" d="M51.3,49.5c-0.1,0-0.2,0-0.3,0c0-0.1,0.1-0.3,0.1-0.7C51.3,49.2,51.3,49.3,51.3,49.5z"/>
<path class="st89" d="M48.2,58.4c-0.1,0.1-0.1,0.2-0.2,0.3C48,58.6,48.1,58.5,48.2,58.4z"/>
<path class="st98" d="M50.3,59.2c-0.1,2.1,0.3,4.2-0.2,6.2c0-2.1,0-4.1,0-6.2C50.2,59.1,50.2,59.1,50.3,59.2z"/>
<path class="st52" d="M74.1,59.4c-0.8,0-1.6,0-2.4,0v-0.1c-2-0.3-4-0.3-6,0v0.1c-1,0-1.9,0-2.9,0c-0.1,0-0.2,0-0.2,0
	c-0.1,0-0.2,0-0.3,0s-0.2,0-0.2,0c0.2-0.8,0.9-0.7,1.5-0.7c2.5,0,5,0,7.4,0c0.8,0,1.6,0.1,2.4-0.2c1.3-0.4,1.9,0.9,3,1.1
	c0.1,0,0.1,0.7,0.2,1c0.1,1.5-0.2,3,0.2,4.5c0.4,0.4-0.7,1.4,0.5,1.4c1.7,0.2,3.3-0.1,5-0.2c1,0,2.1,0.3,3-0.2
	c0.6-2.1,0.4-4.3,0.1-6.5l0,0c-0.4-0.3-0.9-0.2-1.4-0.2c-2.2,0-4.4,0-6.5-0.1c-0.3-0.2-0.8-0.3-0.5-0.8c0.2-0.4,0.7-0.4,1.1-0.3
	c1.3,0.2,2.6,0.4,3.9-0.2c-0.2-0.6-0.6-0.8-1-0.8c-0.9-0.1-1.9-0.2-2.7,0.1c-1.3,0.5-1.8-0.1-2.3-1.2c-0.2-0.4-0.2-0.9-0.8-0.7
	c0-1.8,0-3.7,0-5.5c0.3,0.1,0.5,0,0.6-0.2c0.2-0.5,0.3-1.2,1-1.2c1.3,0,2.6-0.9,3.8,0.2c1,0.8,2.3,0.6,3.5,0.7
	c2.4,0.2,2.3,0.1,2.7,2.5C87,53.3,87,54.6,87,56c0,1.3-0.3,1.6-1.7,1.5c-0.8-0.1-1.4,0.4-2.2,0.7c1,0.7,1.9,0.4,2.8,0.4
	c0.8-0.1,1.3,0.2,1.3,1c-0.1,2.1,0.1,4.3-0.7,6.4c-0.1,0.2-0.2,0.5-0.3,0.5c-1.2,0-2.2,0.6-3.4,0.6c-0.3,0-0.7-0.2-1,0
	c-0.9,0.6-1.9,0.7-3,0.7s-2.1,0.2-2.9-0.9c-0.1-0.2-0.4-0.1-0.7,0c0-1.5,0-3.1,0-4.6c0-0.9,0.2-1.9-0.2-2.8
	C74.6,59.4,74.3,59.4,74.1,59.4z M85.4,50.5c-0.1,0-0.2,0-0.2,0c-0.4-0.1-0.7-0.2-1.1-0.3c-2.3-0.3-4.5-0.6-6.8-0.9
	c-0.4,0-0.5,0.3-0.5,0.7c0,1.9,0,3.8,0,5.8c0,0.3,0.1,0.6,0.5,0.7c2.1,0.3,4.3,0.2,6.5,0.3c1.7,0.4,1.9,0.3,1.9-1.4
	c0-0.8,0.1-1.5,0-2.3C85.6,52.2,85.9,51.3,85.4,50.5z"/>
<path class="st52" d="M62.4,34.9c0.1-0.4,0.3-0.7,0.7-0.6c2.2,0.6,4.4,0.8,6.6,1.9c1.2,0.6,2.8,1.3,4.4,0.8c0.6-0.2,1.1-0.1,1.2,0.6
	c0.2,1,1,1,1.7,0.9c1.3-0.2,2.4-0.2,3.5,0.7c0.5,0.4,1.1,0.1,1.7,0.3c1.2,0.4,2.3,1.1,3.6,1.3c0.9,0.1,1.1,0.9,1.1,1.6
	c0,1.6,0.1,3.3-0.2,4.9c-0.1,0.8-0.7,1.4-1.4,1.4c-1,0.1-2,0.1-2.9-0.5c-0.9-0.5-2-0.4-2.9-0.6c-1.2-0.3-2.9,0-3.6-1.7
	c-0.1-0.3-0.3-0.5-0.7-0.4c0-1.4,0-2.8,0-4.2c0-1,0.2-2.1-0.2-3c-0.2,0-0.3,0-0.5,0c-0.1,0-0.3,0-0.4,0c-0.5-0.2-1-0.4-1.4-0.5
	c-3-0.8-5.9-1.6-8.9-2.4c-0.1-0.1-0.2-0.2-0.2-0.3C63,34.9,62.7,34.8,62.4,34.9z M84.7,47.6c0.9,0.5,0.9-0.2,0.9-0.8
	c0-1.4,0-2.8,0-4.2c0-0.5,0.1-1.1-0.3-1.5c-0.3,0-0.6,0-0.9-0.1c-0.6-0.2-1.2-0.3-1.8-0.5c-1.8-0.5-3.7-0.9-5.4-1.6
	c-0.5,0-0.5,0.4-0.5,0.8c0,1.9,0,3.7,0,5.6c0,0.4,0,0.7,0.4,0.9c0.8,0.5,1.8,0.4,2.7,0.6c1.5,0.2,3,0.8,4.5,0.8
	C84.5,47.5,84.6,47.6,84.7,47.6z"/>
<path class="st52" d="M73.2,48.7c-2.5-0.4-5.1-0.8-7.6-1.1c-0.6-0.1-1.2-0.2-1.7-0.3c-0.3-0.3-0.8-0.2-1.2-0.2c-0.1,0-0.2,0-0.3,0
	l0,0c1.7-0.8,3.4-1,5.1-0.2c0.3,0.1,0.6,0.5,0.8,0.3c1.1-0.7,2.1,0.2,3.2,0.3c1.2,0.2,2.8-0.2,3.6,1.2c-0.1,0-0.2,0-0.2,0
	c-0.2,0-0.3,0-0.5,0C73.9,48.8,73.6,48.8,73.2,48.7z"/>
<path class="st52" d="M75.1,45.7c0.2,0.4,0.1,0.9-0.3,0.8c-1-0.3-2.2,0.7-3.1-0.5c-0.1-0.1-0.3-0.3-0.4-0.2c-1.2,0.7-2-0.6-3.2-0.5
	c-1.6,0.1-3.1-0.8-4.7-0.9c-0.5,0-0.8-0.3-1.1-0.7c0.1,0,0.2,0,0.3,0h0.1h0.1c1.7,0.3,3.4,0.7,5.1,0.9c2.1,0.3,4,1,6.1,1.1
	c0.2,0,0.5,0,0.7,0C74.9,45.7,75,45.7,75.1,45.7z"/>
<path class="st52" d="M66,56c1.4,0,2.9,0,4.3,0c0.5,0,1-0.1,1.2,0.5c-1.1,0.3-2.1,0.4-3.3,0.2c-1.6-0.3-3.2-0.1-4.8-0.2
	c-0.5,0-1.2,0.2-1.2-0.7c0.1,0,0.2,0,0.2,0c0.1,0,0.2,0,0.3,0C63.7,56,64.8,56.1,66,56z"/>
<path class="st18" d="M77.3,66.5c-1.3,0-0.2-1-0.5-1.4c0-1.5,0-3.1,0-4.6c0-0.6,0.1-1,0.7-1.2c2.2,0,4.4,0,6.5,0.1
	c0.5,0,1-0.1,1.4,0.2c-0.1,0-0.2,0-0.2,0c-2.2,0-4.5,0-6.7-0.1c-0.9,0-1.2,0.3-1.2,1.2C77.3,62.7,77.3,64.6,77.3,66.5z"/>
<path class="st52" d="M62.1,42.3c-0.5-0.1-0.7-0.5-0.7-1c0-1.5,0-2.9,0-4.4c0-0.5,0.2-1,0.7-1.3C62.1,37.8,62.1,40.1,62.1,42.3z"/>
<path class="st99" d="M74.3,48.8c0.2,0,0.3,0,0.5,0c0,2.5,0,4.9,0,7.4c-0.2,0.1-0.4,0.2-0.5,0.3C74.3,53.9,74.3,51.4,74.3,48.8z"/>
<path class="st99" d="M74.1,59.4c0.2,0,0.5,0,0.7,0c0,2.5,0,5,0,7.5c-0.2,0-0.3,0-0.5,0c0-1.5,0.1-3.1,0-4.6c0-0.9,0.3-1.7-0.2-2.6
	C74.1,59.5,74.1,59.5,74.1,59.4z"/>
<path class="st99" d="M74.8,69.9c0,2.5,0,5,0,7.5c-0.2,0-0.3,0-0.5,0c0-2.5,0-4.9,0-7.4C74.5,70,74.7,69.9,74.8,69.9z"/>
<path class="st62" d="M62.6,59.4c0.1,0,0.2,0,0.2,0c0,2.2,0,4.4,0,6.6c0,1.1,0.3,1.7,1.5,1.5c0.5-0.1,1-0.1,1.4,0.2
	c-1.1-0.2-2.1,0.6-3.2,0.1C62.6,65,62.6,62.2,62.6,59.4z"/>
<path class="st52" d="M62.1,54.3c-1-0.9-1-3.1,0-4.3C62.1,51.4,62.1,52.9,62.1,54.3z"/>
<path class="st100" d="M62.6,43.7c-0.1,0-0.2,0-0.3,0l0,0c0-2.9,0-5.8,0-8.6c0-0.1,0-0.2,0-0.2c0.3,0,0.7,0,1,0.2
	c-0.7,0-0.7,0.5-0.7,1C62.6,38.6,62.6,41.2,62.6,43.7z"/>
<path class="st101" d="M63.3,71.4c-0.5,0.4-0.5,1-0.5,1.5c0,2.3,0,4.5,0,6.8c-0.1,0-0.2,0-0.2,0c0-2.8,0-5.6,0.1-8.4
	C62.9,71.4,63.1,71.4,63.3,71.4z"/>
<path class="st102" d="M62.3,80c-0.5-1.6-0.2-3.2-0.2-4.9c0-1.3-0.3-2.6,0.2-3.8C62.4,74.3,62.4,77.1,62.3,80z"/>
<path class="st24" d="M62.6,59.4c0,2.8,0,5.6,0,8.4c-0.1,0-0.1,0-0.2,0c0-2.8,0-5.6,0-8.4C62.4,59.4,62.5,59.4,62.6,59.4z"/>
<path class="st100" d="M62.3,80c0-2.9,0-5.8,0-8.7c0.1,0,0.2,0,0.3,0c0,2.8,0,5.6-0.1,8.4C62.5,79.9,62.4,79.9,62.3,80z"/>
<path class="st103" d="M74.3,70c0,2.5,0,4.9,0,7.4c-0.2,0.1-0.5,0.1-0.7,0.2c0.4-0.6,0.5-1.2,0.5-1.9c0-1.4,0-2.8,0-4.2
	c0-0.5,0-1-0.5-1.3C73.8,69.9,74.1,70,74.3,70z"/>
<path class="st102" d="M62.3,35.1c0,2.9,0,5.8,0,8.6c-0.3-0.4-0.2-1-0.2-1.4c0-2.2,0-4.5,0-6.7C62.2,35.4,62.3,35.3,62.3,35.1z"/>
<path class="st102" d="M62.1,54.3c0-1.4,0-2.9,0-4.3c0.1-1-0.2-1.9,0.2-2.9l0,0c0,2.9,0,5.8,0,8.7c-0.1,0-0.2,0-0.2,0
	C62.1,55.3,62.1,54.8,62.1,54.3z"/>
<path class="st104" d="M74.3,48.8c0,2.5,0,5.1,0,7.6h-0.1h-0.1c0-2,0-4,0-6c0-0.8-0.2-1.4-1-1.7C73.6,48.8,73.9,48.8,74.3,48.8z"/>
<path class="st102" d="M62.3,59.4c0,2.8,0,5.6,0,8.4c-0.4-0.9-0.2-1.9-0.2-2.8c0-1.9,0-3.7,0-5.6C62.2,59.4,62.3,59.4,62.3,59.4z"/>
<path class="st92" d="M74.9,56.2c0-2.5,0-4.9,0-7.4c0.1,0,0.2,0,0.2,0c0.2,0.4,0.1,0.8,0,1.2c0,1.8,0,3.7,0,5.5
	C75,55.7,74.9,56,74.9,56.2z"/>
<path class="st103" d="M74.1,59.6c0.5,0.8,0.2,1.7,0.2,2.6c0,1.5,0,3.1,0,4.6c-0.1,0-0.3,0-0.4,0c0.5-1.5,0.1-3.1,0.2-4.7
	C74.2,61.2,74.1,60.4,74.1,59.6z"/>
<path class="st92" d="M74.8,66.8c0-2.5,0-5,0-7.5c0.5,0.9,0.2,1.9,0.2,2.8c0,1.5,0,3.1,0,4.6C75,66.8,74.9,66.8,74.8,66.8z"/>
<path class="st92" d="M75.1,45.7c-0.1,0-0.2,0-0.2,0c0-2.5,0-5,0-7.4c0.5,1,0.2,2,0.2,3c0,1.4,0,2.8,0,4.2
	C75.1,45.5,75.1,45.6,75.1,45.7z"/>
<path class="st47" d="M66,56c-1.1,0.1-2.2,0.1-3.3-0.2c-0.1-2.9-0.1-5.7,0-8.6c0.4,0,0.8-0.1,1.2,0.2c-0.7,0-1,0.4-1,1.1
	c0,2,0,4,0,6c0,0.8,0.3,1.1,1.1,1.2C64.6,55.5,65.4,55.2,66,56z"/>
<path class="st28" d="M71.7,59.4c-2,0.3-4,0.3-6,0v-0.1C67.7,59.3,69.7,59.3,71.7,59.4C71.7,59.3,71.7,59.4,71.7,59.4z"/>
<path class="st105" d="M77.3,49.3c0,2.4,0,4.8,0,7.1c-0.4,0-0.5-0.3-0.5-0.7c0-1.9,0-3.8,0-5.8C76.8,49.7,76.9,49.4,77.3,49.3z"/>
<path class="st93" d="M82.3,66.3c0.3-0.5,0.9-0.5,1.4-0.4c1.2,0.1,1.5-0.4,1.5-1.5c-0.1-1.6,0-3.1,0-4.7c0.1,0,0.2,0,0.2,0l0,0
	c0,2.2-0.1,4.3-0.1,6.5C84.3,66.6,83.3,66.3,82.3,66.3z"/>
<path class="st106" d="M83.7,56.8c0.5-0.1,1,0.1,1.4-0.3c0.4-0.4,0.2-0.8,0.2-1.2c0-1.6,0-3.2,0-4.7c0.5,0.8,0.1,1.8,0.2,2.6
	c0.1,0.7,0,1.5,0,2.3C85.6,57,85.4,57.2,83.7,56.8z"/>
<path class="st94" d="M85.3,66.1c0-2.2,0.1-4.3,0.1-6.5C85.7,61.8,85.9,63.9,85.3,66.1z"/>
<path class="st107" d="M71.7,59.3c-2,0-4,0-6,0C67.7,59,69.7,59,71.7,59.3z"/>
<path class="st33" d="M85.4,50.5c0,1.6,0,3.2,0,4.7c0,0.4,0.1,0.9-0.2,1.2c0-2,0-4,0-5.9C85.2,50.5,85.3,50.5,85.4,50.5z"/>
<path class="st99" d="M74.1,45.7c0-0.1,0-0.1,0-0.2c0.2-0.2,0.2-0.5,0.2-0.8c0-2.1,0-4.3,0-6.4c0.2,0,0.3,0,0.5,0c0,2.5,0,5,0,7.4
	C74.6,45.7,74.4,45.7,74.1,45.7z"/>
<path class="st91" d="M77.3,39c0,2.4,0,4.8-0.1,7.2c-0.5-0.1-0.4-0.5-0.4-0.9c0-1.9,0-3.7,0-5.6C76.8,39.4,76.8,39,77.3,39z"/>
<path class="st101" d="M63.6,35.3c-0.8,0.1-0.7,0.7-0.7,1.3c0,2.4,0,4.7,0,7.1h-0.1h-0.1c0-2.6,0-5.1,0-7.7c0-0.5,0.1-1,0.7-1
	C63.4,35.1,63.5,35.2,63.6,35.3z"/>
<path class="st4" d="M84.5,47.5c0.5-0.3,0.7-0.7,0.7-1.2c0-1.3,0-2.5,0-3.8c0-0.6-0.2-1.1-0.7-1.4c0.3,0,0.6,0,0.9,0.1
	c0.2,1.9,0,3.8,0.1,5.7c0,0.5-0.2,0.7-0.7,0.7C84.6,47.6,84.5,47.5,84.5,47.5z"/>
<path class="st108" d="M84.7,47.6c0.5,0,0.7-0.2,0.7-0.7c0-1.9,0.1-3.8-0.1-5.7c0.4,0.4,0.3,1,0.3,1.5c0,1.4,0,2.8,0,4.2
	C85.6,47.4,85.6,48.1,84.7,47.6z"/>
<path class="st103" d="M74.3,38.3c0,2.1,0,4.3,0,6.4c0,0.3,0,0.6-0.2,0.8c0-1.9,0-3.9,0-5.8c0-0.5,0-0.9-0.2-1.4
	C74,38.3,74.2,38.3,74.3,38.3z"/>
<path class="st100" d="M62.6,47.1c-0.1,2.9-0.1,5.7,0,8.6c-0.1,0-0.2,0-0.3,0c0-2.9,0-5.8,0-8.7C62.4,47.1,62.5,47.1,62.6,47.1z"/>
<text transform="matrix(0.6838 0 0 1 101.6699 63.2607)" class="st109 st110 st111 st112">Power Query</text>
</svg>
