<?xml version="1.0" encoding="utf-8"?>
<!-- Generator: Adobe Illustrator 27.5.0, SVG Export Plug-In . SVG Version: 6.00 Build 0)  -->
<svg version="1.1" id="Layer_1" xmlns="http://www.w3.org/2000/svg" xmlns:xlink="http://www.w3.org/1999/xlink" x="0px" y="0px"
	 viewBox="0 0 300 100" style="enable-background:new 0 0 300 100;" xml:space="preserve">
<style type="text/css">
	.st0{fill:#6D6E71;}
	.st1{font-family:'MonotypeCorsiva';}
	.st2{font-size:45px;}
</style>
<g>
	<g>
		<path class="st0" d="M45.7,75c0,2.7-2.2,5.1-5.1,5.1S35.4,78,35.4,75V53c0-2.7,2.2-5.1,5.1-5.1c2.9,0,5.1,2.2,5.1,5.1V75z
			 M60.4,80.9c0,2.7-2.2,5.1-5.1,5.1s-4.9-2.2-4.9-5.1V47.4c0-2.7,2.2-5.1,5.1-5.1s5.1,2.2,5.1,5.1v33.5L60.4,80.9z M30.8,70.1
			c0,2.7-2.2,5.1-5.1,5.1s-5.1-2.2-5.1-5.1v-12c0-2.7,2.2-5.1,5.1-5.1s5.1,2.4,5.1,5.1V70.1z M75,86.3c0,2.7-2.2,5.1-5.1,5.1
			c-2.7,0-4.9-2.4-4.9-5.1V41.8c0-2.7,2.2-5.1,5.1-5.1c2.7,0,5.1,2.2,5.1,5.1v44.5H75z"/>
		<path class="st0" d="M91.2,84.1c-1,0-1.7-0.2-2.7-0.5l-6.1-2c-1-0.2-1.7-1.5-1.2-2.4c0.2-1,1.5-1.7,2.4-1.2l6.4,2
			c1.2,0.5,2.7,0.2,3.9-0.7c1.2-0.7,1.7-2.2,1.7-3.4V34.9c0-2-1.2-3.7-2.9-4.2L32.7,12.6c-1.2-0.5-2.7-0.2-3.9,0.5
			c-1,1-1.7,2.2-1.7,3.7v28.1c0,1.2-1,2-2,2c-1.2,0-2-1-2-2V16.8c0-2.7,1.2-5.1,3.4-6.6c2.2-1.7,4.9-2,7.3-1.2l59.7,18.1
			c3.4,1,5.9,4.4,5.9,8.1V76c0,2.7-1.2,5.1-3.4,6.8C94.6,83.3,92.9,84.1,91.2,84.1"/>
	</g>
</g>
<text transform="matrix(1 0 0 1 108.9812 60.2029)" class="st0 st1 st2">Power BI</text>
</svg>
