<?xml version="1.0" encoding="utf-8"?>
<!-- Generator: Adobe Illustrator 27.5.0, SVG Export Plug-In . SVG Version: 6.00 Build 0)  -->
<svg version="1.1" id="Layer_1" xmlns="http://www.w3.org/2000/svg" xmlns:xlink="http://www.w3.org/1999/xlink" x="0px" y="0px"
	 viewBox="0 0 300 100" style="enable-background:new 0 0 300 100;" xml:space="preserve">
<style type="text/css">
	.st0{fill-rule:evenodd;clip-rule:evenodd;fill:url(#SVGID_1_);}
	.st1{fill-rule:evenodd;clip-rule:evenodd;fill:#58595B;}
</style>
<g>
	
		<linearGradient id="SVGID_1_" gradientUnits="userSpaceOnUse" x1="0.4853" y1="99.6532" x2="0.6113" y2="99.5272" gradientTransform="matrix(721.094 0 0 -482.937 -245.094 48140.7031)">
		<stop  offset="0" style="stop-color:#CCCED0"/>
		<stop  offset="1" style="stop-color:#85848C"/>
	</linearGradient>
	<path class="st0" d="M150.3,75.3c-25.1,0-45.4-13.6-45.4-30.4c0-16.8,20.3-30.4,45.4-30.4c25.1,0,45.4,13.6,45.4,30.4
		C195.7,61.7,175.4,75.3,150.3,75.3z M157.2,26.4c-19.1,0-34.5,9.3-34.5,20.8S138.2,68,157.2,68c19.1,0,33.1-6.4,33.1-20.8
		C190.4,32.7,176.3,26.4,157.2,26.4z"/>
	<path class="st1" d="M174,62c0,0,2.7,0.8,4.3,1.6c0.6,0.3,1.5,0.8,2.2,1.6c0.7,0.7,1,1.4,1,1.4L192.4,85l-17.5,0l-8.2-15.4
		c0,0-1.7-2.9-2.7-3.7c-0.9-0.7-1.2-0.9-2.1-0.9c-0.6,0-4.2,0-4.2,0l0,20l-15.5,0V33.8h31.1c0,0,14.2,0.3,14.2,13.7S174,62,174,62z
		 M167.3,44.9l-9.4,0l0,8.7l9.4,0c0,0,4.3,0,4.3-4.4C171.7,44.7,167.3,44.9,167.3,44.9z"/>
</g>
</svg>
