<?xml version="1.0" encoding="utf-8"?>
<!-- Generator: Adobe Illustrator 27.5.0, SVG Export Plug-In . SVG Version: 6.00 Build 0)  -->
<svg version="1.1" id="Layer_1" xmlns="http://www.w3.org/2000/svg" xmlns:xlink="http://www.w3.org/1999/xlink" x="0px" y="0px"
	 viewBox="0 0 300 100" style="enable-background:new 0 0 300 100;" xml:space="preserve">
<style type="text/css">
	.st0{fill:#6D6E71;}
</style>
<g>
	<path class="st0" d="M146.1,82.9c-6.2-0.4-12.2-2-16-4.1c-2.1-1.2-3.7-2.6-4.4-3.9l-0.4-0.8V49.9V25.8l0.3-0.6
		c1.3-2.7,5.6-5.2,11.6-6.6c2-0.5,4.9-1,7.3-1.2c2.4-0.3,8.9-0.2,11.3,0.1c6.4,0.8,11.9,2.5,15.3,4.7c1.3,0.9,2.6,2.3,3.1,3.3
		l0.4,0.8l0,24.1l0,24.1l-0.3,0.6c-0.2,0.3-0.7,1-1.2,1.5c-2.8,3-8.8,5.2-16.8,6.1C154.8,82.8,147.7,83,146.1,82.9L146.1,82.9z
		 M157.4,62.2c0-0.1-0.9-0.9-2-1.8s-2.1-1.8-2.1-1.8s0.1-0.2,0.5-0.4c0.3-0.2,0.9-0.7,1.3-1.1c1.2-1.3,1.8-2.8,1.8-4.9
		c0-2-0.6-3.6-1.8-4.9c-1.2-1.2-2.7-1.8-4.7-1.8c-3.2,0-5.6,1.9-6.4,4.9c-0.3,1-0.3,3.1,0,4.1c0.7,2.4,2.6,4.1,5,4.5
		c0.8,0.1,0.9,0.2,1.5,0.8c0.3,0.4,1,1.1,1.5,1.6l0.9,0.9h2.4C156.4,62.3,157.5,62.2,157.4,62.2L157.4,62.2z M149.3,55.5
		c-0.6-0.3-0.8-0.5-1.1-1.2c-0.3-0.5-0.3-0.8-0.3-2c0-1.2,0-1.5,0.3-2c0.4-0.9,1-1.3,1.9-1.4c1.3-0.1,2,0.5,2.4,2
		c0.5,1.9,0,3.8-1.2,4.5C150.7,55.7,149.8,55.8,149.3,55.5L149.3,55.5z M138.7,58.9c2.5-0.5,3.9-1.9,3.9-4c0-1.9-0.9-2.9-3.5-4.1
		c-1.5-0.6-2-1.1-2-1.5c0-0.4,0.5-0.8,1.1-0.9c0.6-0.1,2.1,0.2,3,0.5l0.7,0.3v-1.6v-1.6l-0.8-0.2c-0.5-0.1-1.5-0.2-2.7-0.2
		c-1.7,0-2,0-2.7,0.3c-1.9,0.7-2.8,2-2.7,3.9c0,1.8,1,2.9,3.3,3.9c1.4,0.6,1.9,1,1.9,1.6c0,1.1-1.9,1.3-3.9,0.3
		c-0.5-0.3-1-0.5-1.1-0.5c-0.1,0-0.1,0.7-0.1,1.7c0,1.8,0,1.8,0.3,1.9C134.7,59,137.3,59.2,138.7,58.9z M167.3,57.3v-1.5H165h-2.3
		v-5.1v-5.1h-2h-2v6.6v6.6h4.3h4.3L167.3,57.3L167.3,57.3z M153.3,31.2c4-0.3,7-0.8,9.6-1.7c2.6-0.9,4.2-1.9,4.5-3.1
		c0.1-0.4,0.1-0.6-0.1-1.1c-0.8-2.2-5.5-3.9-12.6-4.5c-3-0.3-8.6-0.2-11.5,0.2c-4.4,0.6-8,1.7-9.6,3c-3.2,2.6,0.2,5.4,8.1,6.7
		C145.2,31.3,149.7,31.5,153.3,31.2L153.3,31.2z"/>
</g>
</svg>
