<?xml version="1.0" encoding="utf-8"?>
<!-- Generator: Adobe Illustrator 27.5.0, SVG Export Plug-In . SVG Version: 6.00 Build 0)  -->
<svg version="1.1" id="Layer_1" xmlns="http://www.w3.org/2000/svg" xmlns:xlink="http://www.w3.org/1999/xlink" x="0px" y="0px"
	 viewBox="0 0 300 100" style="enable-background:new 0 0 300 100;" xml:space="preserve">
<style type="text/css">
	.st0{fill:#6D6E71;stroke:#6D6E71;stroke-width:3;stroke-miterlimit:3.864;}
	.st1{fill:#6D6E71;stroke:#6D6E71;stroke-miterlimit:10;}
	.st2{fill-rule:evenodd;clip-rule:evenodd;fill:#6D6E71;stroke:#6D6E71;stroke-miterlimit:10;}
	.st3{fill:#414042;stroke:#6D6E71;stroke-width:3;stroke-miterlimit:3.864;}
	.st4{fill:#A7A9AC;stroke:#6D6E71;stroke-width:3;stroke-miterlimit:3.864;}
	.st5{fill:none;stroke:#6D6E71;stroke-width:3;stroke-miterlimit:3.864;}
	.st6{fill:#D1D3D4;stroke:#6D6E71;stroke-width:3;stroke-miterlimit:3.864;}
	.st7{fill:#6D6E71;}
	.st8{font-family:'ErasITC-Bold';}
	.st9{font-size:27px;}
</style>
<path class="st0" d="M19.2,47h175.4"/>
<path class="st1" d="M35,42.5V25.7h-3.1l-5,13.4l-5-13.4h-3.1v16.8h1.8V27.8l5.5,14.7h1.4L33,27.8v14.7H35"/>
<path class="st2" d="M38.3,42.5h1.9V30.1h-1.9V42.5z M38.2,27.8h2.1v-2.1h-2.1L38.2,27.8z"/>
<path class="st1" d="M50.6,38.1c-0.4,2-1.5,3.1-3,3.1c-2.1,0-3.3-1.9-3.3-5c0-3,1.3-4.9,3.3-4.9c1.7,0,2.7,1,3,3.1l1.7-0.3
	c-0.5-2.8-2.2-4.3-4.7-4.3c-3.2,0-5.3,2.6-5.3,6.5c0,4,2.1,6.5,5.2,6.5c1.4,0,2.5-0.4,3.4-1.3c0.8-0.8,1.2-1.5,1.5-3L50.6,38.1"/>
<path class="st1" d="M56.1,42.5v-6.6c0.1-2.6,1.8-4.5,4.2-4.3v-1.8c-0.3,0-0.5,0-0.7,0c-0.9,0-1.9,0.4-2.4,1.1
	c-0.5,0.6-0.7,0.9-1.3,2.2v-2.9h-1.7v12.4L56.1,42.5"/>
<path class="st2" d="M65.9,29.8c-1.8,0-3.2,0.7-4.4,2.1c-0.9,1.1-1.4,2.6-1.4,4.4c0,1.7,0.4,3.2,1.2,4.4c1,1.5,2.4,2.2,4.2,2.2
	c3.4,0,5.7-2.7,5.7-6.5C71.4,32.4,69.2,29.8,65.9,29.8L65.9,29.8z M65.7,31.3c1,0,2,0.5,2.6,1.3c0.6,0.9,0.9,2,0.9,3.6
	c0,3.1-1.3,5-3.5,5c-2.2,0-3.4-1.8-3.4-5c0-1.5,0.3-2.7,0.9-3.5C63.8,31.9,64.8,31.3,65.7,31.3"/>
<path class="st1" d="M71.8,39.3c0.3,1.1,0.6,1.6,1.3,2.2c1.1,0.9,2.5,1.4,4.2,1.4c3.1,0,5.1-1.5,5.1-3.8c0-2-1.2-3.2-3.8-3.7
	l-2.4-0.4c-1.3-0.2-1.9-0.8-1.9-1.8c0-1.1,1.1-1.8,2.7-1.8c1.6,0,2.6,0.6,3.2,1.9l1.8-0.4c-0.6-2.1-2.3-3.1-4.9-3.1
	c-2.8,0-4.7,1.5-4.7,3.6c0,1.8,1.2,3,3.3,3.4l2.6,0.5c1.4,0.3,2.1,0.9,2.1,1.9c0,1.2-1.2,2-2.9,2c-1.2,0-2.3-0.4-3.1-0.9
	c-0.4-0.3-0.6-0.7-0.8-1.4L71.8,39.3"/>
<path class="st2" d="M89.1,29.8c-1.8,0-3.2,0.7-4.4,2.1c-0.9,1.1-1.4,2.6-1.4,4.4c0,1.7,0.4,3.2,1.2,4.4c1,1.5,2.4,2.2,4.2,2.2
	c3.4,0,5.7-2.7,5.7-6.5C94.6,32.4,92.3,29.8,89.1,29.8L89.1,29.8z M88.9,31.3c1,0,2,0.5,2.6,1.3c0.6,0.9,0.9,2,0.9,3.6
	c0,3.1-1.3,5-3.5,5c-2.2,0-3.4-1.8-3.4-5c0-1.5,0.3-2.7,0.9-3.5C86.9,31.9,88,31.3,88.9,31.3"/>
<path class="st1" d="M101.8,30.1h-3c0-1.4,0-1.4,0.2-2c0.3-0.8,1.1-1.2,2.3-1.2c0.4,0,0.7,0,1.2,0.2v-1.6c-0.9-0.1-1.3-0.2-1.9-0.2
	c-1.6,0-2.8,0.8-3.3,2C97.1,28,97,28.5,97,30.1h-2.2v1.5H97v10.9h1.8V31.6h3L101.8,30.1"/>
<path class="st1" d="M109.7,41.2c-0.7,0.1-1,0.2-1.5,0.2c-1.3,0-2-0.7-2-1.9v-7.8h2.8v-1.5h-2.8v-3.3l-1.8,0.1l-0.1,3.1h-2.2v1.5
	h2.2v7.5c0,2.5,1.2,3.8,3.5,3.8c0.6,0,1,0,1.8-0.1L109.7,41.2"/>
<path class="st1" d="M115,74.8h-2.2c0-1,0-1,0.2-1.5c0.2-0.6,0.8-0.9,1.7-0.9c0.3,0,0.5,0,0.9,0.1v-1.1c-0.6-0.1-1-0.1-1.4-0.1
	c-1.2,0-2.1,0.5-2.4,1.4c-0.2,0.5-0.3,0.9-0.3,2h-1.6v1.1h1.6v8h1.3v-8h2.2L115,74.8"/>
<path class="st2" d="M120.4,74.6c-1.3,0-2.4,0.5-3.2,1.5c-0.7,0.8-1,1.9-1,3.2c0,1.3,0.3,2.3,0.9,3.2c0.7,1.1,1.7,1.6,3.1,1.6
	c2.5,0,4.2-2,4.2-4.7C124.3,76.5,122.7,74.6,120.4,74.6L120.4,74.6z M120.2,75.8c0.7,0,1.5,0.4,1.9,1c0.4,0.6,0.6,1.5,0.6,2.6
	c0,2.3-0.9,3.6-2.5,3.6c-1.6,0-2.5-1.3-2.5-3.7c0-1.1,0.2-2,0.6-2.6C118.8,76.2,119.5,75.8,120.2,75.8"/>
<path class="st1" d="M128.4,83.9v-4.8c0-1.9,1.3-3.3,3.1-3.1v-1.3c-0.2,0-0.4,0-0.5,0c-0.7,0-1.4,0.3-1.8,0.8
	c-0.3,0.4-0.5,0.7-0.9,1.6v-2.1H127v9.1L128.4,83.9"/>
<path class="st2" d="M147.1,83.9l-4-12.3h-1.8l-4,12.3h1.3l1.1-3.6h4.5l1.2,3.6H147.1z M144,79.2h-3.8l1.9-5.9L144,79.2"/>
<path class="st2" d="M150.9,87v-4.5c0.8,1.2,1.5,1.6,2.7,1.6c2.2,0,3.6-1.9,3.6-4.8c0-2.8-1.5-4.8-3.6-4.8c-1.3,0-2.1,0.6-2.9,2
	v-1.8h-1.3V87H150.9z M150.9,78.1c0.4-1.4,1.3-2.2,2.4-2.2c1.5,0,2.4,1.3,2.4,3.6c0,1.2-0.2,2.1-0.7,2.7c-0.4,0.5-1.1,0.8-1.7,0.8
	c-1.2,0-2.2-1-2.4-2.4L150.9,78.1"/>
<path class="st2" d="M161.3,87v-4.5c0.8,1.2,1.5,1.6,2.7,1.6c2.2,0,3.6-1.9,3.6-4.8c0-2.8-1.5-4.8-3.6-4.8c-1.3,0-2.1,0.6-2.9,2
	v-1.8h-1.3V87H161.3z M161.3,78.1c0.4-1.4,1.3-2.2,2.4-2.2c1.5,0,2.4,1.3,2.4,3.6c0,1.2-0.2,2.1-0.7,2.7c-0.4,0.5-1.1,0.8-1.7,0.8
	c-1.2,0-2.2-1-2.4-2.4L161.3,78.1"/>
<path class="st1" d="M170.2,83.9h1.4V71.6h-1.4V83.9z"/>
<path class="st2" d="M175,83.9h1.4v-9.1H175V83.9z M174.9,73.2h1.5v-1.6h-1.5V73.2z"/>
<path class="st1" d="M185.1,80.7c-0.3,1.5-1.1,2.3-2.2,2.3c-1.5,0-2.4-1.4-2.4-3.6c0-2.2,0.9-3.6,2.4-3.6c1.2,0,2,0.7,2.2,2.3
	l1.3-0.2c-0.4-2.1-1.6-3.2-3.4-3.2c-2.4,0-3.9,1.9-3.9,4.8c0,2.9,1.5,4.8,3.8,4.8c1,0,1.8-0.3,2.4-1c0.6-0.6,0.9-1.1,1.1-2.2
	L185.1,80.7"/>
<path class="st2" d="M196,83.9c-0.1-0.6-0.2-1.1-0.2-1.8v-3.8c0-1.3-0.2-2-0.6-2.7c-0.5-0.7-1.5-1.1-2.8-1.1c-1.5,0-2.7,0.4-3.4,1.1
	c-0.4,0.4-0.5,0.7-0.7,1.4l1.3,0.2c0.2-1.1,1.1-1.6,2.4-1.6c1.2,0,1.9,0.4,2.2,1c0.1,0.4,0.2,0.6,0.2,1.6c-0.6,0-0.8,0-1.2,0
	c-1.5,0-2.7,0.2-3.6,0.6c-1,0.5-1.6,1.5-1.6,2.5c0,1.6,1.3,2.7,3.2,2.7c1.5,0,2.5-0.5,3.2-1.9c0.1,1,0.1,1.2,0.2,1.6L196,83.9z
	 M194.4,79.4c0,0.2,0,0.4,0,0.6c0,1.8-1.3,3.1-2.9,3.1c-1.2,0-1.9-0.6-1.9-1.6c0-1.3,1.3-2.1,3.5-2.1
	C193.5,79.3,193.9,79.4,194.4,79.4"/>
<path class="st1" d="M203.3,82.9c-0.5,0.1-0.8,0.1-1.1,0.1c-1,0-1.5-0.5-1.5-1.4v-5.7h2v-1.1h-2v-2.4l-1.3,0.1l-0.1,2.3h-1.6v1.1
	h1.6v5.5c0,1.8,0.9,2.8,2.6,2.8c0.4,0,0.7,0,1.3-0.1L203.3,82.9"/>
<path class="st2" d="M205.4,83.9h1.4v-9.1h-1.4V83.9z M205.3,73.2h1.5v-1.6h-1.5V73.2z"/>
<path class="st2" d="M213.6,74.6c-1.3,0-2.4,0.5-3.2,1.5c-0.7,0.8-1,1.9-1,3.2c0,1.3,0.3,2.3,0.9,3.2c0.7,1.1,1.7,1.6,3.1,1.6
	c2.5,0,4.2-2,4.2-4.7C217.6,76.5,216,74.6,213.6,74.6L213.6,74.6z M213.5,75.8c0.8,0,1.5,0.4,1.9,1c0.4,0.6,0.6,1.5,0.6,2.6
	c0,2.3-0.9,3.6-2.5,3.6c-1.6,0-2.5-1.3-2.5-3.7c0-1.1,0.2-2,0.6-2.6C212,76.2,212.8,75.8,213.5,75.8"/>
<path class="st1" d="M227.4,83.9v-5.3c0-1.3-0.1-2-0.3-2.4c-0.5-1-1.5-1.6-2.7-1.6c-1.3,0-2,0.5-2.9,1.9v-1.7h-1.3v9.1h1.4v-5
	c0-1.8,1.1-3.1,2.5-3.1c1.2,0,1.9,0.8,1.9,2.3v5.8H227.4"/>
<path class="st1" d="M229.6,81.6c0.2,0.8,0.5,1.2,0.9,1.6c0.8,0.7,1.8,1,3.1,1c2.3,0,3.7-1.1,3.7-2.8c0-1.5-0.9-2.4-2.8-2.7
	l-1.8-0.3c-1-0.2-1.4-0.6-1.4-1.3c0-0.8,0.8-1.3,2-1.3c1.2,0,1.9,0.4,2.3,1.4l1.3-0.3c-0.4-1.5-1.7-2.3-3.6-2.3
	c-2.1,0-3.4,1.1-3.4,2.7c0,1.3,0.9,2.2,2.4,2.5l1.9,0.4c1,0.2,1.6,0.7,1.6,1.4c0,0.9-0.9,1.5-2.1,1.5c-0.9,0-1.7-0.3-2.3-0.7
	c-0.3-0.2-0.4-0.5-0.6-1L229.6,81.6"/>
<path class="st3" d="M242.1,33.5l-16.4,8.5l-16.4-8.5V22.4l16.4-8.5l16.4,8.5V33.5z"/>
<path class="st4" d="M264.9,47.1l-16.5,8.5L232,47.1V36l16.4-8.5l16.4,8.5L264.9,47.1z"/>
<path class="st4" d="M218.9,47l-16.4,8.5L186,47V36l16.4-8.5l16.4,8.5V47z"/>
<path class="st5" d="M248.4,42.8v12.6 M265.2,35.7l-16.7,8.4l-16.5-8.3"/>
<path class="st5" d="M202.4,42.7V56 M219.2,35.7l-16.7,8.4l-16.5-8.3"/>
<path class="st5" d="M242.4,22.1l-16.7,8.4l-16.5-8.3"/>
<path class="st6" d="M242.1,47.3l-16.4,8.5l-16.4-8.5V36.3l16.4-8.5l16.4,8.5V47.3z"/>
<path class="st5" d="M242.4,36l-16.7,8.4l-16.5-8.3 M225.6,43V56"/>
<text transform="matrix(1 0 0 1 21.8866 68.9346)" class="st7 st8 st9">Visual Basic</text>
</svg>
