<?xml version="1.0" encoding="UTF-8"?>
<svg id="Layer_2" data-name="Layer 2" xmlns="http://www.w3.org/2000/svg" viewBox="0 0 237.92 103.94">
  <defs>
    <style>
      .cls-1 {
        stroke-width: 1.89px;
      }

      .cls-1, .cls-2, .cls-3, .cls-4, .cls-5 {
        stroke: #000;
      }

      .cls-1, .cls-3 {
        stroke-miterlimit: 10;
      }

      .cls-1, .cls-3, .cls-4, .cls-5 {
        fill: #000;
      }

      .cls-2 {
        fill: none;
        stroke-linecap: round;
        stroke-linejoin: round;
        stroke-width: 3.94px;
      }

      .cls-3 {
        stroke-width: 2.1px;
      }

      .cls-4 {
        stroke-width: 1.88px;
      }

      .cls-5 {
        stroke-width: 1.91px;
      }
    </style>
  </defs>
  <g id="Layer_1-2" data-name="Layer 1">
    <g>
      <path class="cls-1" d="m68.06,13.12c-.83-1.06-2.02-1.59-3.58-1.59-1.94,0-3.68.8-5.21,2.41-1.53,1.61-2.93,4.26-4.17,7.94-1.25,3.68-2.54,9.44-3.88,17.27-.46,2.67-1.38,9.21-2.77,19.63-1.08,8-1.8,13.17-2.16,15.5-3.76-18.42-6.1-30.17-7.01-35.25-.91-5.08-1.83-11.01-2.77-17.78l-1.01-7.43c-1.61.68-3.32,1.23-5.14,1.65,0,0,.34,3.2.22,3.87-2.04,19.6-4.16,35.78-6.36,48.52-1.82,10.54-3.72,17.47-5.68,20.77-1.32,2.16-2.66,3.24-4.03,3.24-1.27,0-2.67-1.25-4.21-3.75-.86-1.4-1.67-2.1-2.41-2.1-.58,0-1.07.35-1.47,1.05-.41.7-.61,1.49-.61,2.38,0,2.03.55,3.7,1.65,5.02,1.44,1.78,3.28,2.67,5.54,2.67,1.8,0,3.45-.7,4.94-2.09,1.5-1.4,2.88-3.62,4.13-6.67,1.26-3.05,2.44-7.43,3.54-13.15.34-1.82,1.38-8.75,3.15-20.8,1.76-12.05,2.88-20.61,3.36-25.69l3.95,21.98c1.65,9.1,3.13,16.64,4.42,22.61.96,4.45,2.8,11.98,5.54,22.61l1.22-9.46c2.76-21.68,5.03-37.45,6.82-47.32s3.42-16.03,4.91-18.48c.84-1.4,1.85-2.1,3.02-2.1.5,0,.97.09,1.4.25.24.13.96.61,2.16,1.46.58.42,1.08.63,1.51.63.6,0,1.12-.4,1.56-1.21.44-.8.66-1.73.66-2.79,0-1.48-.41-2.75-1.24-3.81Z"/>
      <path class="cls-4" d="m95.57,12.42l-.67,3.81c-2.97.33-4.94.99-5.92,1.97-.63.66-1.16,1.65-1.58,2.96-.5,1.69-1.95,10.67-4.37,26.93-.79,5.36-2.79,20-6.02,43.91,1.84,1.08,4.16,1.55,6.97,1.41l-.63,3.38c-.84.05-2.52-.14-5.04-.56-1.81-.28-3.93-.42-6.34-.42-3.34,0-6.39.45-9.18,1.34l.47-3.74c2.89-.8,5.08-1.83,6.58-3.1.37-.33.66-.73.87-1.2.39-.85.82-2.55,1.28-5.11.46-2.56,2.03-13.03,4.71-31.4.79-5.31,2.39-16.92,4.8-34.82-1.81-.09-4.03.35-6.65,1.34l.75-3.88c1.1-.52,2.23-.88,3.39-1.09,1.15-.21,3.77-.41,7.84-.6,3.81-.19,6.72-.56,8.74-1.13Z"/>
      <path class="cls-5" d="m127.33,5.92c-1.78,6.77-3.67,16.19-5.67,28.27l-5.44,32.65c-1.73,10.46-4.14,18.11-7.23,22.96-3.11,4.89-6.51,7.34-10.18,7.34-2.43,0-4.39-.94-5.88-2.82-1.48-1.88-2.23-3.95-2.23-6.21,0-1.05.22-1.96.66-2.76.44-.79.94-1.19,1.5-1.19.83,0,1.72.86,2.67,2.57,1.29,2.3,2.3,3.76,3.03,4.39,1.02.88,1.95,1.32,2.78,1.32.88,0,1.63-.34,2.27-1,1.05-1.09,1.96-2.79,2.74-5.11.78-2.32,2.39-10.05,4.82-23.19,2.05-10.96,4.04-22.34,5.96-34.13l3.18-19.07-98.02-.13c-3.88,0-7.08,1.6-9.62,4.8s-3.8,6.57-3.8,10.12c0,1.25.32,2.7.95,4.33.58,1.51.88,2.7.88,3.57,0,1.09-.24,2.04-.71,2.85-.47.82-1.04,1.22-1.7,1.22-.85,0-1.55-.65-2.1-1.94-.55-1.29-.82-3.19-.82-5.69,0-4.67.97-8.96,2.9-12.86,1.93-3.9,4.55-6.75,7.83-8.54,2.19-1.21,5.51-1.81,9.97-1.81.63,0,98.57.02,101.27.06Z"/>
    </g>
    <path class="cls-5" d="m152.5,63.14c1.83-2.66,3.63-4.61,5.41-5.85,1.77-1.24,3.34-1.86,4.69-1.86,1.58,0,2.85.84,3.8,2.51.95,1.67,1.42,4.2,1.42,7.58,0,4.9-.87,9.7-2.61,14.39-1.74,4.69-3.89,8.26-6.46,10.71-2.57,2.45-5.07,3.68-7.51,3.68-2.08,0-3.74-.81-4.98-2.42s-1.86-3.71-1.86-6.28c0-2.06.3-4.93.91-8.61l4-23.71c.97-5.8,2.19-10.21,3.66-13.25,1.47-3.03,3.4-5.45,5.8-7.26,2.39-1.81,4.67-2.71,6.81-2.71,1.29,0,2.23.29,2.83.87s.9,1.37.9,2.35c0,.9-.27,1.64-.81,2.24-.54.6-1.31.9-2.31.9-.75,0-2.03-.22-3.87-.67-.81-.21-1.54-.31-2.17-.31-1.13,0-2.05.81-2.75,2.42-.52,1.25-1.23,4.44-2.14,9.55l-2.77,15.73Zm6.68-2.73c-1.11,0-2.42.88-3.95,2.64-1.53,1.76-2.97,4.88-4.32,9.35-1.36,4.47-2.03,8.85-2.03,13.16,0,1.61.39,2.97,1.17,4.06s1.69,1.64,2.73,1.64c2.51,0,4.75-2.62,6.71-7.87,1.97-5.24,2.95-10.47,2.95-15.67,0-2.36-.37-4.29-1.12-5.78-.52-1.02-1.23-1.52-2.14-1.52Z"/>
    <path class="cls-5" d="m191.68,54.53l2.24-.63-2.54,11.34c-1.02,4.51-1.98,9.71-2.88,15.6-.5,3.2-.75,5.26-.75,6.19s.28,1.39.85,1.39c.36,0,.94-.31,1.73-.94,1.4-1.1,2.75-2.48,4.04-4.12l1.09,1.75c-2.58,3.11-4.23,4.99-4.95,5.65-1.45,1.32-2.83,2.29-4.14,2.91-.86.42-1.7.63-2.51.63-.59,0-1.03-.18-1.32-.54-.29-.36-.44-.88-.44-1.57,0-.45.09-1.06.27-1.84l1.36-6.1c-1.94,3.08-4.26,5.72-6.95,7.93-1.65,1.38-3.16,2.06-4.54,2.06s-2.32-.61-3.02-1.84c-.95-1.64-1.42-3.79-1.42-6.46,0-3.17.64-6.69,1.92-10.58,1.28-3.88,2.99-7.41,5.14-10.58,2.15-3.17,4.41-5.5,6.78-6.99,1.83-1.14,4.18-1.7,7.05-1.7.72,0,1.46.06,2.2.18l.81-1.75Zm-7.2,6.86c-1.22-.33-2.25-.49-3.08-.49-2.03,0-3.81.74-5.32,2.22-1.52,1.48-2.92,4.14-4.22,7.98-1.3,3.84-1.95,7.67-1.95,11.5,0,2.03.26,3.5.78,4.39.52.9,1.2,1.35,2.03,1.35,1.56,0,3.23-1.11,5.02-3.34,1.78-2.23,3.1-5.43,3.93-9.62l2.81-13.99Z"/>
    <path class="cls-5" d="m198,65.69l-1.49-1.52c2.26-3.29,4.32-5.63,6.18-7.02s3.45-2.08,4.76-2.08c.72,0,1.28.21,1.66.63.38.42.58.99.58,1.7,0,.87-.73,4.54-2.2,11.03-2.39,10.61-3.58,17-3.58,19.19,0,.42.08.77.24,1.05.16.28.33.43.51.43.72,0,2.58-1.85,5.56-5.56l1.32,1.7c-3.1,3.86-5.36,6.32-6.78,7.4-1.42,1.08-2.59,1.61-3.49,1.61-.79,0-1.42-.33-1.88-.99-.46-.66-.7-1.57-.7-2.73,0-3.74,1.7-12.87,5.09-27.39.16-.69.24-1.3.24-1.84,0-.6-.2-.9-.61-.9-.45,0-.97.24-1.54.72s-1.86,2-3.85,4.57Zm10.52-24.37c.7,0,1.28.31,1.73.92.45.61.68,1.4.68,2.35,0,1.31-.35,2.47-1.04,3.47-.69,1-1.46,1.5-2.32,1.5-.68,0-1.24-.31-1.7-.94-.45-.63-.68-1.45-.68-2.47,0-1.35.33-2.49.98-3.43.65-.94,1.43-1.41,2.34-1.41Z"/>
    <path class="cls-5" d="m219.03,92.99h-5.05l2.37-12.06c1.15-5.92,2.16-11.53,3.02-16.85.2-1.31.3-2.14.3-2.47,0-.72-.25-1.08-.75-1.08-.34,0-.86.31-1.56.92-.7.61-1.97,2.13-3.8,4.55l-1.05-1.57c2.17-3.08,4.33-5.39,6.49-6.93,2.16-1.54,3.81-2.31,4.97-2.31.41,0,.73.13.96.38.24.25.36.58.36.96s-.15,1.43-.45,3.11l-1.48,8.06c2.29-4.77,4.87-8.85,7.75-12.24,1.38-1.62,2.54-2.43,3.46-2.43.68,0,1.25.29,1.7.87s.68,1.26.68,2.04-.22,1.49-.66,2.06c-.44.57-1.54,1.24-3.3,2.02-1.67.75-3.03,1.65-4.08,2.69-1.05,1.05-2.2,2.65-3.46,4.8-1.25,2.15-2.13,4.03-2.63,5.63s-1.26,5.31-2.28,11.14l-1.53,8.69Z"/>
    <path class="cls-2" d="m131.13,49.97V1.97H1.97v100h129.16v-5.03"/>
    <path class="cls-3" d="m134.94,54.29c2.21,0,4.06,1.17,5.53,3.5s2.2,5.57,2.2,9.73c0,6.63-1.76,12.59-5.29,17.86-3.53,5.28-7.26,7.91-11.19,7.91-2.42,0-4.37-1.05-5.85-3.14-1.48-2.09-2.22-4.95-2.22-8.56,0-6.28,1.36-12.07,4.07-17.39,3.41-6.6,7.66-9.91,12.75-9.91Zm-2.88,3.36c-1.92,0-3.78,1.81-5.58,5.45-1.8,3.63-2.7,8.64-2.7,15.04,0,3.88.55,6.95,1.66,9.19.81,1.64,1.9,2.47,3.25,2.47,1.9,0,3.63-1.55,5.19-4.66,1.99-4.03,2.98-9.04,2.98-15.02,0-4.48-.46-7.68-1.37-9.59-.91-1.91-2.06-2.87-3.44-2.87Z"/>
  </g>
</svg>