<?xml version="1.0" encoding="utf-8"?>
<!-- Generator: Adobe Illustrator 27.5.0, SVG Export Plug-In . SVG Version: 6.00 Build 0)  -->
<svg version="1.1" id="Layer_2_00000150803944826917896900000013078763080881193353_"
	 xmlns="http://www.w3.org/2000/svg" xmlns:xlink="http://www.w3.org/1999/xlink" x="0px" y="0px" viewBox="0 0 250 110"
	 style="enable-background:new 0 0 250 110;" xml:space="preserve">
<style type="text/css">
	.st0{fill:#7D334F;stroke:#7D334F;stroke-miterlimit:10;}
</style>
<g>
	<g>
		<path class="st0" d="M134.5,71.3v13.8c0,2.9-0.9,5.6-2.8,8.1c-1.8,2.5-3.7,3.7-5.7,3.7h-5c-2,0-3.9-1.3-5.7-3.8
			c-1.8-2.5-2.7-5.2-2.7-8.1V71.3c0-2.9,0.9-5.5,2.7-8.1c1.8-2.5,3.7-3.8,5.8-3.8h5.1c2-0.1,3.8,1.2,5.7,3.7
			C133.6,65.6,134.5,68.4,134.5,71.3z M117,71.6v13.2c0,1.2,0.3,2.1,0.9,2.8l1.6,2.1c0.4,0.5,0.9,0.7,1.5,0.7h5c0.7,0,1.4-0.4,2-1.2
			l1.3-1.7c0.5-0.6,0.8-1.5,0.8-2.6V71.7c0-1.3-0.3-2.3-0.8-2.9l-1.5-1.8c-0.5-0.6-1.1-1-1.8-1h-4.5c-1,0-1.7,0.3-2.3,1l-1.5,1.9
			C117.2,69.6,117,70.5,117,71.6z"/>
		<path class="st0" d="M143.6,48.7v15.4l1.9-2.3c1.2-1.5,2.5-2.3,3.8-2.3h4c1.5,0,2.8,0.8,3.9,2.3l2.1,2.7c0.6,0.8,1,1.8,1.4,3.2
			c0.4,1.4,0.6,2.8,0.6,4.1V85c0,1.2-0.2,2.4-0.5,3.8c-0.3,1.3-0.7,2.3-1.2,2.9l-1.9,2.7c-0.5,0.7-1.2,1.3-2.1,1.9
			c-0.9,0.6-1.7,0.8-2.3,0.8h-3.7c-1.8,0-3.8-1.5-5.9-4.5v1.3c0,0.9-0.2,1.7-0.6,2.3c-0.4,0.6-0.9,1-1.5,1s-1.1-0.3-1.5-1
			c-0.4-0.6-0.6-1.4-0.6-2.3V48.7c0-0.9,0.2-1.7,0.6-2.3c0.4-0.6,0.9-1,1.5-1s1.1,0.3,1.5,1C143.4,47,143.6,47.8,143.6,48.7z
			 M152.9,66.1h-3c-0.7,0-1.3,0.2-1.7,0.7l-3.9,5c-0.5,0.7-0.8,1.7-0.8,3v7.4c0,1.1,0.3,2,0.9,2.7l3.5,4.4c0.5,0.7,1,1.1,1.6,1.1
			h3.5c0.5,0,0.9-0.2,1.3-0.7l1.7-2.3c0.5-0.5,0.7-1.3,0.7-2.2V71.5c0-1.1-0.2-1.9-0.7-2.5l-1.6-2C154.1,66.4,153.5,66.1,152.9,66.1
			z"/>
		<path class="st0" d="M172.6,73.5h8.5c0.5,0,1.1,0.2,2,0.5l-0.1-4.6c0-0.9-0.2-1.7-0.6-2.3c-0.4-0.6-0.9-1-1.5-1h-8.3
			c-0.6,0-1.1-0.3-1.5-1c-0.4-0.6-0.6-1.4-0.6-2.3c0-0.9,0.2-1.7,0.6-2.3c0.4-0.6,0.9-1,1.5-1h8.3c1.8,0,3.3,0.9,4.6,2.8
			c1.3,1.9,1.9,4.2,2,7l0.5,24.5c0,0.9-0.2,1.7-0.6,2.3c-0.4,0.6-0.9,1-1.5,1s-1.1-0.3-1.6-1c-0.4-0.6-0.6-1.4-0.6-2.3l-3.7,3.3
			h-7.4c-1.8,0-3.4-1-4.7-2.9s-1.9-4.3-1.9-7v-3.8c0-2.7,0.6-5,1.9-7C169.2,74.5,170.7,73.5,172.6,73.5z M183.4,86.2l-0.1-2.8
			c0-0.9-0.2-1.7-0.6-2.3c-0.4-0.6-0.9-0.9-1.5-0.9h-8.6c-0.6,0-1.1,0.3-1.5,1s-0.6,1.4-0.6,2.3v3.7c0,0.9,0.2,1.6,0.6,2.3
			c0.4,0.6,0.9,1,1.5,1h6.1L183.4,86.2z"/>
		<path class="st0" d="M208.2,97h-13.3c-0.6,0-1.1-0.3-1.5-1c-0.4-0.6-0.6-1.4-0.6-2.3s0.2-1.6,0.6-2.3c0.4-0.6,0.9-1,1.5-1h4.5
			V66.1H195c-0.6,0-1.1-0.3-1.5-1c-0.4-0.6-0.6-1.4-0.6-2.3c0-0.9,0.2-1.7,0.6-2.4c0.4-0.7,0.9-1,1.5-1h6.6c0.6,0,1.1,0.3,1.5,1
			s0.6,1.4,0.6,2.4v27.6h4.4c0.6,0,1.1,0.3,1.6,1c0.4,0.6,0.7,1.4,0.7,2.3s-0.2,1.7-0.6,2.3C209.3,96.7,208.8,97,208.2,97z
			 M199.3,42.5h2.3c0.6,0,1.1,0.3,1.5,1c0.4,0.6,0.6,1.4,0.6,2.3v2.8c0,0.9-0.2,1.7-0.6,2.4c-0.4,0.7-0.9,1-1.5,1h-2.3
			c-0.6,0-1.1-0.3-1.6-1c-0.4-0.7-0.6-1.4-0.6-2.3l0.1-2.9c0-0.9,0.2-1.7,0.6-2.3C198.2,42.9,198.7,42.5,199.3,42.5z"/>
		<path class="st0" d="M215.1,93.8v-31c0-0.9,0.2-1.7,0.6-2.4c0.4-0.7,0.9-1,1.5-1s1.1,0.3,1.5,1c0.4,0.6,0.6,1.4,0.6,2.4v4.1
			l3.5-4.5c1.5-1.9,2.9-2.8,4.3-2.8h3.2c1.8,0,3.3,1,4.6,2.9c1.3,1.9,1.9,4.2,1.9,6.9v1.8c0,0.9-0.2,1.7-0.6,2.4
			c-0.4,0.6-0.9,1-1.5,1s-1.1-0.3-1.5-1c-0.4-0.6-0.6-1.4-0.6-2.3v-1.8c0-0.9-0.2-1.7-0.6-2.3c-0.4-0.6-0.9-1-1.5-1h-2.8
			c-0.6,0-1.3,0.5-2,1.4l-6.2,8v18.2c0,0.9-0.2,1.7-0.6,2.3c-0.4,0.6-0.9,1-1.5,1s-1.1-0.3-1.5-1C215.3,95.5,215.1,94.7,215.1,93.8z
			"/>
	</g>
	<polygon class="st0" points="13.2,102.5 13.2,7.5 47.2,7.5 47.2,68.6 54,68.6 54,7.5 67.5,7.5 67.5,82.1 33.6,82.1 33.6,21.1 
		26.8,21.1 26.8,102.5 	"/>
	<polygon class="st0" points="94.7,7.5 108.2,7.5 108.2,102.5 33.6,102.5 33.6,88.9 94.7,88.9 	"/>
	<rect x="74.3" y="7.5" class="st0" width="13.3" height="74.6"/>
</g>
</svg>
