<?xml version="1.0" standalone="no"?>
<!DOCTYPE svg PUBLIC "-//W3C//DTD SVG 20010904//EN"
 "http://www.w3.org/TR/2001/REC-SVG-20010904/DTD/svg10.dtd">
<svg version="1.0" xmlns="http://www.w3.org/2000/svg"
 width="512.000000pt" height="512.000000pt" viewBox="0 0 512.000000 512.000000"
 preserveAspectRatio="xMidYMid meet">
<metadata>
Created by potrace 1.14, written by Peter Selinger 2001-2017
</metadata>
<g transform="translate(0.000000,512.000000) scale(0.100000,-0.100000)"
fill="#000000" stroke="none">
<path d="M0 2560 l0 -2560 2560 0 2560 0 0 2560 0 2560 -2560 0 -2560 0 0
-2560z m947 692 c368 -528 813 -1175 834 -1213 12 -21 15 77 19 686 l5 710 27
57 c33 72 103 147 164 177 25 13 77 32 115 41 l69 18 -2 -1001 -3 -1002 -29
-59 c-56 -111 -165 -192 -293 -218 -44 -9 -57 -8 -67 3 -7 8 -159 205 -338
439 -202 265 -415 557 -563 775 -131 193 -244 357 -251 365 -12 12 -14 -80
-14 -585 0 -330 -4 -628 -9 -662 -21 -140 -109 -256 -233 -306 -37 -15 -86
-30 -108 -33 l-40 -7 2 999 3 999 28 56 c56 116 142 184 276 220 36 9 68 17
71 18 3 0 154 -215 337 -477z m1793 -465 c-1 -513 -5 -962 -9 -999 -19 -142
-107 -261 -233 -311 -37 -15 -86 -30 -108 -33 l-40 -7 2 999 3 999 26 55 c35
73 95 139 160 174 52 29 177 67 192 59 4 -2 7 -424 7 -936z m1760 926 c0 -33
-27 -118 -52 -168 -33 -65 -113 -139 -186 -173 l-57 -27 -295 0 -295 0 -56 28
c-79 38 -140 95 -176 164 -28 53 -38 82 -57 166 l-6 27 590 0 c555 0 590 -1
590 -17z m358 -800 l-4 -818 -22 -75 c-88 -286 -314 -501 -597 -566 -68 -16
-123 -19 -355 -19 -297 0 -336 5 -471 56 -148 57 -273 158 -364 294 -119 181
-135 252 -135 623 l0 284 33 -7 c110 -22 177 -57 244 -126 62 -65 93 -140 104
-258 10 -112 35 -193 80 -263 64 -100 192 -186 308 -208 71 -13 332 -13 404 0
170 32 316 162 367 327 19 62 20 92 20 637 0 621 1 641 57 735 33 56 92 115
142 140 33 17 158 58 184 60 4 1 6 -367 5 -816z"/>
</g>
</svg>
